<svg width="236" height="225" viewBox="0 0 236 225" fill="none" xmlns="http://www.w3.org/2000/svg">
<path d="M142.422 224.358L0 182.318L88.7995 0L235.512 35.6056L142.422 224.358Z" fill="#A37013"/>
<path d="M194.759 51.478L101.24 31.3158L34.748 166.445L131.269 196.045L194.759 51.478Z" fill="#F7F7F7"/>
<path d="M130.411 24.023L110.678 38.1795L175.454 55.3388V38.1795L169.019 24.023L185.321 12.8695L135.988 0.428955L143.28 18.4462L130.411 24.023Z" fill="#919191"/>
<path d="M92.5996 55.9001C92.9413 54.1916 95.8424 52.1923 97.002 50.9037C97.3617 50.5041 99.8442 46.0436 100.112 47.5145C100.574 50.0595 100.147 53.0372 100.147 55.6206C100.147 58.5766 99.5615 57.5048 101.404 56.5291C103.706 55.3107 106.552 55.8086 108.253 57.752C108.567 58.111 110.092 61.469 110.279 61.1411C111.846 58.3998 116.437 59.4291 117.127 62.1893" stroke="#1E1E1E" stroke-width="3" stroke-linecap="round"/>
<path d="M124.045 64.705C125.681 64.705 126.814 64.737 128.203 63.6568C129.297 62.8055 131.248 60.4269 132.85 60.7219C133.891 60.9136 134.315 62.2238 135.296 62.4689C136.16 62.685 135.38 64.146 136.379 64.146C140.87 64.146 143.207 69.5675 146.476 71.9027C149.733 74.2287 150.472 72.5383 153.115 70.5051C154.628 69.3415 157.156 73.9331 159.264 73.2304C165.214 71.2471 171.135 73.5659 176.874 76.0256" stroke="#1E1E1E" stroke-width="3" stroke-linecap="round"/>
<path d="M86.3086 67.8496C87.6917 73.3821 94.3569 72.0608 98.4677 72.252C100.169 72.3312 103.529 76.1854 105.176 77.2834" stroke="#1E1E1E" stroke-width="3" stroke-linecap="round"/>
<path d="M113.982 79.7991C113.982 80.8908 113.982 80.8908 113.982 79.7991" stroke="#1E1E1E" stroke-width="3" stroke-linecap="round"/>
<path d="M122.787 86.0883C124.573 84.2229 127.58 78.9036 130.334 78.5413C132.345 78.2767 133.818 82.1965 134.702 83.4329C135.799 84.9699 136.462 84.6154 138.021 84.8305C140.005 85.1041 141.556 87.2136 143.192 88.2546C144.537 89.1104 148.396 89.2062 149.97 89.2329C153.158 89.2869 153.988 90.0535 156.12 91.1197" stroke="#1E1E1E" stroke-width="3" stroke-linecap="round"/>
<path d="M164.295 94.8931H169.955" stroke="#1E1E1E" stroke-width="3" stroke-linecap="round"/>
<path d="M79.3926 90.4907C79.5363 88.7666 80.1972 87.0464 81.1396 85.5991C82.4742 83.5496 83.6297 85.5495 85.3324 85.669C87.396 85.8138 95.5448 77.923 95.7445 83.7124C95.9247 88.9379 97.0583 92.2029 98.8891 96.7799" stroke="#1E1E1E" stroke-width="3" stroke-linecap="round"/>
<path d="M100.775 96.7799C105.678 96.7799 110.58 98.8921 115.555 99.2606C117.208 99.3831 118.893 99.2956 120.551 99.2956C121.858 99.2956 122.693 100.844 124.045 101.182" stroke="#1E1E1E" stroke-width="3" stroke-linecap="round"/>
<path d="M131.592 106.214C134.227 106.214 137.178 105.826 139.768 106.353C141.907 106.789 144.033 109.115 146.057 110.127C147.567 110.882 154.105 115.274 155.491 112.503" stroke="#1E1E1E" stroke-width="3" stroke-linecap="round"/>
<path d="M68.7012 108.1C71.777 106.178 74.5493 102.875 78.3446 102.475C80.6104 102.237 81.014 106.776 82.2579 108.17C83.1244 109.142 83.2933 107.625 83.8651 108.555C86.0435 112.095 89.7274 111.924 93.1242 113.481C96.271 114.923 99.0518 117.593 102.453 118.512C103.804 118.878 112.443 119.846 113.215 118.512C113.732 117.618 113.354 115.801 113.354 114.774C113.354 112.57 114.582 119.1 115.87 120.888C118.081 123.959 124.172 123.216 127.61 123.788C129.525 124.108 135.885 128.462 137.114 127.457C139.723 125.322 150.394 121.026 151.055 126.968C151.373 129.838 151.09 132.885 151.09 135.773" stroke="#1E1E1E" stroke-width="3" stroke-linecap="round"/>
</svg>
