<svg width="295" height="281" viewBox="0 0 295 281" fill="none" xmlns="http://www.w3.org/2000/svg">
<path d="M177.971 280.358L0 227.825L110.964 0L294.296 44.4928L177.971 280.358Z" fill="#A37013"/>
<path d="M243.371 64.3268L126.511 39.1321L43.4219 207.99L164.035 244.978L243.371 64.3268Z" fill="#F7F7F7"/>
<path d="M162.961 30.0192L138.303 47.7091L219.247 69.1514V47.7091L211.207 30.0192L231.577 16.0817L169.93 0.536011L179.043 23.0504L162.961 30.0192Z" fill="#919191"/>
<path d="M115.713 69.8528C116.14 67.7177 119.765 65.2194 121.214 63.6092C121.664 63.1099 124.766 57.536 125.1 59.3741C125.678 62.5544 125.144 66.2752 125.144 69.5035C125.144 73.1973 124.412 71.8579 126.715 70.6387C129.591 69.1162 133.148 69.7384 135.273 72.1668C135.666 72.6155 137.571 76.8116 137.805 76.4019C139.763 72.9764 145.501 74.2625 146.363 77.7117" stroke="#1E1E1E" stroke-width="3" stroke-linecap="round"/>
<path d="M155.006 80.8556C157.051 80.8556 158.466 80.8956 160.202 79.5458C161.569 78.4819 164.007 75.5096 166.008 75.8783C167.309 76.1179 167.84 77.7551 169.065 78.0613C170.145 78.3314 169.17 80.157 170.418 80.157C176.03 80.157 178.951 86.9317 183.036 89.8498C187.105 92.7563 188.029 90.6441 191.332 88.1033C193.222 86.6494 196.382 92.387 199.016 91.5089C206.451 89.0306 213.849 91.9281 221.021 95.0018" stroke="#1E1E1E" stroke-width="3" stroke-linecap="round"/>
<path d="M107.852 84.7849C109.58 91.6983 117.909 90.0473 123.046 90.2862C125.172 90.3851 129.37 95.2013 131.429 96.5734" stroke="#1E1E1E" stroke-width="3" stroke-linecap="round"/>
<path d="M142.432 99.717C142.432 101.081 142.432 101.081 142.432 99.717" stroke="#1E1E1E" stroke-width="3" stroke-linecap="round"/>
<path d="M153.436 107.576C155.667 105.245 159.425 98.5982 162.866 98.1454C165.379 97.8147 167.22 102.713 168.324 104.258C169.696 106.179 170.524 105.736 172.472 106.004C174.951 106.346 176.889 108.982 178.934 110.283C180.614 111.353 185.437 111.472 187.404 111.506C191.387 111.573 192.424 112.531 195.088 113.863" stroke="#1E1E1E" stroke-width="3" stroke-linecap="round"/>
<path d="M205.303 118.578H212.376" stroke="#1E1E1E" stroke-width="3" stroke-linecap="round"/>
<path d="M99.209 113.077C99.3885 110.923 100.214 108.773 101.392 106.965C103.06 104.404 104.504 106.903 106.631 107.052C109.21 107.233 119.393 97.3727 119.642 104.607C119.867 111.137 121.284 115.217 123.572 120.936" stroke="#1E1E1E" stroke-width="3" stroke-linecap="round"/>
<path d="M125.93 120.936C132.056 120.936 138.181 123.576 144.398 124.036C146.464 124.189 148.57 124.08 150.642 124.08C152.275 124.08 153.317 126.015 155.008 126.437" stroke="#1E1E1E" stroke-width="3" stroke-linecap="round"/>
<path d="M164.438 132.725C167.731 132.725 171.418 132.24 174.654 132.899C177.327 133.444 179.984 136.35 182.513 137.615C184.401 138.559 192.57 144.047 194.302 140.584" stroke="#1E1E1E" stroke-width="3" stroke-linecap="round"/>
<path d="M85.8496 135.082C89.6932 132.68 93.1574 128.552 97.9 128.053C100.731 127.755 101.236 133.427 102.79 135.17C103.873 136.384 104.084 134.489 104.798 135.65C107.521 140.074 112.124 139.861 116.369 141.806C120.301 143.609 123.776 146.945 128.026 148.093C129.714 148.55 140.509 149.76 141.474 148.093C142.121 146.976 141.648 144.705 141.648 143.422C141.648 140.668 143.183 148.827 144.792 151.062C147.554 154.899 155.167 153.97 159.462 154.686C161.855 155.085 169.803 160.527 171.338 159.271C174.599 156.603 187.934 151.234 188.759 158.659C189.157 162.245 188.802 166.053 188.802 169.662" stroke="#1E1E1E" stroke-width="3" stroke-linecap="round"/>
</svg>
