<svg width="51" height="49" viewBox="0 0 51 49" fill="none" xmlns="http://www.w3.org/2000/svg">
<path d="M30.6977 48.3582L0 39.2968L19.1398 0L50.7622 7.67443L30.6977 48.3582Z" fill="#FFB800"/>
<path d="M41.9789 11.0955L21.822 6.74976L7.49023 35.8756L28.2944 42.2556L41.9789 11.0955Z" fill="#373737"/>
<path d="M28.1088 5.17799L23.8555 8.22927L37.8174 11.9278V8.22927L36.4304 5.17799L39.944 2.77396L29.3108 0.0925293L30.8827 3.97598L28.1088 5.17799Z" fill="#FFB800"/>
<path d="M19.959 12.0486C20.0326 11.6803 20.6579 11.2494 20.9079 10.9716C20.9854 10.8855 21.5205 9.92409 21.5781 10.2411C21.6779 10.7897 21.5857 11.4315 21.5857 11.9883C21.5857 12.6255 21.4595 12.3944 21.8568 12.1841C22.3528 11.9215 22.9663 12.0288 23.3329 12.4477C23.4006 12.5251 23.7293 13.2489 23.7696 13.1782C24.1073 12.5874 25.097 12.8092 25.2457 13.4041" stroke="#FFB800" stroke-width="0.517461" stroke-linecap="round"/>
<path d="M26.7363 13.9465C27.089 13.9465 27.3332 13.9534 27.6325 13.7205C27.8684 13.537 28.2889 13.0244 28.6341 13.0879C28.8585 13.1293 28.95 13.4117 29.1613 13.4645C29.3476 13.5111 29.1794 13.826 29.3948 13.826C30.3628 13.826 30.8665 14.9945 31.5712 15.4979C32.2731 15.9992 32.4324 15.6349 33.0021 15.1966C33.3281 14.9458 33.8731 15.9355 34.3275 15.784C35.61 15.3566 36.8861 15.8563 38.1231 16.3865" stroke="#FFB800" stroke-width="0.517461" stroke-linecap="round"/>
<path d="M18.6035 14.6243C18.9016 15.8167 20.3383 15.532 21.2243 15.5732C21.591 15.5902 22.3152 16.421 22.6702 16.6576" stroke="#FFB800" stroke-width="0.517461" stroke-linecap="round"/>
<path d="M24.5684 17.2C24.5684 17.4353 24.5684 17.4353 24.5684 17.2" stroke="#FFB800" stroke-width="0.517461" stroke-linecap="round"/>
<path d="M26.4648 18.5555C26.8498 18.1534 27.4979 17.0069 28.0915 16.9288C28.525 16.8717 28.8425 17.7166 29.0329 17.9831C29.2695 18.3144 29.4123 18.238 29.7483 18.2844C30.176 18.3433 30.5103 18.798 30.8629 19.0224C31.1528 19.2069 31.9846 19.2275 32.3239 19.2333C33.0109 19.2449 33.1898 19.4101 33.6494 19.6399" stroke="#FFB800" stroke-width="0.517461" stroke-linecap="round"/>
<path d="M35.4121 20.4531H36.6321" stroke="#FFB800" stroke-width="0.517461" stroke-linecap="round"/>
<path d="M17.1113 19.5045C17.1423 19.1329 17.2848 18.7621 17.4879 18.4501C17.7755 18.0084 18.0246 18.4394 18.3916 18.4652C18.8364 18.4964 20.5928 16.7956 20.6358 18.0435C20.6747 19.1698 20.919 19.8735 21.3136 20.86" stroke="#FFB800" stroke-width="0.517461" stroke-linecap="round"/>
<path d="M21.7207 20.8599C22.7773 20.8599 23.8339 21.3151 24.9063 21.3946C25.2626 21.421 25.6259 21.4021 25.9832 21.4021C26.2649 21.4021 26.4447 21.7359 26.7363 21.8088" stroke="#FFB800" stroke-width="0.517461" stroke-linecap="round"/>
<path d="M28.3633 22.8934C28.9314 22.8934 29.5674 22.8098 30.1255 22.9235C30.5866 23.0174 31.0449 23.5187 31.4811 23.7368C31.8067 23.8996 33.2158 24.8463 33.5145 24.2489" stroke="#FFB800" stroke-width="0.517461" stroke-linecap="round"/>
<path d="M14.8086 23.2999C15.4716 22.8855 16.0691 22.1735 16.8871 22.0874C17.3755 22.036 17.4625 23.0143 17.7306 23.3149C17.9174 23.5244 17.9538 23.1975 18.077 23.3978C18.5466 24.1608 19.3406 24.1241 20.0727 24.4597C20.751 24.7705 21.3504 25.346 22.0835 25.5441C22.3746 25.6228 24.2366 25.8316 24.403 25.5441C24.5146 25.3513 24.4332 24.9597 24.4332 24.7383C24.4332 24.2633 24.6978 25.6707 24.9754 26.0562C25.4519 26.718 26.7649 26.5578 27.5058 26.6813C27.9185 26.7501 29.2894 27.6887 29.5542 27.472C30.1167 27.0118 32.4168 26.0858 32.5591 27.3666C32.6278 27.9851 32.5666 28.6419 32.5666 29.2644" stroke="#FFB800" stroke-width="0.517461" stroke-linecap="round"/>
</svg>
