<svg width="252" height="202" viewBox="0 0 252 202" fill="none" xmlns="http://www.w3.org/2000/svg">
<path d="M123.844 55.9495L145.522 83.2407L35.1071 89.1736L15.1631 59.2125L123.844 55.9495Z" fill="#BB7F26" stroke="#A37013" stroke-width="1.92878"/>
<path d="M89.4473 200.118V107.862L220.384 98.6663V192.999L89.4473 200.118Z" fill="#BB7F26" stroke="#A37013" stroke-width="1.92878"/>
<path d="M34.5303 89.4703L89.4486 107.862V199.911C89.4486 200.518 88.7813 200.887 88.2674 200.565L34.5303 166.894V89.4703Z" fill="#BB7F26" stroke="#A37013" stroke-width="1.92878"/>
<path d="M146.1 83.8341L33.6621 88.877L89.4476 107.862L221.541 98.6663L146.1 83.8341Z" fill="#5D3C0B" stroke="#A37013" stroke-width="1.92878"/>
<path d="M50.4265 79.3844L89.4474 107.862L33.951 89.4703L1 65.4421L50.4265 79.3844Z" fill="#BB7F26" stroke="#A37013" stroke-width="1.92878"/>
<path d="M248.999 69.0018L219.228 98.3695L146.678 82.944L161.997 55.9495L248.999 69.0018Z" fill="#BB7F26" stroke="#A37013" stroke-width="1.92878"/>
<path d="M129.045 157.995L91.7588 108.455L220.094 98.0729L244.085 147.909L129.045 157.995Z" fill="#BB7F26" stroke="#A37013" stroke-width="1.92878"/>
<g filter="url(#filter0_d_239_4082)">
<path fill-rule="evenodd" clip-rule="evenodd" d="M119.949 1.5262C119.212 -0.508734 116.334 -0.508734 115.597 1.5262L114.465 4.64998C113.843 6.36617 111.572 6.72095 110.457 5.27618L108.465 2.69624C107.144 0.985974 104.408 1.85759 104.32 4.01655L104.18 7.44861C104.106 9.26423 102.065 10.2904 100.564 9.26655L97.8625 7.42442C96.0853 6.21232 93.7602 7.86865 94.3251 9.94439L95.2584 13.3736C95.732 15.114 94.1211 16.7034 92.3873 16.2063L89.1691 15.2838C87.1126 14.6944 85.4258 16.9711 86.5885 18.7668L88.5632 21.8165C89.5362 23.3191 88.5081 25.3101 86.7196 25.3869L83.2576 25.5355C81.1302 25.6268 80.2445 28.3 81.8965 29.6436L84.7221 31.9415C86.1043 33.0656 85.7514 35.2645 84.0868 35.8997L80.7443 37.175C78.7584 37.9328 78.7584 40.7422 80.7443 41.5L84.0868 42.7754C85.7514 43.4105 86.1043 45.6094 84.7221 46.7335L81.8965 49.0315C80.2445 50.375 81.1302 53.0482 83.2576 53.1395L86.7196 53.2881C88.5081 53.3649 89.5362 55.3559 88.5632 56.8585L86.5885 59.9082C85.4258 61.7039 87.1126 63.9807 89.1691 63.3912L92.3873 62.4687C94.1211 61.9717 95.732 63.561 95.2584 65.3014L94.3251 68.7306C93.7602 70.8064 96.0853 72.4627 97.8625 71.2506L100.564 69.4085C102.065 68.3846 104.106 69.4108 104.18 71.2264L104.32 74.6585C104.408 76.8174 107.144 77.689 108.465 75.9788L110.457 73.3988C111.572 71.9541 113.843 72.3088 114.465 74.025L115.597 77.1488C116.334 79.1837 119.212 79.1837 119.949 77.1488L121.08 74.025C121.702 72.3088 123.973 71.9541 125.089 73.3988L127.081 75.9788C128.401 77.689 131.137 76.8174 131.225 74.6585L131.365 71.2264C131.439 69.4108 133.481 68.3846 134.982 69.4085L137.683 71.2506C139.46 72.4627 141.785 70.8064 141.22 68.7306L140.287 65.3014C139.813 63.561 141.424 61.9717 143.158 62.4687L146.376 63.3912C148.433 63.9807 150.12 61.7039 148.957 59.9082L146.982 56.8585C146.009 55.3559 147.037 53.3649 148.826 53.2881L152.288 53.1395C154.415 53.0482 155.301 50.375 153.649 49.0315L150.823 46.7335C149.441 45.6094 149.794 43.4105 151.459 42.7754L154.801 41.5C156.787 40.7422 156.787 37.9328 154.801 37.175L151.459 35.8997C149.794 35.2645 149.441 33.0656 150.823 31.9415L153.649 29.6436C155.301 28.3 154.415 25.6268 152.288 25.5355L148.826 25.3869C147.037 25.3101 146.009 23.3191 146.982 21.8165L148.957 18.7668C150.12 16.9711 148.433 14.6944 146.376 15.2838L143.158 16.2063C141.424 16.7034 139.813 15.114 140.287 13.3736L141.22 9.94439C141.785 7.86865 139.46 6.21232 137.683 7.42442L134.982 9.26655C133.481 10.2904 131.439 9.26422 131.365 7.44861L131.225 4.01654C131.137 1.85758 128.401 0.985973 127.081 2.69624L125.089 5.27618C123.973 6.72095 121.702 6.36617 121.08 4.64998L119.949 1.5262ZM117.773 57.7411C127.676 57.7411 135.705 49.5015 135.705 39.3374C135.705 29.1733 127.676 20.9337 117.773 20.9337C107.869 20.9337 99.8403 29.1733 99.8403 39.3374C99.8403 49.5015 107.869 57.7411 117.773 57.7411Z" fill="#D9D9D9"/>
</g>
<path d="M117.092 99.3481C117.468 99.7248 118.079 99.7248 118.455 99.3481L124.593 93.2108C124.969 92.8342 124.969 92.2235 124.593 91.8469C124.216 91.4703 123.605 91.4703 123.229 91.8469L117.773 97.3024L112.318 91.8469C111.941 91.4703 111.331 91.4703 110.954 91.8469C110.578 92.2235 110.578 92.8342 110.954 93.2108L117.092 99.3481ZM116.809 77.3079V98.6662H118.738V77.3079H116.809Z" fill="#6FBBE6"/>
<defs>
<filter id="filter0_d_239_4082" x="77.7119" y="0" width="80.1222" height="81.761" filterUnits="userSpaceOnUse" color-interpolation-filters="sRGB">
<feFlood flood-opacity="0" result="BackgroundImageFix"/>
<feColorMatrix in="SourceAlpha" type="matrix" values="0 0 0 0 0 0 0 0 0 0 0 0 0 0 0 0 0 0 127 0" result="hardAlpha"/>
<feOffset dy="1.54303"/>
<feGaussianBlur stdDeviation="0.771513"/>
<feComposite in2="hardAlpha" operator="out"/>
<feColorMatrix type="matrix" values="0 0 0 0 0 0 0 0 0 0 0 0 0 0 0 0 0 0 0.25 0"/>
<feBlend mode="normal" in2="BackgroundImageFix" result="effect1_dropShadow_239_4082"/>
<feBlend mode="normal" in="SourceGraphic" in2="effect1_dropShadow_239_4082" result="shape"/>
</filter>
</defs>
</svg>
