<svg width="437" height="249" viewBox="0 0 437 249" fill="none" xmlns="http://www.w3.org/2000/svg">
<path d="M214.5 3L252 49L61 59L26.5 8.5L214.5 3Z" fill="#BB7F26" stroke="#A37013" stroke-width="5"/>
<path d="M155 246V90.5L381.5 75V234L155 246Z" fill="#BB7F26" stroke="#A37013" stroke-width="5"/>
<path d="M60 59.5L155 90.5V244.436C155 245.997 153.291 246.956 151.958 246.143L60 190V59.5Z" fill="#BB7F26" stroke="#A37013" stroke-width="5"/>
<path d="M253 50L58.5 58.5L155 90.5L383.5 75L253 50Z" fill="#5D3C0B" stroke="#A37013" stroke-width="5"/>
<path d="M87.5 42.5L155 90.5L59 59.5L2 19L87.5 42.5Z" fill="#BB7F26" stroke="#A37013" stroke-width="5"/>
<path d="M431 25L379.5 74.5L254 48.5L280.5 3L431 25Z" fill="#BB7F26" stroke="#A37013" stroke-width="5"/>
<path d="M223.5 175L159 91.5L381 74L422.5 158L223.5 175Z" fill="#BB7F26" stroke="#A37013" stroke-width="5"/>
</svg>
