<svg width="86" height="54" viewBox="0 0 86 54" fill="none" xmlns="http://www.w3.org/2000/svg">
<path d="M40.6359 3L47.4541 12.0122L12.7268 13.9714L6.4541 4.07755L40.6359 3Z" fill="#FFB800" stroke="#FFB800" stroke-width="5"/>
<path d="M29.8184 50.6082V20.1429L71.0002 17.1062V48.2572L29.8184 50.6082Z" fill="#FFB800" stroke="#FFB800" stroke-width="5"/>
<path d="M12.5449 14.0696L29.8176 20.143V47.2905C29.8176 48.8823 28.0483 49.8362 26.7184 48.9613L12.5449 39.6369V14.0696Z" fill="#FFB800" stroke="#FFB800" stroke-width="5"/>
<path d="M47.6361 12.2083L12.2725 13.8736L29.8179 20.1429L71.3634 17.1062L47.6361 12.2083Z" stroke="#FFB800" stroke-width="5"/>
<path d="M17.5455 10.7388L29.8182 20.1429L12.3636 14.0695L2 6.13477L17.5455 10.7388Z" fill="#FFB800" stroke="#FFB800" stroke-width="5"/>
<path d="M80.0002 7.3102L70.6365 17.0082L47.8184 11.9143L52.6365 3L80.0002 7.3102Z" fill="#FFB800" stroke="#FFB800" stroke-width="5"/>
<path d="M42.2732 36.6979L30.5459 20.3387L70.9095 16.9102L78.455 33.3673L42.2732 36.6979Z" fill="#FFB800" stroke="#FFB800" stroke-width="5"/>
</svg>
