<svg width="858" height="281" viewBox="0 0 858 281" fill="none" xmlns="http://www.w3.org/2000/svg">
<path d="M17 279.865V226.99V225.865H854.764L857 279.865H17Z" fill="#E5E5E5" stroke="#E5E5E5"/>
<path d="M841.431 188.865H12.2399C-0.872231 201.725 6.77649 214.89 12.2399 219.865H841.431C855.139 205.169 847.143 193.075 841.431 188.865Z" fill="#353535" stroke="#353535"/>
<rect x="126.935" y="231.311" width="61.2651" height="43.1124" fill="#6E8386"/>
<rect x="192.737" y="231.311" width="61.2651" height="43.1124" fill="#6E8386"/>
<rect x="258.541" y="231.311" width="61.2651" height="43.1124" fill="#6E8386"/>
<rect x="324.344" y="231.311" width="61.2651" height="43.1124" fill="#6E8386"/>
<rect x="390.147" y="231.311" width="61.2651" height="43.1124" fill="#6E8386"/>
<rect x="455.95" y="231.311" width="61.2651" height="43.1124" fill="#6E8386"/>
<rect x="521.754" y="231.311" width="61.2651" height="43.1124" fill="#6E8386"/>
<rect x="587.557" y="231.311" width="61.2651" height="43.1124" fill="#6E8386"/>
<rect x="653.36" y="231.311" width="61.2651" height="43.1124" fill="#6E8386"/>
<rect x="719.163" y="231.311" width="61.2651" height="43.1124" fill="#6E8386"/>
<rect x="784.967" y="231.311" width="61.2651" height="43.1124" fill="#6E8386"/>
<rect x="61.1309" y="231.311" width="61.2651" height="43.1124" fill="#6E8386"/>
<path d="M308 65L357.92 67.3992V253.333L308 249.735V65Z" fill="#6F6F6F" stroke="#6F6F6F"/>
<path d="M355.65 67.269V253.333H514.486V67.269H355.65Z" fill="#B9B8AC" stroke="#B9B8AC"/>
<rect x="362.458" y="99.0361" width="61.2651" height="68.0723" fill="#74CBFC"/>
<rect x="430.53" y="99.0361" width="72.6104" height="68.0723" fill="#74CBFC"/>
<path d="M112.185 280.096H1L11.2108 224.504H33.9016C21.7999 181.013 7.12651 97.2088 45.247 109.916L130.337 1L184.795 80.4177C193.493 80.0395 207.486 85.4095 193.871 109.916C194.628 100.461 193.871 82.4598 184.795 86.0904C183.282 89.1158 178.896 94.259 173.45 90.6285C170.424 92.5194 167.323 99.4779 179.122 112.185C171.181 110.672 158.02 103.335 168.912 86.0904L130.337 20.2871L65.6687 117.857C70.9632 119.748 85.8635 143.725 103.108 224.504L112.185 280.096Z" fill="#E29234"/>
<path d="M103.108 224.504L112.185 280.096H1L11.2108 224.504H33.9016M103.108 224.504H33.9016M103.108 224.504C85.8635 143.725 70.9632 119.748 65.6687 117.857L130.337 20.2871L168.912 86.0904C158.02 103.335 171.181 110.672 179.122 112.185C167.323 99.4779 170.424 92.5194 173.45 90.6285C178.896 94.259 183.282 89.1158 184.795 86.0904C193.871 82.4598 194.628 100.461 193.871 109.916C207.486 85.4095 193.493 80.0395 184.795 80.4177L130.337 1L45.247 109.916C7.12651 97.2088 21.7999 181.013 33.9016 224.504" stroke="#E29234"/>
</svg>
