<svg width="37" height="50" viewBox="0 0 37 50" fill="none" xmlns="http://www.w3.org/2000/svg">
<path d="M20.5985 49H1L2.79987 39.439H6.79957C4.66639 31.9593 2.07992 17.5463 8.79942 19.7317L23.7983 1L33.3976 14.6585C34.9308 14.5935 37.3973 15.5171 34.9975 19.7317C35.1308 18.1057 34.9975 15.0098 33.3976 15.6341C33.1309 16.1545 32.3577 17.039 31.3977 16.4146C30.8644 16.7398 30.3178 17.9366 32.3977 20.122C30.9978 19.8618 28.6779 18.6 30.5978 15.6341L23.7983 4.31707L12.3992 21.0976C13.3324 21.4228 15.9589 25.5463 18.9987 39.439L20.5985 49Z" fill="#FFB800"/>
<path d="M18.9987 39.439L20.5985 49H1L2.79987 39.439H6.79957M18.9987 39.439H6.79957M18.9987 39.439C15.9589 25.5463 13.3324 21.4228 12.3992 21.0976L23.7983 4.31707L30.5978 15.6341C28.6779 18.6 30.9978 19.8618 32.3977 20.122C30.3178 17.9366 30.8644 16.7398 31.3977 16.4146C32.3577 17.039 33.1309 16.1545 33.3976 15.6341C34.9975 15.0098 35.1308 18.1057 34.9975 19.7317C37.3973 15.5171 34.9308 14.5935 33.3976 14.6585L23.7983 1L8.79942 19.7317C2.07992 17.5463 4.66639 31.9593 6.79957 39.439" stroke="#FFB800"/>
</svg>
