<svg width="361" height="222" viewBox="0 0 361 222" fill="none" xmlns="http://www.w3.org/2000/svg">
<path d="M108.576 216.838V48.7725L356.381 32.02V203.868L108.576 216.838Z" fill="#BB7F26" stroke="#A37013" stroke-width="8.23077"/>
<path d="M4.6416 15.2676L108.577 48.7726V213.169C108.577 215.732 105.779 217.312 103.585 215.989L4.6416 156.313V15.2676Z" fill="#BB7F26" stroke="#A37013" stroke-width="8.23077"/>
<path d="M215.795 5L3 14.1869L108.577 48.7727L358.569 32.0202L215.795 5Z" fill="#BB7F26" stroke="#A37013" stroke-width="8.23077"/>
<path d="M180.785 170.364V89.303L301.132 77.9545V161.177L180.785 170.364Z" fill="#D9D9D9" stroke="#CBC8C4" stroke-width="8.23077"/>
<path d="M205.975 133.239C209.083 133.239 213.135 133.972 215.93 132.365C217.141 131.669 218.119 129.808 219.635 129.688C222.754 129.441 225.207 131.988 228.098 129.305C229.893 127.639 230.104 124.628 232.08 123.186C233.897 121.859 236.542 125.098 238.053 125.699C242.367 127.418 244.684 123.259 248.285 123.678C255.41 124.506 261.108 131.841 268.914 129.087C274.161 127.236 275.411 124.453 277.653 119.471" stroke="#0769A0" stroke-width="4.93846" stroke-linecap="round"/>
<path d="M217.924 149.959C220.553 148.01 226.975 141.194 230.423 141.49C233.951 141.793 236.782 144.218 240.71 144.276C244.436 144.332 247.296 143.114 250.776 142.255C254.595 141.312 256.696 144.911 260.51 145.041C262.899 145.123 265.309 145.041 267.7 145.041" stroke="#0769A0" stroke-width="4.93846" stroke-linecap="round"/>
<path d="M202.99 112.586C204.62 110.473 210.022 97.9634 213.72 103.954C214.83 105.753 214.548 107.128 216.43 108.161C219.311 109.742 220.672 102.235 222.458 101.058C227.989 97.4155 231.585 104.964 236.285 104.664C238.375 104.531 240.39 103.125 242.258 104.391C246.165 107.037 247.957 106.247 251.771 103.735" stroke="#0769A0" stroke-width="4.93846" stroke-linecap="round"/>
</svg>
