<svg width="220" height="135" viewBox="0 0 220 135" fill="none" xmlns="http://www.w3.org/2000/svg">
<g filter="url(#filter0_d_273_6744)">
<path fill-rule="evenodd" clip-rule="evenodd" d="M111.694 30.5262C110.957 28.4913 108.079 28.4913 107.342 30.5262L106.21 33.65C105.588 35.3662 103.317 35.7209 102.202 34.2762L100.21 31.6962C98.8893 29.986 96.1532 30.8576 96.0653 33.0166L95.9254 36.4486C95.8514 38.2642 93.8099 39.2904 92.3087 38.2665L89.6076 36.4244C87.8304 35.2123 85.5053 36.8687 86.0702 38.9444L87.0035 42.3736C87.4771 44.114 85.8663 45.7034 84.1324 45.2063L80.9142 44.2838C78.8578 43.6944 77.1709 45.9711 78.3336 47.7668L80.3083 50.8165C81.2813 52.3191 80.2532 54.3101 78.4647 54.3869L75.0027 54.5355C72.8753 54.6268 71.9896 57.3 73.6416 58.6436L76.4672 60.9415C77.8494 62.0656 77.4965 64.2645 75.8319 64.8997L72.4894 66.175C70.5035 66.9328 70.5035 69.7422 72.4894 70.5L75.8319 71.7754C77.4965 72.4105 77.8494 74.6094 76.4672 75.7335L73.6416 78.0315C71.9896 79.375 72.8753 82.0482 75.0027 82.1395L78.4647 82.2881C80.2532 82.3649 81.2813 84.3559 80.3083 85.8585L78.3336 88.9082C77.1709 90.7039 78.8578 92.9807 80.9142 92.3912L84.1324 91.4687C85.8663 90.9717 87.4771 92.561 87.0035 94.3014L86.0702 97.7306C85.5053 99.8064 87.8304 101.463 89.6076 100.251L92.3087 98.4085C93.8099 97.3846 95.8514 98.4108 95.9254 100.226L96.0653 103.658C96.1532 105.817 98.8893 106.689 100.21 104.979L102.202 102.399C103.317 100.954 105.588 101.309 106.21 103.025L107.342 106.149C108.079 108.184 110.957 108.184 111.694 106.149L112.826 103.025C113.447 101.309 115.718 100.954 116.834 102.399L118.826 104.979C120.146 106.689 122.882 105.817 122.97 103.658L123.11 100.226C123.184 98.4108 125.226 97.3846 126.727 98.4085L129.428 100.251C131.205 101.463 133.53 99.8064 132.965 97.7306L132.032 94.3014C131.559 92.561 133.169 90.9717 134.903 91.4687L138.121 92.3912C140.178 92.9807 141.865 90.7039 140.702 88.9082L138.727 85.8585C137.754 84.3559 138.782 82.3649 140.571 82.2881L144.033 82.1395C146.16 82.0482 147.046 79.375 145.394 78.0315L142.568 75.7335C141.186 74.6094 141.539 72.4105 143.204 71.7754L146.546 70.5C148.532 69.7422 148.532 66.9328 146.546 66.175L143.204 64.8997C141.539 64.2645 141.186 62.0656 142.568 60.9415L145.394 58.6436C147.046 57.3 146.16 54.6268 144.033 54.5355L140.571 54.3869C138.782 54.3101 137.754 52.3191 138.727 50.8165L140.702 47.7668C141.865 45.9711 140.178 43.6944 138.121 44.2838L134.903 45.2063C133.169 45.7034 131.559 44.114 132.032 42.3736L132.965 38.9444C133.53 36.8687 131.205 35.2123 129.428 36.4244L126.727 38.2666C125.226 39.2904 123.184 38.2642 123.11 36.4486L122.97 33.0165C122.882 30.8576 120.146 29.986 118.826 31.6962L116.834 34.2762C115.718 35.7209 113.447 35.3662 112.826 33.65L111.694 30.5262ZM109.518 86.7411C119.421 86.7411 127.45 78.5015 127.45 68.3374C127.45 58.1733 119.421 49.9337 109.518 49.9337C99.6139 49.9337 91.5854 58.1733 91.5854 68.3374C91.5854 78.5015 99.6139 86.7411 109.518 86.7411Z" fill="#D9D9D9"/>
</g>
<path d="M66.1348 131.687V29.5909L216.67 19.4141V123.808L66.1348 131.687Z" fill="#BB7F26" fill-opacity="0.4" stroke="#A37013" stroke-width="5"/>
<path d="M2.99707 9.23737L66.1355 29.5909V129.458C66.1355 131.015 64.4356 131.975 63.1026 131.171L2.99707 94.9192V9.23737Z" fill="#BB7F26" fill-opacity="0.4" stroke="#A37013" stroke-width="5"/>
<path d="M131.268 3L2 8.58081L66.1354 29.5909L218 19.4141L131.268 3Z" fill="#BB7F26" fill-opacity="0.4" stroke="#A37013" stroke-width="5"/>
<path d="M110 103.455V54.2121L183.108 47.3182V97.8737L110 103.455Z" fill="#D9D9D9" fill-opacity="0.4" stroke="#CBC8C4" stroke-opacity="0.4" stroke-width="5"/>
<path d="M125.303 80.9025C127.191 80.9025 129.652 81.3474 131.35 80.3715C132.086 79.9485 132.68 78.8179 133.601 78.7451C135.496 78.5954 136.986 80.1424 138.742 78.5128C139.833 77.5004 139.961 75.6715 141.161 74.7954C142.265 73.9892 143.872 75.9566 144.789 76.3222C147.41 77.3661 148.818 74.8399 151.005 75.0941C155.334 75.5972 158.795 80.053 163.537 78.38C166.724 77.2555 167.484 75.565 168.846 72.5384" stroke="#0769A0" stroke-opacity="0.4" stroke-width="3" stroke-linecap="round"/>
<path d="M132.561 91.0589C134.158 89.8754 138.059 85.7344 140.154 85.9143C142.296 86.0984 144.016 87.5713 146.403 87.6071C148.666 87.6409 150.403 86.9012 152.518 86.379C154.837 85.8061 156.114 87.9928 158.431 88.0717C159.882 88.1212 161.346 88.0717 162.799 88.0717" stroke="#0769A0" stroke-opacity="0.4" stroke-width="3" stroke-linecap="round"/>
<path d="M123.488 68.3563C124.478 67.0727 127.76 59.4732 130.006 63.1122C130.681 64.205 130.51 65.0406 131.653 65.6679C133.403 66.6286 134.229 62.0678 135.315 61.3531C138.674 59.1403 140.859 63.7256 143.714 63.5437C144.984 63.4628 146.208 62.6088 147.343 63.3777C149.716 64.9853 150.805 64.5052 153.122 62.9794" stroke="#0769A0" stroke-opacity="0.4" stroke-width="3" stroke-linecap="round"/>
<defs>
<filter id="filter0_d_273_6744" x="69.457" y="29" width="80.1212" height="81.761" filterUnits="userSpaceOnUse" color-interpolation-filters="sRGB">
<feFlood flood-opacity="0" result="BackgroundImageFix"/>
<feColorMatrix in="SourceAlpha" type="matrix" values="0 0 0 0 0 0 0 0 0 0 0 0 0 0 0 0 0 0 127 0" result="hardAlpha"/>
<feOffset dy="1.54303"/>
<feGaussianBlur stdDeviation="0.771513"/>
<feComposite in2="hardAlpha" operator="out"/>
<feColorMatrix type="matrix" values="0 0 0 0 0 0 0 0 0 0 0 0 0 0 0 0 0 0 0.25 0"/>
<feBlend mode="normal" in2="BackgroundImageFix" result="effect1_dropShadow_273_6744"/>
<feBlend mode="normal" in="SourceGraphic" in2="effect1_dropShadow_273_6744" result="shape"/>
</filter>
</defs>
</svg>
