<svg width="71" height="58" viewBox="0 0 71 58" fill="none" xmlns="http://www.w3.org/2000/svg">
<path d="M5 53V10.8947L66.742 5V48.2281L5 53Z" stroke="#FFB800" stroke-width="8.23077"/>
<path d="M17.9229 33.7165C19.5176 33.7165 21.5963 34.0969 23.0303 33.2624C23.6517 32.9008 24.1532 31.9341 24.9314 31.8718C26.5312 31.7438 27.7896 33.0666 29.2727 31.6731C30.194 30.8075 30.3023 29.2437 31.3156 28.4946C32.248 27.8053 33.605 29.4875 34.3801 29.8C36.5934 30.6927 37.782 28.5326 39.6294 28.75C43.2852 29.1802 46.2085 32.9901 50.2131 31.5596C52.9049 30.5981 53.5463 29.1527 54.6963 26.5647" stroke="#FFB800" stroke-width="4.93846" stroke-linecap="round"/>
<path d="M24.0537 42.4011C25.4027 41.3892 28.6974 37.8483 30.4664 38.0022C32.276 38.1596 33.7286 39.419 35.744 39.4496C37.6553 39.4785 39.1224 38.846 40.9082 38.3995C42.8671 37.9097 43.9452 39.7794 45.9021 39.8469C47.1276 39.8892 48.3641 39.8469 49.5908 39.8469" stroke="#FFB800" stroke-width="4.93846" stroke-linecap="round"/>
<path d="M16.3916 22.9887C17.2277 21.8911 19.9993 15.393 21.8963 18.5046C22.4659 19.439 22.3213 20.1535 23.2866 20.6899C24.7649 21.5113 25.4629 17.6116 26.3794 17.0005C29.2169 15.1085 31.0616 19.0292 33.4731 18.8736C34.5451 18.8044 35.5789 18.0742 36.5375 18.7317C38.5417 20.1062 39.4613 19.6958 41.418 18.3911" stroke="#FFB800" stroke-width="4.93846" stroke-linecap="round"/>
</svg>
