<svg width="680" height="70" viewBox="0 0 680 70" fill="none" xmlns="http://www.w3.org/2000/svg">
<path d="M655.5 0C649.002 0 642.771 2.58124 638.176 7.17588C633.581 11.7705 631 18.0022 631 24.5C631 32.83 635.165 40.145 641.5 44.59V52.5C641.5 53.4283 641.869 54.3185 642.525 54.9749C643.182 55.6313 644.072 56 645 56H666C666.928 56 667.818 55.6313 668.475 54.9749C669.131 54.3185 669.5 53.4283 669.5 52.5V44.59C675.835 40.145 680 32.83 680 24.5C680 18.0022 677.419 11.7705 672.824 7.17588C668.229 2.58124 661.998 0 655.5 0ZM645 66.5C645 67.4283 645.369 68.3185 646.025 68.9749C646.682 69.6313 647.572 70 648.5 70H662.5C663.428 70 664.318 69.6313 664.975 68.9749C665.631 68.3185 666 67.4283 666 66.5V63H645V66.5Z" fill="#F9F9F9"/>
<path d="M426.5 65.8385V4.5H459.959L474.5 18.6711V65.8385H426.5Z" fill="#7AA841" stroke="#1BC400" stroke-width="3"/>
<path d="M474.203 19.2836L459.222 4.55705C459.14 4.47576 459 4.53434 459 4.65031V19.3768C459 19.4491 459.059 19.5076 459.131 19.5076H474.111C474.228 19.5076 474.286 19.3656 474.203 19.2836Z" stroke="#1BC400" stroke-width="3"/>
<path d="M455 42.3384H645" stroke="#1BC400" stroke-width="4"/>
<circle cx="655.5" cy="41.8384" r="6" stroke="#1BC400" stroke-width="5"/>
<path d="M214.5 65.8385V4.5H247.959L262.5 18.6711V65.8385H214.5Z" fill="#A88B41" stroke="#FFB800" stroke-width="3"/>
<path d="M262.203 19.2836L247.222 4.55705C247.14 4.47576 247 4.53434 247 4.65031V19.3768C247 19.4491 247.059 19.5076 247.131 19.5076H262.111C262.228 19.5076 262.286 19.3656 262.203 19.2836Z" stroke="#FFB800" stroke-width="3"/>
<path d="M243 42.3384H433" stroke="#FFB800" stroke-width="4"/>
<circle cx="443.5" cy="41.8384" r="6" stroke="#FFB800" stroke-width="5"/>
<path d="M1.5 65.5001V4.16162H34.9592L49.5 18.3327V65.5001H1.5Z" fill="#C26767" stroke="#E21212" stroke-width="3"/>
<path d="M49.2029 18.9452L34.2224 4.21867C34.1397 4.13738 34 4.19596 34 4.31193V19.0385C34 19.1107 34.0585 19.1692 34.1308 19.1692H49.1112C49.2283 19.1692 49.2863 19.0273 49.2029 18.9452Z" stroke="#E21212" stroke-width="3"/>
<path d="M30 42H220" stroke="#E21212" stroke-width="4"/>
<circle cx="230.5" cy="41.5" r="6" stroke="#E21212" stroke-width="5"/>
</svg>
