<svg width="50" height="48" viewBox="0 0 50 48" fill="none" xmlns="http://www.w3.org/2000/svg">
<mask id="path-1-inside-1_318_8058" fill="white">
<path d="M8.181 3.999C5.922 3.999 4.092 5.79 4.092 8.001V39.999C4.092 42.21 5.922 44.001 8.181 44.001H41.819C44.078 44.001 45.908 42.21 45.908 39.999V8.001C45.908 5.79 44.078 3.999 41.819 3.999H8.181ZM41.819 0C46.337 0 50 3.582 50 8.001V39.999C50 44.418 46.337 48 41.819 48H8.181C3.663 48 0 44.418 0 39.999V8.001C0 3.582 3.663 0 8.181 0H41.819ZM37.501 33.399H12C11.7342 33.3958 11.4704 33.4451 11.2237 33.544C10.977 33.6429 10.7521 33.7894 10.5621 33.9753C10.3721 34.1611 10.2206 34.3826 10.1162 34.6271C10.0119 34.8716 9.95674 35.1342 9.954 35.4C9.954 36.504 10.869 37.401 12 37.401H37.501C37.7665 37.4038 38.03 37.3542 38.2764 37.2551C38.5228 37.1561 38.7472 37.0095 38.937 36.8237C39.1267 36.6378 39.2779 36.4165 39.3821 36.1722C39.4862 35.9279 39.5413 35.6655 39.544 35.4C39.5413 35.1345 39.4862 34.8721 39.3821 34.6278C39.2779 34.3835 39.1267 34.1622 38.937 33.9763C38.7472 33.7905 38.5228 33.6439 38.2764 33.5448C38.03 33.4458 37.7665 33.3962 37.501 33.399ZM37.501 22.899H12C11.7342 22.8958 11.4704 22.9451 11.2237 23.044C10.977 23.1429 10.7521 23.2894 10.5621 23.4753C10.3721 23.6611 10.2206 23.8826 10.1162 24.1271C10.0119 24.3716 9.95674 24.6342 9.954 24.9C9.954 26.004 10.869 26.901 12 26.901H37.501C37.7665 26.9038 38.03 26.8542 38.2764 26.7551C38.5228 26.6561 38.7472 26.5095 38.937 26.3237C39.1267 26.1378 39.2779 25.9165 39.3821 25.6722C39.4862 25.4279 39.5413 25.1655 39.544 24.9C39.5413 24.6345 39.4862 24.3721 39.3821 24.1278C39.2779 23.8835 39.1267 23.6622 38.937 23.4763C38.7472 23.2905 38.5228 23.1439 38.2764 23.0448C38.03 22.9458 37.7665 22.8962 37.501 22.899ZM37.501 12.399H12C11.7342 12.3958 11.4704 12.4451 11.2237 12.544C10.977 12.6429 10.7521 12.7894 10.5621 12.9753C10.3721 13.1611 10.2206 13.3826 10.1162 13.6271C10.0119 13.8716 9.95674 14.1342 9.954 14.4C9.954 15.504 10.869 16.401 12 16.401H37.501C37.7665 16.4038 38.03 16.3542 38.2764 16.2551C38.5228 16.1561 38.7472 16.0095 38.937 15.8237C39.1267 15.6378 39.2779 15.4165 39.3821 15.1722C39.4862 14.9279 39.5413 14.6655 39.544 14.4C39.5413 14.1345 39.4862 13.8721 39.3821 13.6278C39.2779 13.3835 39.1267 13.1622 38.937 12.9763C38.7472 12.7905 38.5228 12.6439 38.2764 12.5449C38.03 12.4458 37.7665 12.3962 37.501 12.399Z"/>
</mask>
<path d="M8.181 3.999C5.922 3.999 4.092 5.79 4.092 8.001V39.999C4.092 42.21 5.922 44.001 8.181 44.001H41.819C44.078 44.001 45.908 42.21 45.908 39.999V8.001C45.908 5.79 44.078 3.999 41.819 3.999H8.181ZM41.819 0C46.337 0 50 3.582 50 8.001V39.999C50 44.418 46.337 48 41.819 48H8.181C3.663 48 0 44.418 0 39.999V8.001C0 3.582 3.663 0 8.181 0H41.819ZM37.501 33.399H12C11.7342 33.3958 11.4704 33.4451 11.2237 33.544C10.977 33.6429 10.7521 33.7894 10.5621 33.9753C10.3721 34.1611 10.2206 34.3826 10.1162 34.6271C10.0119 34.8716 9.95674 35.1342 9.954 35.4C9.954 36.504 10.869 37.401 12 37.401H37.501C37.7665 37.4038 38.03 37.3542 38.2764 37.2551C38.5228 37.1561 38.7472 37.0095 38.937 36.8237C39.1267 36.6378 39.2779 36.4165 39.3821 36.1722C39.4862 35.9279 39.5413 35.6655 39.544 35.4C39.5413 35.1345 39.4862 34.8721 39.3821 34.6278C39.2779 34.3835 39.1267 34.1622 38.937 33.9763C38.7472 33.7905 38.5228 33.6439 38.2764 33.5448C38.03 33.4458 37.7665 33.3962 37.501 33.399ZM37.501 22.899H12C11.7342 22.8958 11.4704 22.9451 11.2237 23.044C10.977 23.1429 10.7521 23.2894 10.5621 23.4753C10.3721 23.6611 10.2206 23.8826 10.1162 24.1271C10.0119 24.3716 9.95674 24.6342 9.954 24.9C9.954 26.004 10.869 26.901 12 26.901H37.501C37.7665 26.9038 38.03 26.8542 38.2764 26.7551C38.5228 26.6561 38.7472 26.5095 38.937 26.3237C39.1267 26.1378 39.2779 25.9165 39.3821 25.6722C39.4862 25.4279 39.5413 25.1655 39.544 24.9C39.5413 24.6345 39.4862 24.3721 39.3821 24.1278C39.2779 23.8835 39.1267 23.6622 38.937 23.4763C38.7472 23.2905 38.5228 23.1439 38.2764 23.0448C38.03 22.9458 37.7665 22.8962 37.501 22.899ZM37.501 12.399H12C11.7342 12.3958 11.4704 12.4451 11.2237 12.544C10.977 12.6429 10.7521 12.7894 10.5621 12.9753C10.3721 13.1611 10.2206 13.3826 10.1162 13.6271C10.0119 13.8716 9.95674 14.1342 9.954 14.4C9.954 15.504 10.869 16.401 12 16.401H37.501C37.7665 16.4038 38.03 16.3542 38.2764 16.2551C38.5228 16.1561 38.7472 16.0095 38.937 15.8237C39.1267 15.6378 39.2779 15.4165 39.3821 15.1722C39.4862 14.9279 39.5413 14.6655 39.544 14.4C39.5413 14.1345 39.4862 13.8721 39.3821 13.6278C39.2779 13.3835 39.1267 13.1622 38.937 12.9763C38.7472 12.7905 38.5228 12.6439 38.2764 12.5449C38.03 12.4458 37.7665 12.3962 37.501 12.399Z" fill="#FFB800"/>
<path d="M37.501 33.399V41.5622H37.5436L37.5862 41.5618L37.501 33.399ZM12 33.399L11.9027 41.5616L11.9513 41.5622H12V33.399ZM9.954 35.4L1.79122 35.3158L1.79079 35.3579V35.4H9.954ZM37.501 37.401L37.5862 29.2382L37.5436 29.2378H37.501V37.401ZM39.544 35.4L47.7068 35.4843L47.7076 35.4L47.7068 35.3157L39.544 35.4ZM37.501 22.899V31.0622H37.5436L37.5862 31.0618L37.501 22.899ZM12 22.899L11.9027 31.0616L11.9513 31.0622H12V22.899ZM9.954 24.9L1.79122 24.8158L1.79079 24.8579V24.9H9.954ZM37.501 26.901L37.5862 18.7382L37.5436 18.7378H37.501V26.901ZM39.544 24.9L47.7068 24.9843L47.7076 24.9L47.7068 24.8157L39.544 24.9ZM37.501 12.399V20.5622H37.5436L37.5862 20.5618L37.501 12.399ZM12 12.399L11.9027 20.5616L11.9513 20.5622H12V12.399ZM9.954 14.4L1.79122 14.3158L1.79079 14.3579V14.4H9.954ZM37.501 16.401L37.5862 8.23824L37.5436 8.23779H37.501V16.401ZM39.544 14.4L47.7068 14.4843L47.7076 14.4L47.7068 14.3157L39.544 14.4ZM8.181 -4.16421C1.58006 -4.16421 -4.07121 1.11689 -4.07121 8.001H12.2552C12.2552 10.4631 10.2639 12.1622 8.181 12.1622V-4.16421ZM-4.07121 8.001V39.999H12.2552V8.001H-4.07121ZM-4.07121 39.999C-4.07121 46.8831 1.58006 52.1642 8.181 52.1642V35.8378C10.2639 35.8378 12.2552 37.5369 12.2552 39.999H-4.07121ZM8.181 52.1642H41.819V35.8378H8.181V52.1642ZM41.819 52.1642C48.4199 52.1642 54.0712 46.8831 54.0712 39.999H37.7448C37.7448 37.5369 39.7361 35.8378 41.819 35.8378V52.1642ZM54.0712 39.999V8.001H37.7448V39.999H54.0712ZM54.0712 8.001C54.0712 1.11689 48.4199 -4.16421 41.819 -4.16421V12.1622C39.7361 12.1622 37.7448 10.4631 37.7448 8.001H54.0712ZM41.819 -4.16421H8.181V12.1622H41.819V-4.16421ZM41.819 8.16321C41.8623 8.16321 41.8792 8.17047 41.883 8.17206C41.8918 8.1757 41.8964 8.17986 41.8962 8.17958C41.8958 8.17923 41.8808 8.16463 41.8646 8.12705C41.8563 8.10786 41.8488 8.08516 41.8436 8.06034C41.8383 8.035 41.8368 8.0141 41.8368 8.001H58.1632C58.1632 -1.09694 50.673 -8.16321 41.819 -8.16321V8.16321ZM41.8368 8.001V39.999H58.1632V8.001H41.8368ZM41.8368 39.999C41.8368 39.9859 41.8383 39.965 41.8436 39.9397C41.8488 39.9148 41.8563 39.8921 41.8646 39.873C41.8808 39.8354 41.8958 39.8208 41.8962 39.8204C41.8964 39.8201 41.8918 39.8243 41.883 39.8279C41.8792 39.8295 41.8623 39.8368 41.819 39.8368V56.1632C50.673 56.1632 58.1632 49.0969 58.1632 39.999H41.8368ZM41.819 39.8368H8.181V56.1632H41.819V39.8368ZM8.181 39.8368C8.13775 39.8368 8.12083 39.8295 8.11698 39.8279C8.10817 39.8243 8.10357 39.8201 8.10385 39.8204C8.10421 39.8208 8.11917 39.8354 8.13542 39.873C8.14372 39.8921 8.1512 39.9148 8.15639 39.9397C8.16169 39.965 8.16321 39.9859 8.16321 39.999H-8.16321C-8.16321 49.0969 -0.672982 56.1632 8.181 56.1632V39.8368ZM8.16321 39.999V8.001H-8.16321V39.999H8.16321ZM8.16321 8.001C8.16321 8.0141 8.16169 8.035 8.15639 8.06034C8.1512 8.08516 8.14372 8.10786 8.13542 8.12705C8.11917 8.16463 8.10421 8.17923 8.10385 8.17958C8.10357 8.17986 8.10817 8.1757 8.11698 8.17206C8.12083 8.17047 8.13775 8.16321 8.181 8.16321V-8.16321C-0.672982 -8.16321 -8.16321 -1.09694 -8.16321 8.001H8.16321ZM8.181 8.16321H41.819V-8.16321H8.181V8.16321ZM37.501 25.2358H12V41.5622H37.501V25.2358ZM12.0973 25.2364C10.7586 25.2204 9.42974 25.4685 8.18685 25.9667L14.2605 41.1213C13.5111 41.4216 12.7098 41.5713 11.9027 41.5616L12.0973 25.2364ZM8.18685 25.9667C6.94401 26.4648 5.8116 27.203 4.85438 28.1392L16.2698 39.8114C15.6927 40.3758 15.0099 40.821 14.2605 41.1213L8.18685 25.9667ZM4.85438 28.1392C3.89717 29.0754 3.13391 30.1911 2.6083 31.4225L17.6241 37.8317C17.3072 38.5742 16.847 39.2469 16.2698 39.8114L4.85438 28.1392ZM2.6083 31.4225C2.08267 32.654 1.80503 33.977 1.79122 35.3158L18.1168 35.4842C18.1084 36.2914 17.941 37.0891 17.6241 37.8317L2.6083 31.4225ZM1.79079 35.4C1.79079 41.177 6.52698 45.5642 12 45.5642V29.2378C15.211 29.2378 18.1172 31.831 18.1172 35.4H1.79079ZM12 45.5642H37.501V29.2378H12V45.5642ZM37.4158 45.5638C38.7534 45.5777 40.0806 45.3281 41.3216 44.8291L35.2312 29.6812C35.9795 29.3803 36.7797 29.2298 37.5862 29.2382L37.4158 45.5638ZM41.3216 44.8291C42.5627 44.3301 43.6934 43.5915 44.649 42.6555L33.2249 30.9918C33.8011 30.4274 34.4828 29.9821 35.2312 29.6812L41.3216 44.8291ZM44.649 42.6555C45.6046 41.7196 46.3665 40.6045 46.8911 39.3741L31.873 32.9703C32.1894 32.2284 32.6488 31.5561 33.2249 30.9918L44.649 42.6555ZM46.8911 39.3741C47.4158 38.1436 47.693 36.8219 47.7068 35.4843L31.3812 35.3157C31.3896 34.5092 31.5567 33.7122 31.873 32.9703L46.8911 39.3741ZM47.7068 35.3157C47.693 33.9781 47.4158 32.6564 46.8911 31.4259L31.873 37.8297C31.5567 37.0878 31.3896 36.2908 31.3812 35.4843L47.7068 35.3157ZM46.8911 31.4259C46.3665 30.1955 45.6046 29.0804 44.649 28.1445L33.2249 39.8082C32.6488 39.2439 32.1894 38.5716 31.873 37.8297L46.8911 31.4259ZM44.649 28.1445C43.6934 27.2085 42.5627 26.4699 41.3216 25.9709L35.2312 41.1188C34.4828 40.8179 33.8011 40.3726 33.2249 39.8082L44.649 28.1445ZM41.3216 25.9709C40.0805 25.4719 38.7533 25.2223 37.4158 25.2362L37.5862 41.5618C36.7798 41.5702 35.9795 41.4197 35.2312 41.1188L41.3216 25.9709ZM37.501 14.7358H12V31.0622H37.501V14.7358ZM12.0973 14.7364C10.7586 14.7204 9.42974 14.9685 8.18685 15.4667L14.2605 30.6213C13.5111 30.9216 12.7098 31.0713 11.9027 31.0616L12.0973 14.7364ZM8.18685 15.4667C6.94401 15.9648 5.8116 16.703 4.85438 17.6392L16.2698 29.3114C15.6927 29.8758 15.0099 30.321 14.2605 30.6213L8.18685 15.4667ZM4.85438 17.6392C3.89717 18.5754 3.13391 19.6911 2.6083 20.9225L17.6241 27.3317C17.3072 28.0742 16.847 28.7469 16.2698 29.3114L4.85438 17.6392ZM2.6083 20.9225C2.08267 22.154 1.80503 23.477 1.79122 24.8158L18.1168 24.9842C18.1084 25.7914 17.941 26.5891 17.6241 27.3317L2.6083 20.9225ZM1.79079 24.9C1.79079 30.677 6.52698 35.0642 12 35.0642V18.7378C15.211 18.7378 18.1172 21.331 18.1172 24.9H1.79079ZM12 35.0642H37.501V18.7378H12V35.0642ZM37.4158 35.0638C38.7534 35.0777 40.0806 34.8281 41.3216 34.3291L35.2312 19.1812C35.9795 18.8803 36.7797 18.7298 37.5862 18.7382L37.4158 35.0638ZM41.3216 34.3291C42.5627 33.8301 43.6934 33.0915 44.649 32.1555L33.2249 20.4918C33.8011 19.9274 34.4828 19.4821 35.2312 19.1812L41.3216 34.3291ZM44.649 32.1555C45.6046 31.2196 46.3665 30.1046 46.8911 28.8741L31.873 22.4703C32.1894 21.7284 32.6488 21.0561 33.2249 20.4918L44.649 32.1555ZM46.8911 28.8741C47.4158 27.6436 47.693 26.3219 47.7068 24.9843L31.3812 24.8157C31.3896 24.0092 31.5567 23.2122 31.873 22.4703L46.8911 28.8741ZM47.7068 24.8157C47.693 23.4781 47.4158 22.1564 46.8911 20.9259L31.873 27.3297C31.5567 26.5878 31.3896 25.7908 31.3812 24.9843L47.7068 24.8157ZM46.8911 20.9259C46.3665 19.6955 45.6046 18.5804 44.649 17.6445L33.2249 29.3082C32.6488 28.7439 32.1894 28.0716 31.873 27.3297L46.8911 20.9259ZM44.649 17.6445C43.6934 16.7085 42.5627 15.9699 41.3216 15.4709L35.2312 30.6188C34.4828 30.3179 33.8011 29.8726 33.2249 29.3082L44.649 17.6445ZM41.3216 15.4709C40.0805 14.9719 38.7533 14.7223 37.4158 14.7362L37.5862 31.0618C36.7798 31.0702 35.9795 30.9197 35.2312 30.6188L41.3216 15.4709ZM37.501 4.23579H12V20.5622H37.501V4.23579ZM12.0973 4.23637C10.7585 4.22041 9.42967 4.46857 8.18685 4.96667L14.2605 20.1213C13.5111 20.4216 12.7099 20.5713 11.9027 20.5616L12.0973 4.23637ZM8.18685 4.96667C6.94404 5.46476 5.81162 6.20301 4.85438 7.13919L16.2698 18.8114C15.6927 19.3758 15.0099 19.821 14.2605 20.1213L8.18685 4.96667ZM4.85438 7.13919C3.89716 8.07537 3.13391 9.19109 2.6083 10.4225L17.6241 16.8317C17.3072 17.5742 16.847 18.2469 16.2698 18.8114L4.85438 7.13919ZM2.6083 10.4225C2.08268 11.654 1.80504 12.977 1.79122 14.3158L18.1168 14.4842C18.1084 15.2914 17.941 16.0891 17.6241 16.8317L2.6083 10.4225ZM1.79079 14.4C1.79079 20.177 6.52697 24.5642 12 24.5642V8.23779C15.211 8.23779 18.1172 10.831 18.1172 14.4H1.79079ZM12 24.5642H37.501V8.23779H12V24.5642ZM37.4158 24.5638C38.7534 24.5777 40.0806 24.3281 41.3216 23.8291L35.2312 8.68121C35.9795 8.38035 36.7797 8.22982 37.5862 8.23824L37.4158 24.5638ZM41.3216 23.8291C42.5627 23.3301 43.6933 22.5915 44.649 21.6555L33.2249 9.99176C33.8011 9.42742 34.4828 8.98209 35.2312 8.68121L41.3216 23.8291ZM44.649 21.6555C45.6046 20.7196 46.3665 19.6045 46.8911 18.3741L31.873 11.9703C32.1894 11.2284 32.6488 10.5561 33.2249 9.99176L44.649 21.6555ZM46.8911 18.3741C47.4158 17.1436 47.693 15.8219 47.7068 14.4843L31.3812 14.3157C31.3896 13.5092 31.5567 12.7122 31.873 11.9703L46.8911 18.3741ZM47.7068 14.3157C47.693 12.9781 47.4158 11.6564 46.8911 10.4259L31.873 16.8297C31.5567 16.0878 31.3896 15.2908 31.3812 14.4843L47.7068 14.3157ZM46.8911 10.4259C46.3665 9.19545 45.6046 8.08041 44.649 7.14445L33.2249 18.8082C32.6488 18.2439 32.1894 17.5716 31.873 16.8297L46.8911 10.4259ZM44.649 7.14445C43.6933 6.20849 42.5627 5.46991 41.3216 4.97091L35.2312 20.1188C34.4828 19.8179 33.8011 19.3726 33.2249 18.8082L44.649 7.14445ZM41.3216 4.97091C40.0806 4.47192 38.7533 4.22227 37.4158 4.23624L37.5862 20.5618C36.7797 20.5702 35.9795 20.4197 35.2312 20.1188L41.3216 4.97091Z" fill="#FFB800" mask="url(#path-1-inside-1_318_8058)"/>
</svg>
