<svg width="270" height="380" viewBox="0 0 270 380" fill="none" xmlns="http://www.w3.org/2000/svg">
<path d="M0 0H270V375C270 377.761 267.761 380 265 380H5C2.23857 380 0 377.761 0 375V0Z" fill="white"/>
<path d="M29.9432 29.0795C29.8485 28.7727 29.7178 28.4981 29.5511 28.2557C29.3883 28.0095 29.1913 27.7992 28.9602 27.625C28.733 27.4508 28.4716 27.3201 28.1761 27.233C27.8807 27.142 27.5587 27.0966 27.2102 27.0966C26.5852 27.0966 26.0284 27.2538 25.5398 27.5682C25.0511 27.8826 24.6667 28.3447 24.3864 28.9545C24.1098 29.5606 23.9716 30.2992 23.9716 31.1705C23.9716 32.0492 24.1098 32.7936 24.3864 33.4034C24.6629 34.0133 25.0473 34.4773 25.5398 34.7955C26.0322 35.1098 26.6042 35.267 27.2557 35.267C27.8466 35.267 28.358 35.1534 28.7898 34.9261C29.2254 34.6989 29.5606 34.3769 29.7955 33.9602C30.0303 33.5398 30.1477 33.0473 30.1477 32.483L30.625 32.5568H27.4659V30.9091H32.1875V32.3068C32.1875 33.303 31.9754 34.1648 31.5511 34.892C31.1269 35.6193 30.5436 36.1799 29.8011 36.5739C29.0587 36.964 28.2064 37.1591 27.2443 37.1591C26.1723 37.1591 25.2311 36.9186 24.4205 36.4375C23.6136 35.9527 22.983 35.2652 22.5284 34.375C22.0777 33.4811 21.8523 32.4205 21.8523 31.1932C21.8523 30.2538 21.9848 29.4148 22.25 28.6761C22.5189 27.9375 22.8939 27.3106 23.375 26.7955C23.8561 26.2765 24.4205 25.8826 25.0682 25.6136C25.7159 25.3409 26.4205 25.2045 27.1818 25.2045C27.8258 25.2045 28.4261 25.2992 28.983 25.4886C29.5398 25.6742 30.0341 25.9394 30.4659 26.2841C30.9015 26.6288 31.2595 27.0379 31.5398 27.5114C31.8201 27.9848 32.0038 28.5076 32.0909 29.0795H29.9432ZM34.6818 37V28.2727H36.7386V37H34.6818ZM35.7159 27.0341C35.3902 27.0341 35.1098 26.9261 34.875 26.7102C34.6402 26.4905 34.5227 26.2273 34.5227 25.9205C34.5227 25.6098 34.6402 25.3466 34.875 25.1307C35.1098 24.911 35.3902 24.8011 35.7159 24.8011C36.0455 24.8011 36.3258 24.911 36.5568 25.1307C36.7917 25.3466 36.9091 25.6098 36.9091 25.9205C36.9091 26.2273 36.7917 26.4905 36.5568 26.7102C36.3258 26.9261 36.0455 27.0341 35.7159 27.0341ZM43.2116 28.2727V29.8636H38.1946V28.2727H43.2116ZM39.4332 26.1818H41.4901V34.375C41.4901 34.6515 41.5317 34.8636 41.6151 35.0114C41.7022 35.1553 41.8158 35.2538 41.956 35.3068C42.0961 35.3598 42.2514 35.3864 42.4219 35.3864C42.5507 35.3864 42.6681 35.3769 42.7741 35.358C42.884 35.339 42.9673 35.322 43.0241 35.3068L43.3707 36.9148C43.2609 36.9527 43.1037 36.9943 42.8991 37.0398C42.6984 37.0852 42.4522 37.1117 42.1605 37.1193C41.6454 37.1345 41.1813 37.0568 40.7685 36.8864C40.3556 36.7121 40.0279 36.4432 39.7855 36.0795C39.5469 35.7159 39.4295 35.2614 39.4332 34.7159V26.1818ZM45.2102 37V25.3636H52.6648V27.1307H47.3182V30.2898H52.1534V32.0568H47.3182V37H45.2102ZM56.9276 37.1761C56.3745 37.1761 55.8764 37.0777 55.4332 36.8807C54.9938 36.6799 54.6454 36.3845 54.3878 35.9943C54.134 35.6042 54.0071 35.1231 54.0071 34.5511C54.0071 34.0587 54.098 33.6515 54.2798 33.3295C54.4616 33.0076 54.7098 32.75 55.0241 32.5568C55.3385 32.3636 55.6927 32.2178 56.0866 32.1193C56.4844 32.017 56.8954 31.9432 57.3196 31.8977C57.831 31.8447 58.2457 31.7973 58.5639 31.7557C58.8821 31.7102 59.1132 31.642 59.2571 31.5511C59.4048 31.4564 59.4787 31.3106 59.4787 31.1136V31.0795C59.4787 30.6515 59.3518 30.3201 59.098 30.0852C58.8442 29.8504 58.4787 29.733 58.0014 29.733C57.4976 29.733 57.098 29.8428 56.8026 30.0625C56.5109 30.2822 56.3139 30.5417 56.2116 30.8409L54.2912 30.5682C54.4427 30.0379 54.6927 29.5947 55.0412 29.2386C55.3897 28.8788 55.8158 28.6098 56.3196 28.4318C56.8234 28.25 57.3802 28.1591 57.9901 28.1591C58.4105 28.1591 58.8291 28.2083 59.2457 28.3068C59.6624 28.4053 60.0431 28.5682 60.3878 28.7955C60.7325 29.0189 61.009 29.3239 61.2173 29.7102C61.4295 30.0966 61.5355 30.5795 61.5355 31.1591V37H59.5582V35.8011H59.4901C59.3651 36.0436 59.1889 36.2708 58.9616 36.483C58.7382 36.6913 58.456 36.8598 58.1151 36.9886C57.7779 37.1136 57.3821 37.1761 56.9276 37.1761ZM57.4616 35.6648C57.8745 35.6648 58.2325 35.5833 58.5355 35.4205C58.8385 35.2538 59.0715 35.0341 59.2344 34.7614C59.401 34.4886 59.4844 34.1913 59.4844 33.8693V32.8409C59.42 32.8939 59.3101 32.9432 59.1548 32.9886C59.0033 33.0341 58.8329 33.0739 58.6435 33.108C58.4541 33.142 58.2666 33.1723 58.081 33.1989C57.8954 33.2254 57.7344 33.2481 57.598 33.267C57.2912 33.3087 57.0166 33.3769 56.7741 33.4716C56.5317 33.5663 56.3404 33.6989 56.2003 33.8693C56.0601 34.036 55.9901 34.2519 55.9901 34.517C55.9901 34.8958 56.1283 35.1818 56.4048 35.375C56.6813 35.5682 57.0336 35.6648 57.4616 35.6648ZM67.4105 37.1705C66.5393 37.1705 65.7912 36.9792 65.1662 36.5966C64.545 36.214 64.0658 35.6856 63.7287 35.0114C63.3954 34.3333 63.2287 33.553 63.2287 32.6705C63.2287 31.7841 63.3991 31.0019 63.7401 30.3239C64.081 29.642 64.562 29.1117 65.1832 28.733C65.8082 28.3504 66.5469 28.1591 67.3991 28.1591C68.1075 28.1591 68.7344 28.2898 69.2798 28.5511C69.8291 28.8087 70.2666 29.1742 70.5923 29.6477C70.9181 30.1174 71.1037 30.6667 71.1491 31.2955H69.1832C69.1037 30.875 68.9143 30.5246 68.6151 30.2443C68.3196 29.9602 67.9238 29.8182 67.4276 29.8182C67.0071 29.8182 66.6378 29.9318 66.3196 30.1591C66.0014 30.3826 65.7533 30.7045 65.5753 31.125C65.401 31.5455 65.3139 32.0492 65.3139 32.6364C65.3139 33.2311 65.401 33.7424 65.5753 34.1705C65.7495 34.5947 65.9938 34.9223 66.3082 35.1534C66.6264 35.3807 66.9995 35.4943 67.4276 35.4943C67.7306 35.4943 68.0014 35.4375 68.2401 35.3239C68.4825 35.2064 68.6851 35.0379 68.848 34.8182C69.0109 34.5985 69.1226 34.3314 69.1832 34.017H71.1491C71.0999 34.6345 70.9181 35.1818 70.6037 35.6591C70.2893 36.1326 69.8613 36.5038 69.3196 36.7727C68.7779 37.0379 68.1416 37.1705 67.4105 37.1705ZM77.196 28.2727V29.8636H72.179V28.2727H77.196ZM73.4176 26.1818H75.4744V34.375C75.4744 34.6515 75.5161 34.8636 75.5994 35.0114C75.6866 35.1553 75.8002 35.2538 75.9403 35.3068C76.0805 35.3598 76.2358 35.3864 76.4062 35.3864C76.535 35.3864 76.6525 35.3769 76.7585 35.358C76.8684 35.339 76.9517 35.322 77.0085 35.3068L77.3551 36.9148C77.2453 36.9527 77.0881 36.9943 76.8835 37.0398C76.6828 37.0852 76.4366 37.1117 76.1449 37.1193C75.6297 37.1345 75.1657 37.0568 74.7528 36.8864C74.34 36.7121 74.0123 36.4432 73.7699 36.0795C73.5313 35.7159 73.4138 35.2614 73.4176 34.7159V26.1818ZM82.6293 37.1705C81.777 37.1705 81.0384 36.983 80.4134 36.608C79.7884 36.233 79.3035 35.7083 78.9588 35.0341C78.6179 34.3598 78.4474 33.572 78.4474 32.6705C78.4474 31.7689 78.6179 30.9792 78.9588 30.3011C79.3035 29.6231 79.7884 29.0966 80.4134 28.7216C81.0384 28.3466 81.777 28.1591 82.6293 28.1591C83.4815 28.1591 84.2202 28.3466 84.8452 28.7216C85.4702 29.0966 85.9531 29.6231 86.294 30.3011C86.6387 30.9792 86.8111 31.7689 86.8111 32.6705C86.8111 33.572 86.6387 34.3598 86.294 35.0341C85.9531 35.7083 85.4702 36.233 84.8452 36.608C84.2202 36.983 83.4815 37.1705 82.6293 37.1705ZM82.6406 35.5227C83.1027 35.5227 83.4891 35.3958 83.7997 35.142C84.1103 34.8845 84.3414 34.5398 84.4929 34.108C84.6482 33.6761 84.7259 33.1951 84.7259 32.6648C84.7259 32.1307 84.6482 31.6477 84.4929 31.2159C84.3414 30.7803 84.1103 30.4337 83.7997 30.1761C83.4891 29.9186 83.1027 29.7898 82.6406 29.7898C82.1671 29.7898 81.7732 29.9186 81.4588 30.1761C81.1482 30.4337 80.9152 30.7803 80.7599 31.2159C80.6084 31.6477 80.5327 32.1307 80.5327 32.6648C80.5327 33.1951 80.6084 33.6761 80.7599 34.108C80.9152 34.5398 81.1482 34.8845 81.4588 35.142C81.7732 35.3958 82.1671 35.5227 82.6406 35.5227ZM88.5568 37V28.2727H90.5511V29.7273H90.642C90.8011 29.2235 91.0739 28.8352 91.4602 28.5625C91.8504 28.286 92.2955 28.1477 92.7955 28.1477C92.9091 28.1477 93.036 28.1534 93.1761 28.1648C93.3201 28.1723 93.4394 28.1856 93.5341 28.2045V30.0966C93.447 30.0663 93.3087 30.0398 93.1193 30.017C92.9337 29.9905 92.7538 29.9773 92.5795 29.9773C92.2045 29.9773 91.8674 30.0587 91.5682 30.2216C91.2727 30.3807 91.0398 30.6023 90.8693 30.8864C90.6989 31.1705 90.6136 31.4981 90.6136 31.8693V37H88.5568ZM96.4446 40.2727C96.1643 40.2727 95.9048 40.25 95.6662 40.2045C95.4313 40.1629 95.2438 40.1136 95.1037 40.0568L95.581 38.4545C95.8802 38.5417 96.1473 38.5833 96.3821 38.5795C96.617 38.5758 96.8234 38.5019 97.0014 38.358C97.1832 38.2178 97.3366 37.983 97.4616 37.6534L97.6378 37.1818L94.473 28.2727H96.6548L98.6662 34.8636H98.7571L100.774 28.2727H102.962L99.4673 38.0568C99.3045 38.5189 99.0885 38.9148 98.8196 39.2443C98.5507 39.5777 98.2211 39.8314 97.831 40.0057C97.4446 40.1837 96.9825 40.2727 96.4446 40.2727Z" fill="#252525"/>
<path d="M23.1186 68V57.8182H29.5021V59.1406H24.6548V62.2429H29.169V63.5604H24.6548V66.6776H29.5618V68H23.1186ZM32.9213 63.4659V68H31.4348V60.3636H32.8617V61.6065H32.9561C33.1318 61.2022 33.4069 60.8774 33.7814 60.6321C34.1593 60.3868 34.6349 60.2642 35.2083 60.2642C35.7286 60.2642 36.1844 60.3736 36.5755 60.5923C36.9666 60.8078 37.2698 61.1293 37.4853 61.5568C37.7007 61.9844 37.8084 62.513 37.8084 63.1428V68H36.3219V63.3217C36.3219 62.7682 36.1777 62.3357 35.8894 62.0241C35.601 61.7093 35.205 61.5518 34.7012 61.5518C34.3565 61.5518 34.0499 61.6264 33.7814 61.7756C33.5163 61.9247 33.3058 62.1435 33.15 62.4318C32.9976 62.7169 32.9213 63.0616 32.9213 63.4659ZM42.6607 68.1491C42.0442 68.1491 41.494 67.9917 41.0101 67.6768C40.5295 67.3587 40.1517 66.9062 39.8766 66.3196C39.6048 65.7296 39.4689 65.022 39.4689 64.1967C39.4689 63.3714 39.6065 62.6655 39.8816 62.0788C40.16 61.4922 40.5411 61.0431 41.025 60.7315C41.5089 60.42 42.0575 60.2642 42.6706 60.2642C43.1446 60.2642 43.5257 60.3438 43.8141 60.5028C44.1058 60.6586 44.3311 60.8409 44.4902 61.0497C44.6526 61.2585 44.7786 61.4425 44.8681 61.6016H44.9576V57.8182H46.4441V68H44.9924V66.8118H44.8681C44.7786 66.9742 44.6493 67.1598 44.4803 67.3686C44.3146 67.5774 44.0859 67.7597 43.7942 67.9155C43.5025 68.0713 43.1247 68.1491 42.6607 68.1491ZM42.9888 66.8814C43.4164 66.8814 43.7776 66.7687 44.0726 66.5433C44.3709 66.3146 44.5963 65.9981 44.7488 65.5938C44.9045 65.1894 44.9824 64.7187 44.9824 64.1818C44.9824 63.6515 44.9062 63.1875 44.7537 62.7898C44.6013 62.392 44.3775 62.0821 44.0826 61.8601C43.7876 61.638 43.423 61.527 42.9888 61.527C42.5414 61.527 42.1685 61.643 41.8702 61.875C41.5719 62.107 41.3465 62.4235 41.1941 62.8246C41.0449 63.2256 40.9703 63.678 40.9703 64.1818C40.9703 64.6922 41.0466 65.1513 41.199 65.5589C41.3515 65.9666 41.5769 66.2898 41.8752 66.5284C42.1768 66.7637 42.548 66.8814 42.9888 66.8814ZM51.8569 68.1541C51.1045 68.1541 50.4566 67.9934 49.913 67.6719C49.3728 67.3471 48.9551 66.8913 48.6602 66.3047C48.3685 65.7147 48.2227 65.0237 48.2227 64.2315C48.2227 63.4493 48.3685 62.7599 48.6602 62.1634C48.9551 61.5668 49.3661 61.1011 49.8931 60.7663C50.4234 60.4316 51.0432 60.2642 51.7525 60.2642C52.1834 60.2642 52.601 60.3355 53.0053 60.478C53.4097 60.6205 53.7726 60.8442 54.0941 61.1491C54.4156 61.4541 54.6692 61.8501 54.8548 62.3374C55.0404 62.8213 55.1332 63.4096 55.1332 64.1023V64.6293H49.0629V63.5156H53.6765C53.6765 63.1245 53.5969 62.7782 53.4379 62.4766C53.2788 62.1716 53.055 61.9313 52.7667 61.7557C52.4817 61.58 52.1469 61.4922 51.7624 61.4922C51.3448 61.4922 50.9802 61.5949 50.6687 61.8004C50.3604 62.0026 50.1218 62.2678 49.9528 62.5959C49.7871 62.9207 49.7042 63.2737 49.7042 63.6548V64.5249C49.7042 65.0353 49.7937 65.4695 49.9727 65.8274C50.1549 66.1854 50.4085 66.4588 50.7333 66.6477C51.0581 66.8333 51.4376 66.9261 51.8718 66.9261C52.1535 66.9261 52.4104 66.8864 52.6424 66.8068C52.8744 66.724 53.0749 66.6013 53.244 66.4389C53.413 66.2765 53.5423 66.076 53.6317 65.8374L55.0387 66.0909C54.926 66.5052 54.7238 66.8681 54.4322 67.1797C54.1438 67.4879 53.7809 67.7282 53.3434 67.9006C52.9092 68.0696 52.4137 68.1541 51.8569 68.1541ZM56.7825 68V60.3636H58.2193V61.5767H58.2988C58.438 61.1657 58.6833 60.8426 59.0346 60.6072C59.3893 60.3686 59.7903 60.2493 60.2377 60.2493C60.3306 60.2493 60.4399 60.2526 60.5659 60.2592C60.6951 60.2659 60.7962 60.2741 60.8691 60.2841V61.706C60.8095 61.6894 60.7034 61.6712 60.551 61.6513C60.3985 61.6281 60.246 61.6165 60.0936 61.6165C59.7422 61.6165 59.429 61.6911 59.1539 61.8402C58.8822 61.986 58.6667 62.1899 58.5076 62.4517C58.3485 62.7102 58.269 63.0052 58.269 63.3366V68H56.7825ZM65.1733 68.1541C64.4209 68.1541 63.773 67.9934 63.2294 67.6719C62.6892 67.3471 62.2715 66.8913 61.9766 66.3047C61.6849 65.7147 61.5391 65.0237 61.5391 64.2315C61.5391 63.4493 61.6849 62.7599 61.9766 62.1634C62.2715 61.5668 62.6825 61.1011 63.2095 60.7663C63.7398 60.4316 64.3596 60.2642 65.0689 60.2642C65.4998 60.2642 65.9174 60.3355 66.3217 60.478C66.7261 60.6205 67.089 60.8442 67.4105 61.1491C67.732 61.4541 67.9856 61.8501 68.1712 62.3374C68.3568 62.8213 68.4496 63.4096 68.4496 64.1023V64.6293H62.3793V63.5156H66.9929C66.9929 63.1245 66.9134 62.7782 66.7543 62.4766C66.5952 62.1716 66.3714 61.9313 66.0831 61.7557C65.7981 61.58 65.4633 61.4922 65.0788 61.4922C64.6612 61.4922 64.2966 61.5949 63.9851 61.8004C63.6768 62.0026 63.4382 62.2678 63.2692 62.5959C63.1035 62.9207 63.0206 63.2737 63.0206 63.6548V64.5249C63.0206 65.0353 63.1101 65.4695 63.2891 65.8274C63.4714 66.1854 63.7249 66.4588 64.0497 66.6477C64.3745 66.8333 64.754 66.9261 65.1882 66.9261C65.4699 66.9261 65.7268 66.8864 65.9588 66.8068C66.1908 66.724 66.3913 66.6013 66.5604 66.4389C66.7294 66.2765 66.8587 66.076 66.9482 65.8374L68.3551 66.0909C68.2424 66.5052 68.0402 66.8681 67.7486 67.1797C67.4602 67.4879 67.0973 67.7282 66.6598 67.9006C66.2256 68.0696 65.7301 68.1541 65.1733 68.1541ZM73.3155 68.1541C72.5764 68.1541 71.94 67.9867 71.4064 67.652C70.8761 67.3139 70.4685 66.8482 70.1834 66.255C69.8984 65.6617 69.7559 64.9822 69.7559 64.2166C69.7559 63.4411 69.9017 62.7566 70.1934 62.1634C70.485 61.5668 70.896 61.1011 71.4263 60.7663C71.9566 60.4316 72.5814 60.2642 73.3006 60.2642C73.8806 60.2642 74.3977 60.3719 74.8517 60.5874C75.3058 60.7995 75.6721 61.0978 75.9505 61.4822C76.2322 61.8667 76.3996 62.3158 76.4526 62.8295H75.0059C74.9263 62.4716 74.744 62.1634 74.459 61.9048C74.1773 61.6463 73.7994 61.517 73.3255 61.517C72.9112 61.517 72.5482 61.6264 72.2367 61.8452C71.9284 62.0606 71.6882 62.3688 71.5158 62.7699C71.3435 63.1676 71.2573 63.6383 71.2573 64.1818C71.2573 64.7386 71.3418 65.2192 71.5108 65.6236C71.6799 66.0279 71.9185 66.3411 72.2267 66.5632C72.5383 66.7853 72.9045 66.8963 73.3255 66.8963C73.6072 66.8963 73.8624 66.8449 74.0911 66.7422C74.3231 66.6361 74.517 66.4853 74.6728 66.2898C74.8319 66.0942 74.9429 65.8589 75.0059 65.5838H76.4526C76.3996 66.0777 76.2388 66.5185 75.9703 66.9062C75.7019 67.294 75.3423 67.599 74.8915 67.821C74.4441 68.0431 73.9187 68.1541 73.3155 68.1541ZM72.7786 67.9602H73.753L73.6735 68.3679C73.9618 68.4143 74.2137 68.5303 74.4292 68.7159C74.6446 68.9015 74.7523 69.1816 74.7523 69.5561C74.7556 70.0036 74.5617 70.3665 74.1706 70.6449C73.7828 70.9233 73.2211 71.0625 72.4853 71.0625L72.4554 70.2322C72.8001 70.2322 73.0785 70.1825 73.2907 70.0831C73.5061 69.9837 73.6155 69.8229 73.6188 69.6009C73.6221 69.3788 73.5392 69.223 73.3702 69.1335C73.2045 69.044 72.9393 68.9811 72.5748 68.9446L72.7786 67.9602ZM81.2589 68.1541C80.543 68.1541 79.9182 67.9901 79.3846 67.6619C78.851 67.3338 78.4367 66.8748 78.1417 66.2848C77.8467 65.6948 77.6992 65.0054 77.6992 64.2166C77.6992 63.4245 77.8467 62.7318 78.1417 62.1385C78.4367 61.5452 78.851 61.0845 79.3846 60.7564C79.9182 60.4283 80.543 60.2642 81.2589 60.2642C81.9748 60.2642 82.5996 60.4283 83.1332 60.7564C83.6668 61.0845 84.0811 61.5452 84.3761 62.1385C84.671 62.7318 84.8185 63.4245 84.8185 64.2166C84.8185 65.0054 84.671 65.6948 84.3761 66.2848C84.0811 66.8748 83.6668 67.3338 83.1332 67.6619C82.5996 67.9901 81.9748 68.1541 81.2589 68.1541ZM81.2638 66.9062C81.7279 66.9062 82.1123 66.7836 82.4173 66.5384C82.7222 66.2931 82.9476 65.9666 83.0934 65.5589C83.2425 65.1513 83.3171 64.7022 83.3171 64.2116C83.3171 63.7244 83.2425 63.277 83.0934 62.8693C82.9476 62.4583 82.7222 62.1286 82.4173 61.88C82.1123 61.6314 81.7279 61.5071 81.2638 61.5071C80.7965 61.5071 80.4087 61.6314 80.1005 61.88C79.7956 62.1286 79.5685 62.4583 79.4194 62.8693C79.2736 63.277 79.2006 63.7244 79.2006 64.2116C79.2006 64.7022 79.2736 65.1513 79.4194 65.5589C79.5685 65.9666 79.7956 66.2931 80.1005 66.5384C80.4087 66.7836 80.7965 66.9062 81.2638 66.9062ZM87.4572 68.0945C87.1854 68.0945 86.9518 67.9983 86.7562 67.8061C86.5607 67.6106 86.4629 67.3752 86.4629 67.1001C86.4629 66.8284 86.5607 66.5964 86.7562 66.4041C86.9518 66.2086 87.1854 66.1108 87.4572 66.1108C87.729 66.1108 87.9627 66.2086 88.1582 66.4041C88.3538 66.5964 88.4515 66.8284 88.4515 67.1001C88.4515 67.2824 88.4051 67.4498 88.3123 67.6023C88.2228 67.7514 88.1035 67.8707 87.9544 67.9602C87.8052 68.0497 87.6395 68.0945 87.4572 68.0945ZM87.4572 62.5362C87.1854 62.5362 86.9518 62.4384 86.7562 62.2429C86.5607 62.0473 86.4629 61.8137 86.4629 61.5419C86.4629 61.2701 86.5607 61.0381 86.7562 60.8459C86.9518 60.6503 87.1854 60.5526 87.4572 60.5526C87.729 60.5526 87.9627 60.6503 88.1582 60.8459C88.3538 61.0381 88.4515 61.2701 88.4515 61.5419C88.4515 61.7242 88.4051 61.8916 88.3123 62.044C88.2228 62.1932 88.1035 62.3125 87.9544 62.402C87.8052 62.4915 87.6395 62.5362 87.4572 62.5362Z" fill="#373737"/>
<path d="M22.1186 146V135.818H28.5021V137.141H23.6548V140.243H28.169V141.56H23.6548V144.678H28.5618V146H22.1186ZM34.9341 141.053V142.341H30.4199V141.053H34.9341ZM36.9153 146V138.364H38.3422V139.607H38.4366C38.5957 139.186 38.8559 138.857 39.2172 138.622C39.5784 138.384 40.0109 138.264 40.5147 138.264C41.0252 138.264 41.4527 138.384 41.7974 138.622C42.1454 138.861 42.4023 139.189 42.568 139.607H42.6475C42.8298 139.199 43.1199 138.874 43.5176 138.632C43.9153 138.387 44.3893 138.264 44.9395 138.264C45.6322 138.264 46.1973 138.481 46.6348 138.915C47.0756 139.35 47.296 140.004 47.296 140.879V146H45.8095V141.018C45.8095 140.501 45.6686 140.127 45.3869 139.895C45.1052 139.663 44.7688 139.547 44.3777 139.547C43.8938 139.547 43.5176 139.696 43.2491 139.994C42.9806 140.289 42.8464 140.669 42.8464 141.133V146H41.3649V140.924C41.3649 140.51 41.2356 140.177 40.9771 139.925C40.7186 139.673 40.3822 139.547 39.9679 139.547C39.6861 139.547 39.426 139.621 39.1873 139.771C38.952 139.916 38.7614 140.12 38.6156 140.382C38.4731 140.644 38.4018 140.947 38.4018 141.292V146H36.9153ZM51.5107 146.169C51.0268 146.169 50.5893 146.08 50.1982 145.901C49.8071 145.718 49.4972 145.455 49.2685 145.11C49.0431 144.765 48.9304 144.343 48.9304 143.842C48.9304 143.411 49.0133 143.057 49.179 142.778C49.3447 142.5 49.5684 142.28 49.8501 142.117C50.1319 141.955 50.4467 141.832 50.7947 141.749C51.1428 141.666 51.4974 141.603 51.8587 141.56C52.3161 141.507 52.6873 141.464 52.9723 141.431C53.2573 141.395 53.4645 141.337 53.5938 141.257C53.723 141.178 53.7876 141.048 53.7876 140.869V140.835C53.7876 140.4 53.665 140.064 53.4197 139.825C53.1778 139.587 52.8165 139.467 52.3359 139.467C51.8355 139.467 51.4411 139.578 51.1527 139.8C50.8677 140.019 50.6705 140.263 50.5611 140.531L49.1641 140.213C49.3298 139.749 49.5717 139.375 49.8899 139.089C50.2114 138.801 50.581 138.592 50.9986 138.463C51.4162 138.33 51.8554 138.264 52.3161 138.264C52.621 138.264 52.9441 138.301 53.2855 138.374C53.6302 138.443 53.9517 138.572 54.25 138.761C54.5516 138.95 54.7985 139.22 54.9908 139.572C55.183 139.92 55.2791 140.372 55.2791 140.929V146H53.8274V144.956H53.7678C53.6716 145.148 53.5275 145.337 53.3352 145.523C53.143 145.708 52.8961 145.862 52.5945 145.985C52.2929 146.108 51.9316 146.169 51.5107 146.169ZM51.8338 144.976C52.2448 144.976 52.5961 144.895 52.8878 144.732C53.1828 144.57 53.4065 144.358 53.5589 144.096C53.7147 143.831 53.7926 143.547 53.7926 143.246V142.261C53.7396 142.314 53.6368 142.364 53.4844 142.411C53.3352 142.454 53.1645 142.492 52.9723 142.525C52.7801 142.555 52.5928 142.583 52.4105 142.609C52.2282 142.633 52.0758 142.652 51.9531 142.669C51.6648 142.705 51.4013 142.767 51.1626 142.853C50.9273 142.939 50.7384 143.063 50.5959 143.226C50.4567 143.385 50.3871 143.597 50.3871 143.862C50.3871 144.23 50.523 144.509 50.7947 144.697C51.0665 144.883 51.4129 144.976 51.8338 144.976ZM57.2591 146V138.364H58.7456V146H57.2591ZM58.0098 137.185C57.7512 137.185 57.5292 137.099 57.3436 136.927C57.1613 136.751 57.0701 136.542 57.0701 136.3C57.0701 136.055 57.1613 135.846 57.3436 135.674C57.5292 135.498 57.7512 135.411 58.0098 135.411C58.2683 135.411 58.4887 135.498 58.671 135.674C58.8566 135.846 58.9494 136.055 58.9494 136.3C58.9494 136.542 58.8566 136.751 58.671 136.927C58.4887 137.099 58.2683 137.185 58.0098 137.185ZM62.2319 135.818V146H60.7454V135.818H62.2319ZM65.2111 146.094C64.9393 146.094 64.7057 145.998 64.5101 145.806C64.3146 145.611 64.2168 145.375 64.2168 145.1C64.2168 144.828 64.3146 144.596 64.5101 144.404C64.7057 144.209 64.9393 144.111 65.2111 144.111C65.4829 144.111 65.7166 144.209 65.9121 144.404C66.1077 144.596 66.2054 144.828 66.2054 145.1C66.2054 145.282 66.159 145.45 66.0662 145.602C65.9767 145.751 65.8574 145.871 65.7083 145.96C65.5591 146.05 65.3934 146.094 65.2111 146.094ZM65.2111 140.536C64.9393 140.536 64.7057 140.438 64.5101 140.243C64.3146 140.047 64.2168 139.814 64.2168 139.542C64.2168 139.27 64.3146 139.038 64.5101 138.846C64.7057 138.65 64.9393 138.553 65.2111 138.553C65.4829 138.553 65.7166 138.65 65.9121 138.846C66.1077 139.038 66.2054 139.27 66.2054 139.542C66.2054 139.724 66.159 139.892 66.0662 140.044C65.9767 140.193 65.8574 140.312 65.7083 140.402C65.5591 140.491 65.3934 140.536 65.2111 140.536Z" fill="#373737"/>
<path d="M22.6761 85V84.1051C22.6761 83.8333 22.7242 83.545 22.8203 83.2401C22.9197 82.9318 23.0623 82.6352 23.2479 82.3501C23.4368 82.0618 23.6638 81.8116 23.929 81.5994L24.5653 82.1165C24.3565 82.4148 24.1742 82.7263 24.0185 83.0511C23.866 83.3726 23.7898 83.7173 23.7898 84.0852V85H22.6761ZM25.2216 85V84.1051C25.2216 83.8333 25.2696 83.545 25.3658 83.2401C25.4652 82.9318 25.6077 82.6352 25.7933 82.3501C25.9822 82.0618 26.2093 81.8116 26.4744 81.5994L27.1108 82.1165C26.902 82.4148 26.7197 82.7263 26.5639 83.0511C26.4115 83.3726 26.3352 83.7173 26.3352 84.0852V85H25.2216ZM29.5792 87.4062V92H28.4059V81.8182H29.5792V85.5568H29.6786C29.8576 85.1624 30.1261 84.8492 30.484 84.6172C30.8453 84.3819 31.3259 84.2642 31.9258 84.2642C32.4461 84.2642 32.9019 84.3686 33.293 84.5774C33.6841 84.7829 33.9873 85.0994 34.2028 85.527C34.4215 85.9512 34.5309 86.4915 34.5309 87.1477V92H33.3576V87.2273C33.3576 86.6207 33.2002 86.1518 32.8853 85.8203C32.5737 85.4856 32.1412 85.3182 31.5877 85.3182C31.2032 85.3182 30.8585 85.3994 30.5536 85.5618C30.252 85.7242 30.0134 85.9612 29.8377 86.2727C29.6654 86.5843 29.5792 86.9621 29.5792 87.4062ZM39.9984 84.3636V85.358H36.041V84.3636H39.9984ZM37.1944 82.5341H38.3677V89.8125C38.3677 90.1439 38.4158 90.3925 38.5119 90.5582C38.6113 90.7206 38.7373 90.83 38.8897 90.8864C39.0455 90.9394 39.2096 90.9659 39.3819 90.9659C39.5112 90.9659 39.6172 90.9593 39.7001 90.946C39.783 90.9295 39.8493 90.9162 39.899 90.9062L40.1376 91.9602C40.0581 91.9901 39.947 92.0199 39.8045 92.0497C39.662 92.0829 39.4814 92.0994 39.2626 92.0994C38.9312 92.0994 38.6064 92.0282 38.2882 91.8857C37.9733 91.7431 37.7115 91.526 37.5027 91.2344C37.2972 90.9427 37.1944 90.5748 37.1944 90.1307V82.5341ZM45.0843 84.3636V85.358H41.127V84.3636H45.0843ZM42.2804 82.5341H43.4537V89.8125C43.4537 90.1439 43.5017 90.3925 43.5978 90.5582C43.6973 90.7206 43.8232 90.83 43.9757 90.8864C44.1315 90.9394 44.2955 90.9659 44.4679 90.9659C44.5971 90.9659 44.7032 90.9593 44.786 90.946C44.8689 90.9295 44.9352 90.9162 44.9849 90.9062L45.2235 91.9602C45.144 91.9901 45.033 92.0199 44.8904 92.0497C44.7479 92.0829 44.5673 92.0994 44.3485 92.0994C44.0171 92.0994 43.6923 92.0282 43.3741 91.8857C43.0592 91.7431 42.7974 91.526 42.5886 91.2344C42.3831 90.9427 42.2804 90.5748 42.2804 90.1307V82.5341ZM46.8493 94.8636V84.3636H47.9828V85.5767H48.122C48.2082 85.4441 48.3275 85.2751 48.4799 85.0696C48.6357 84.8608 48.8578 84.6752 49.1461 84.5128C49.4378 84.3471 49.8322 84.2642 50.3294 84.2642C50.9724 84.2642 51.5391 84.425 52.0297 84.7464C52.5202 85.0679 52.903 85.5237 53.1781 86.1136C53.4532 86.7036 53.5907 87.3996 53.5907 88.2017C53.5907 89.0104 53.4532 89.7114 53.1781 90.3047C52.903 90.8946 52.5218 91.352 52.0346 91.6768C51.5474 91.9983 50.9856 92.1591 50.3493 92.1591C49.8587 92.1591 49.466 92.0779 49.171 91.9155C48.876 91.7498 48.649 91.5625 48.4899 91.3537C48.3308 91.1416 48.2082 90.9659 48.122 90.8267H48.0225V94.8636H46.8493ZM48.0027 88.1818C48.0027 88.7585 48.0872 89.2673 48.2562 89.7081C48.4252 90.1456 48.6722 90.4886 48.997 90.7372C49.3218 90.9825 49.7195 91.1051 50.1902 91.1051C50.6807 91.1051 51.09 90.9759 51.4181 90.7173C51.7496 90.4555 51.9982 90.1042 52.1639 89.6634C52.3329 89.2192 52.4174 88.7254 52.4174 88.1818C52.4174 87.6449 52.3346 87.161 52.1689 86.7301C52.0065 86.2959 51.7595 85.9529 51.4281 85.701C51.1 85.4458 50.6873 85.3182 50.1902 85.3182C49.7129 85.3182 49.3118 85.4392 48.987 85.6811C48.6622 85.9197 48.417 86.2545 48.2512 86.6854C48.0855 87.1129 48.0027 87.6117 48.0027 88.1818ZM60.7896 86.0739L59.7356 86.3722C59.6693 86.1965 59.5716 86.0258 59.4423 85.8601C59.3163 85.6911 59.144 85.5518 58.9252 85.4425C58.7065 85.3331 58.4264 85.2784 58.085 85.2784C57.6177 85.2784 57.2283 85.3861 56.9167 85.6016C56.6085 85.8137 56.4544 86.0838 56.4544 86.4119C56.4544 86.7036 56.5604 86.9339 56.7725 87.103C56.9847 87.272 57.3161 87.4129 57.7669 87.5256L58.9004 87.804C59.5832 87.9697 60.0919 88.2232 60.4267 88.5646C60.7614 88.9027 60.9288 89.3385 60.9288 89.8722C60.9288 90.3097 60.8029 90.7008 60.551 91.0455C60.3024 91.3902 59.9544 91.6619 59.5069 91.8608C59.0595 92.0597 58.5391 92.1591 57.9458 92.1591C57.167 92.1591 56.5223 91.9901 56.0119 91.652C55.5015 91.3139 55.1783 90.8201 55.0424 90.1705L56.1561 89.892C56.2621 90.303 56.4627 90.6113 56.7576 90.8168C57.0559 91.0223 57.4454 91.125 57.926 91.125C58.4728 91.125 58.907 91.009 59.2285 90.777C59.5533 90.5417 59.7157 90.2599 59.7157 89.9318C59.7157 89.6667 59.6229 89.4446 59.4373 89.2656C59.2517 89.0833 58.9667 88.9474 58.5822 88.858L57.3095 88.5597C56.6101 88.3939 56.0964 88.1371 55.7683 87.7891C55.4435 87.4377 55.2811 86.9986 55.2811 86.4716C55.2811 86.0407 55.402 85.6596 55.644 85.3281C55.8893 84.9967 56.2224 84.7365 56.6433 84.5476C57.0675 84.3587 57.5481 84.2642 58.085 84.2642C58.8407 84.2642 59.434 84.4299 59.8649 84.7614C60.2991 85.0928 60.6073 85.5303 60.7896 86.0739ZM63.5501 92.0795C63.3048 92.0795 63.0943 91.9917 62.9187 91.8161C62.743 91.6404 62.6552 91.4299 62.6552 91.1847C62.6552 90.9394 62.743 90.7289 62.9187 90.5533C63.0943 90.3776 63.3048 90.2898 63.5501 90.2898C63.7953 90.2898 64.0058 90.3776 64.1815 90.5533C64.3571 90.7289 64.445 90.9394 64.445 91.1847C64.445 91.3471 64.4035 91.4962 64.3207 91.6321C64.2411 91.768 64.1334 91.8774 63.9975 91.9602C63.8649 92.0398 63.7158 92.0795 63.5501 92.0795ZM63.5501 86.4119C63.3048 86.4119 63.0943 86.3241 62.9187 86.1484C62.743 85.9728 62.6552 85.7623 62.6552 85.517C62.6552 85.2718 62.743 85.0613 62.9187 84.8857C63.0943 84.71 63.3048 84.6222 63.5501 84.6222C63.7953 84.6222 64.0058 84.71 64.1815 84.8857C64.3571 85.0613 64.445 85.2718 64.445 85.517C64.445 85.6795 64.4035 85.8286 64.3207 85.9645C64.2411 86.1004 64.1334 86.2098 63.9975 86.2926C63.8649 86.3722 63.7158 86.4119 63.5501 86.4119ZM70.1499 81.3409L66.8686 93.5312H65.7947L69.076 81.3409H70.1499ZM75.1401 81.3409L71.8588 93.5312H70.785L74.0662 81.3409H75.1401ZM79.6133 95.0227C79.0465 95.0227 78.5593 94.9498 78.1516 94.804C77.744 94.6615 77.4042 94.4725 77.1325 94.2372C76.864 94.0052 76.6502 93.7566 76.4911 93.4915L77.4258 92.8352C77.5318 92.9744 77.6661 93.1335 77.8285 93.3125C77.9909 93.4948 78.2129 93.6522 78.4947 93.7848C78.7797 93.9207 79.1526 93.9886 79.6133 93.9886C80.2298 93.9886 80.7385 93.8395 81.1396 93.5412C81.5406 93.2429 81.7411 92.7756 81.7411 92.1392V90.5881H81.6417C81.5555 90.7273 81.4329 90.8996 81.2738 91.1051C81.118 91.3073 80.8926 91.4879 80.5977 91.647C80.306 91.8028 79.9116 91.8807 79.4144 91.8807C78.7979 91.8807 78.2444 91.7348 77.7539 91.4432C77.2667 91.1515 76.8806 90.7273 76.5955 90.1705C76.3138 89.6136 76.1729 88.9375 76.1729 88.142C76.1729 87.3598 76.3105 86.6787 76.5856 86.0987C76.8607 85.5154 77.2435 85.0646 77.734 84.7464C78.2246 84.425 78.7913 84.2642 79.4343 84.2642C79.9315 84.2642 80.3259 84.3471 80.6175 84.5128C80.9125 84.6752 81.1379 84.8608 81.2937 85.0696C81.4528 85.2751 81.5754 85.4441 81.6616 85.5767H81.7809V84.3636H82.9144V92.2188C82.9144 92.875 82.7653 93.4086 82.467 93.8196C82.172 94.2339 81.7743 94.5372 81.2738 94.7294C80.7766 94.925 80.2231 95.0227 79.6133 95.0227ZM79.5735 90.8267C80.0442 90.8267 80.4419 90.719 80.7667 90.5036C81.0915 90.2881 81.3384 89.9782 81.5075 89.5739C81.6765 89.1695 81.761 88.6856 81.761 88.1222C81.761 87.572 81.6781 87.0864 81.5124 86.6655C81.3467 86.2446 81.1014 85.9148 80.7766 85.6761C80.4518 85.4375 80.0508 85.3182 79.5735 85.3182C79.0763 85.3182 78.6621 85.4441 78.3306 85.696C78.0025 85.9479 77.7556 86.286 77.5898 86.7102C77.4274 87.1345 77.3462 87.6051 77.3462 88.1222C77.3462 88.6525 77.4291 89.1214 77.5948 89.5291C77.7638 89.9335 78.0124 90.2517 78.3406 90.4837C78.672 90.7124 79.083 90.8267 79.5735 90.8267ZM85.0621 92V84.3636H86.2354V92H85.0621ZM85.6587 83.0909C85.43 83.0909 85.2328 83.013 85.0671 82.8572C84.9047 82.7015 84.8235 82.5142 84.8235 82.2955C84.8235 82.0767 84.9047 81.8894 85.0671 81.7337C85.2328 81.5779 85.43 81.5 85.6587 81.5C85.8874 81.5 86.083 81.5779 86.2454 81.7337C86.4111 81.8894 86.494 82.0767 86.494 82.2955C86.494 82.5142 86.4111 82.7015 86.2454 82.8572C86.083 83.013 85.8874 83.0909 85.6587 83.0909ZM91.7054 84.3636V85.358H87.748V84.3636H91.7054ZM88.9015 82.5341H90.0748V89.8125C90.0748 90.1439 90.1228 90.3925 90.2189 90.5582C90.3184 90.7206 90.4443 90.83 90.5968 90.8864C90.7525 90.9394 90.9166 90.9659 91.089 90.9659C91.2182 90.9659 91.3243 90.9593 91.4071 90.946C91.49 90.9295 91.5563 90.9162 91.606 90.9062L91.8446 91.9602C91.7651 91.9901 91.6541 92.0199 91.5115 92.0497C91.369 92.0829 91.1884 92.0994 90.9696 92.0994C90.6382 92.0994 90.3134 92.0282 89.9952 91.8857C89.6803 91.7431 89.4185 91.526 89.2097 91.2344C89.0042 90.9427 88.9015 90.5748 88.9015 90.1307V82.5341ZM94.8077 87.4062V92H93.6344V81.8182H94.8077V85.5568H94.9071C95.0861 85.1624 95.3546 84.8492 95.7125 84.6172C96.0738 84.3819 96.5544 84.2642 97.1543 84.2642C97.6747 84.2642 98.1304 84.3686 98.5215 84.5774C98.9126 84.7829 99.2159 85.0994 99.4313 85.527C99.65 85.9512 99.7594 86.4915 99.7594 87.1477V92H98.5861V87.2273C98.5861 86.6207 98.4287 86.1518 98.1138 85.8203C97.8023 85.4856 97.3697 85.3182 96.8162 85.3182C96.4318 85.3182 96.0871 85.3994 95.7821 85.5618C95.4805 85.7242 95.2419 85.9612 95.0662 86.2727C94.8939 86.5843 94.8077 86.9621 94.8077 87.4062ZM106.718 88.8778V84.3636H107.892V92H106.718V90.7074H106.639C106.46 91.0952 106.181 91.425 105.804 91.6967C105.426 91.9652 104.949 92.0994 104.372 92.0994C103.895 92.0994 103.47 91.995 103.099 91.7862C102.728 91.5741 102.436 91.2559 102.224 90.8317C102.012 90.4041 101.906 89.8655 101.906 89.2159V84.3636H103.079V89.1364C103.079 89.6932 103.235 90.1373 103.547 90.4688C103.861 90.8002 104.262 90.9659 104.75 90.9659C105.041 90.9659 105.338 90.8913 105.64 90.7422C105.944 90.593 106.2 90.3643 106.405 90.0561C106.614 89.7479 106.718 89.3551 106.718 88.8778ZM110.2 92V81.8182H111.373V85.5767H111.472C111.559 85.4441 111.678 85.2751 111.83 85.0696C111.986 84.8608 112.208 84.6752 112.497 84.5128C112.788 84.3471 113.183 84.2642 113.68 84.2642C114.323 84.2642 114.89 84.425 115.38 84.7464C115.871 85.0679 116.253 85.5237 116.529 86.1136C116.804 86.7036 116.941 87.3996 116.941 88.2017C116.941 89.0104 116.804 89.7114 116.529 90.3047C116.253 90.8946 115.872 91.352 115.385 91.6768C114.898 91.9983 114.336 92.1591 113.7 92.1591C113.209 92.1591 112.816 92.0779 112.521 91.9155C112.227 91.7498 111.999 91.5625 111.84 91.3537C111.681 91.1416 111.559 90.9659 111.472 90.8267H111.333V92H110.2ZM111.353 88.1818C111.353 88.7585 111.438 89.2673 111.607 89.7081C111.776 90.1456 112.023 90.4886 112.347 90.7372C112.672 90.9825 113.07 91.1051 113.541 91.1051C114.031 91.1051 114.441 90.9759 114.769 90.7173C115.1 90.4555 115.349 90.1042 115.514 89.6634C115.683 89.2192 115.768 88.7254 115.768 88.1818C115.768 87.6449 115.685 87.161 115.519 86.7301C115.357 86.2959 115.11 85.9529 114.779 85.701C114.45 85.4458 114.038 85.3182 113.541 85.3182C113.063 85.3182 112.662 85.4392 112.338 85.6811C112.013 85.9197 111.767 86.2545 111.602 86.6854C111.436 87.1129 111.353 87.6117 111.353 88.1818ZM119.591 92.0795C119.346 92.0795 119.135 91.9917 118.96 91.8161C118.784 91.6404 118.696 91.4299 118.696 91.1847C118.696 90.9394 118.784 90.7289 118.96 90.5533C119.135 90.3776 119.346 90.2898 119.591 90.2898C119.836 90.2898 120.047 90.3776 120.222 90.5533C120.398 90.7289 120.486 90.9394 120.486 91.1847C120.486 91.3471 120.445 91.4962 120.362 91.6321C120.282 91.768 120.174 91.8774 120.039 91.9602C119.906 92.0398 119.757 92.0795 119.591 92.0795ZM125.694 92.1591C124.978 92.1591 124.361 91.9901 123.844 91.652C123.327 91.3139 122.93 90.8482 122.651 90.255C122.373 89.6617 122.233 88.9839 122.233 88.2216C122.233 87.446 122.376 86.7616 122.661 86.1683C122.949 85.5717 123.35 85.1061 123.864 84.7713C124.381 84.4332 124.984 84.2642 125.674 84.2642C126.211 84.2642 126.695 84.3636 127.126 84.5625C127.556 84.7614 127.909 85.0398 128.184 85.3977C128.46 85.7557 128.63 86.1733 128.697 86.6506H127.523C127.434 86.3026 127.235 85.9943 126.927 85.7259C126.622 85.4541 126.211 85.3182 125.694 85.3182C125.236 85.3182 124.835 85.4375 124.491 85.6761C124.149 85.9115 123.882 86.2446 123.69 86.6754C123.501 87.103 123.407 87.6051 123.407 88.1818C123.407 88.7718 123.5 89.2855 123.685 89.723C123.874 90.1605 124.139 90.5002 124.481 90.7422C124.825 90.9841 125.23 91.1051 125.694 91.1051C125.999 91.1051 126.275 91.0521 126.524 90.946C126.773 90.84 126.983 90.6875 127.155 90.4886C127.328 90.2898 127.45 90.0511 127.523 89.7727H128.697C128.63 90.2235 128.466 90.6295 128.204 90.9908C127.946 91.3487 127.603 91.6338 127.175 91.8459C126.751 92.0547 126.257 92.1591 125.694 92.1591ZM133.514 92.1591C132.825 92.1591 132.22 91.995 131.699 91.6669C131.182 91.3388 130.778 90.8797 130.486 90.2898C130.198 89.6998 130.054 89.0104 130.054 88.2216C130.054 87.4261 130.198 86.7318 130.486 86.1385C130.778 85.5452 131.182 85.0845 131.699 84.7564C132.22 84.4283 132.825 84.2642 133.514 84.2642C134.203 84.2642 134.807 84.4283 135.324 84.7564C135.844 85.0845 136.248 85.5452 136.537 86.1385C136.828 86.7318 136.974 87.4261 136.974 88.2216C136.974 89.0104 136.828 89.6998 136.537 90.2898C136.248 90.8797 135.844 91.3388 135.324 91.6669C134.807 91.995 134.203 92.1591 133.514 92.1591ZM133.514 91.1051C134.038 91.1051 134.469 90.9709 134.807 90.7024C135.145 90.4339 135.395 90.081 135.557 89.6435C135.72 89.206 135.801 88.732 135.801 88.2216C135.801 87.7112 135.72 87.2356 135.557 86.7947C135.395 86.3539 135.145 85.9976 134.807 85.7259C134.469 85.4541 134.038 85.3182 133.514 85.3182C132.99 85.3182 132.559 85.4541 132.221 85.7259C131.883 85.9976 131.633 86.3539 131.471 86.7947C131.308 87.2356 131.227 87.7112 131.227 88.2216C131.227 88.732 131.308 89.206 131.471 89.6435C131.633 90.081 131.883 90.4339 132.221 90.7024C132.559 90.9709 132.99 91.1051 133.514 91.1051ZM138.765 92V84.3636H139.899V85.5568H139.998C140.157 85.1491 140.414 84.8326 140.769 84.6072C141.123 84.3786 141.549 84.2642 142.047 84.2642C142.55 84.2642 142.97 84.3786 143.304 84.6072C143.642 84.8326 143.906 85.1491 144.095 85.5568H144.174C144.37 85.1624 144.663 84.8492 145.054 84.6172C145.445 84.3819 145.914 84.2642 146.461 84.2642C147.144 84.2642 147.703 84.478 148.137 84.9055C148.571 85.3298 148.788 85.991 148.788 86.8892V92H147.615V86.8892C147.615 86.3258 147.461 85.9231 147.152 85.6811C146.844 85.4392 146.481 85.3182 146.064 85.3182C145.527 85.3182 145.111 85.4806 144.816 85.8054C144.521 86.1269 144.373 86.5346 144.373 87.0284V92H143.18V86.7699C143.18 86.3357 143.039 85.986 142.757 85.7209C142.476 85.4524 142.113 85.3182 141.669 85.3182C141.364 85.3182 141.079 85.3994 140.814 85.5618C140.552 85.7242 140.34 85.9496 140.177 86.2379C140.018 86.523 139.939 86.8527 139.939 87.2273V92H138.765ZM154.533 81.3409L151.251 93.5312H150.178L153.459 81.3409H154.533ZM23.0739 101.364H24.2472V109.557C24.2472 110.027 24.166 110.435 24.0036 110.78C23.8445 111.125 23.6025 111.391 23.2777 111.58C22.9562 111.769 22.5502 111.864 22.0597 111.864C22.0199 111.864 21.9801 111.864 21.9403 111.864C21.9006 111.864 21.8608 111.864 21.821 111.864V110.77C21.8608 110.77 21.8973 110.77 21.9304 110.77C21.9635 110.77 22 110.77 22.0398 110.77C22.3977 110.77 22.6596 110.664 22.8253 110.452C22.991 110.243 23.0739 109.945 23.0739 109.557V101.364ZM23.6506 100.091C23.4219 100.091 23.2247 100.013 23.0589 99.8572C22.8965 99.7015 22.8153 99.5142 22.8153 99.2955C22.8153 99.0767 22.8965 98.8894 23.0589 98.7337C23.2247 98.5779 23.4219 98.5 23.6506 98.5C23.8793 98.5 24.0748 98.5779 24.2372 98.7337C24.4029 98.8894 24.4858 99.0767 24.4858 99.2955C24.4858 99.5142 24.4029 99.7015 24.2372 99.8572C24.0748 100.013 23.8793 100.091 23.6506 100.091ZM29.4984 109.159C28.809 109.159 28.2041 108.995 27.6838 108.667C27.1667 108.339 26.7624 107.88 26.4707 107.29C26.1824 106.7 26.0382 106.01 26.0382 105.222C26.0382 104.426 26.1824 103.732 26.4707 103.138C26.7624 102.545 27.1667 102.085 27.6838 101.756C28.2041 101.428 28.809 101.264 29.4984 101.264C30.1878 101.264 30.791 101.428 31.3081 101.756C31.8284 102.085 32.2328 102.545 32.5211 103.138C32.8128 103.732 32.9586 104.426 32.9586 105.222C32.9586 106.01 32.8128 106.7 32.5211 107.29C32.2328 107.88 31.8284 108.339 31.3081 108.667C30.791 108.995 30.1878 109.159 29.4984 109.159ZM29.4984 108.105C30.0221 108.105 30.4529 107.971 30.791 107.702C31.1291 107.434 31.3793 107.081 31.5417 106.643C31.7041 106.206 31.7853 105.732 31.7853 105.222C31.7853 104.711 31.7041 104.236 31.5417 103.795C31.3793 103.354 31.1291 102.998 30.791 102.726C30.4529 102.454 30.0221 102.318 29.4984 102.318C28.9747 102.318 28.5439 102.454 28.2058 102.726C27.8677 102.998 27.6175 103.354 27.4551 103.795C27.2927 104.236 27.2115 104.711 27.2115 105.222C27.2115 105.732 27.2927 106.206 27.4551 106.643C27.6175 107.081 27.8677 107.434 28.2058 107.702C28.5439 107.971 28.9747 108.105 29.4984 108.105ZM36.9968 109.179C36.5129 109.179 36.0737 109.088 35.6793 108.906C35.2849 108.72 34.9717 108.453 34.7397 108.105C34.5077 107.754 34.3917 107.33 34.3917 106.832C34.3917 106.395 34.4779 106.04 34.6502 105.768C34.8226 105.493 35.0529 105.278 35.3413 105.122C35.6296 104.966 35.9478 104.85 36.2958 104.774C36.6471 104.695 37.0001 104.632 37.3548 104.585C37.8188 104.526 38.195 104.481 38.4833 104.451C38.775 104.418 38.9871 104.363 39.1197 104.287C39.2556 104.211 39.3235 104.078 39.3235 103.889V103.849C39.3235 103.359 39.1893 102.978 38.9208 102.706C38.6557 102.434 38.253 102.298 37.7127 102.298C37.1526 102.298 36.7134 102.421 36.3952 102.666C36.0771 102.911 35.8533 103.173 35.7241 103.452L34.6104 103.054C34.8093 102.59 35.0745 102.229 35.4059 101.97C35.7406 101.708 36.1052 101.526 36.4996 101.423C36.8974 101.317 37.2885 101.264 37.6729 101.264C37.9182 101.264 38.1999 101.294 38.5181 101.354C38.8396 101.41 39.1495 101.528 39.4478 101.707C39.7494 101.886 39.9996 102.156 40.1985 102.517C40.3974 102.878 40.4968 103.362 40.4968 103.969V109H39.3235V107.966H39.2638C39.1843 108.132 39.0517 108.309 38.8661 108.498C38.6805 108.687 38.4336 108.848 38.1254 108.98C37.8171 109.113 37.4409 109.179 36.9968 109.179ZM37.1758 108.125C37.6398 108.125 38.0309 108.034 38.3491 107.852C38.6706 107.669 38.9125 107.434 39.0749 107.146C39.2406 106.857 39.3235 106.554 39.3235 106.236V105.162C39.2738 105.222 39.1644 105.276 38.9954 105.326C38.8297 105.372 38.6374 105.414 38.4187 105.45C38.2032 105.483 37.9928 105.513 37.7873 105.54C37.5851 105.563 37.421 105.583 37.2951 105.599C36.9902 105.639 36.7051 105.704 36.44 105.793C36.1781 105.879 35.966 106.01 35.8036 106.186C35.6445 106.358 35.565 106.594 35.565 106.892C35.565 107.3 35.7158 107.608 36.0174 107.817C36.3223 108.022 36.7085 108.125 37.1758 108.125ZM45.7406 109.159C45.0512 109.159 44.4463 108.995 43.926 108.667C43.4089 108.339 43.0046 107.88 42.7129 107.29C42.4245 106.7 42.2804 106.01 42.2804 105.222C42.2804 104.426 42.4245 103.732 42.7129 103.138C43.0046 102.545 43.4089 102.085 43.926 101.756C44.4463 101.428 45.0512 101.264 45.7406 101.264C46.43 101.264 47.0332 101.428 47.5502 101.756C48.0706 102.085 48.475 102.545 48.7633 103.138C49.055 103.732 49.2008 104.426 49.2008 105.222C49.2008 106.01 49.055 106.7 48.7633 107.29C48.475 107.88 48.0706 108.339 47.5502 108.667C47.0332 108.995 46.43 109.159 45.7406 109.159ZM45.7406 108.105C46.2643 108.105 46.6951 107.971 47.0332 107.702C47.3713 107.434 47.6215 107.081 47.7839 106.643C47.9463 106.206 48.0275 105.732 48.0275 105.222C48.0275 104.711 47.9463 104.236 47.7839 103.795C47.6215 103.354 47.3713 102.998 47.0332 102.726C46.6951 102.454 46.2643 102.318 45.7406 102.318C45.2169 102.318 44.786 102.454 44.448 102.726C44.1099 102.998 43.8597 103.354 43.6973 103.795C43.5349 104.236 43.4537 104.711 43.4537 105.222C43.4537 105.732 43.5349 106.206 43.6973 106.643C43.8597 107.081 44.1099 107.434 44.448 107.702C44.786 107.971 45.2169 108.105 45.7406 108.105ZM53.8754 109.159C53.239 109.159 52.6772 108.998 52.19 108.677C51.7028 108.352 51.3216 107.895 51.0465 107.305C50.7714 106.711 50.6339 106.01 50.6339 105.202C50.6339 104.4 50.7714 103.704 51.0465 103.114C51.3216 102.524 51.7044 102.068 52.195 101.746C52.6855 101.425 53.2522 101.264 53.8952 101.264C54.3924 101.264 54.7852 101.347 55.0735 101.513C55.3652 101.675 55.5872 101.861 55.7397 102.07C55.8955 102.275 56.0165 102.444 56.1026 102.577H56.2021V98.8182H57.3754V109H56.2418V107.827H56.1026C56.0165 107.966 55.8938 108.142 55.7347 108.354C55.5756 108.562 55.3486 108.75 55.0536 108.915C54.7586 109.078 54.3659 109.159 53.8754 109.159ZM54.0344 108.105C54.5051 108.105 54.9028 107.982 55.2276 107.737C55.5524 107.489 55.7994 107.146 55.9684 106.708C56.1374 106.267 56.2219 105.759 56.2219 105.182C56.2219 104.612 56.1391 104.113 55.9734 103.685C55.8076 103.254 55.5624 102.92 55.2376 102.681C54.9128 102.439 54.5117 102.318 54.0344 102.318C53.5373 102.318 53.123 102.446 52.7915 102.701C52.4634 102.953 52.2165 103.296 52.0508 103.73C51.8884 104.161 51.8072 104.645 51.8072 105.182C51.8072 105.725 51.89 106.219 52.0558 106.663C52.2248 107.104 52.4734 107.455 52.8015 107.717C53.1329 107.976 53.5439 108.105 54.0344 108.105ZM59.6871 109V101.364H60.8604V109H59.6871ZM60.2837 100.091C60.055 100.091 59.8578 100.013 59.6921 99.8572C59.5297 99.7015 59.4485 99.5142 59.4485 99.2955C59.4485 99.0767 59.5297 98.8894 59.6921 98.7337C59.8578 98.5779 60.055 98.5 60.2837 98.5C60.5124 98.5 60.708 98.5779 60.8704 98.7337C61.0361 98.8894 61.119 99.0767 61.119 99.2955C61.119 99.5142 61.0361 99.7015 60.8704 99.8572C60.708 100.013 60.5124 100.091 60.2837 100.091ZM64.1827 104.406V109H63.0094V101.364H64.1429V102.557H64.2424C64.4213 102.169 64.6931 101.857 65.0577 101.622C65.4223 101.384 65.8929 101.264 66.4696 101.264C66.9867 101.264 67.4391 101.37 67.8269 101.582C68.2147 101.791 68.5163 102.109 68.7317 102.537C68.9471 102.961 69.0549 103.498 69.0549 104.148V109H67.8816V104.227C67.8816 103.627 67.7258 103.16 67.4142 102.825C67.1027 102.487 66.6751 102.318 66.1316 102.318C65.757 102.318 65.4223 102.399 65.1273 102.562C64.8356 102.724 64.6053 102.961 64.4363 103.273C64.2672 103.584 64.1827 103.962 64.1827 104.406ZM71.1989 109V101.364H72.3722V109H71.1989ZM71.7955 100.091C71.5668 100.091 71.3696 100.013 71.2038 99.8572C71.0414 99.7015 70.9602 99.5142 70.9602 99.2955C70.9602 99.0767 71.0414 98.8894 71.2038 98.7337C71.3696 98.5779 71.5668 98.5 71.7955 98.5C72.0241 98.5 72.2197 98.5779 72.3821 98.7337C72.5478 98.8894 72.6307 99.0767 72.6307 99.2955C72.6307 99.5142 72.5478 99.7015 72.3821 99.8572C72.2197 100.013 72.0241 100.091 71.7955 100.091ZM74.3024 109V108.105L78.6376 102.537V102.457H74.4416V101.364H80.149V102.298L75.9331 107.827V107.906H80.2882V109H74.3024ZM84.3425 109.179C83.8586 109.179 83.4194 109.088 83.025 108.906C82.6306 108.72 82.3174 108.453 82.0854 108.105C81.8534 107.754 81.7374 107.33 81.7374 106.832C81.7374 106.395 81.8236 106.04 81.9959 105.768C82.1683 105.493 82.3986 105.278 82.687 105.122C82.9753 104.966 83.2935 104.85 83.6415 104.774C83.9928 104.695 84.3458 104.632 84.7005 104.585C85.1645 104.526 85.5407 104.481 85.829 104.451C86.1207 104.418 86.3328 104.363 86.4654 104.287C86.6013 104.211 86.6692 104.078 86.6692 103.889V103.849C86.6692 103.359 86.535 102.978 86.2665 102.706C86.0014 102.434 85.5987 102.298 85.0584 102.298C84.4983 102.298 84.0591 102.421 83.7409 102.666C83.4228 102.911 83.199 103.173 83.0698 103.452L81.9561 103.054C82.155 102.59 82.4202 102.229 82.7516 101.97C83.0864 101.708 83.4509 101.526 83.8453 101.423C84.2431 101.317 84.6342 101.264 85.0186 101.264C85.2639 101.264 85.5456 101.294 85.8638 101.354C86.1853 101.41 86.4952 101.528 86.7935 101.707C87.0951 101.886 87.3453 102.156 87.5442 102.517C87.7431 102.878 87.8425 103.362 87.8425 103.969V109H86.6692V107.966H86.6096C86.53 108.132 86.3974 108.309 86.2118 108.498C86.0262 108.687 85.7793 108.848 85.4711 108.98C85.1628 109.113 84.7866 109.179 84.3425 109.179ZM84.5215 108.125C84.9855 108.125 85.3766 108.034 85.6948 107.852C86.0163 107.669 86.2582 107.434 86.4206 107.146C86.5864 106.857 86.6692 106.554 86.6692 106.236V105.162C86.6195 105.222 86.5101 105.276 86.3411 105.326C86.1754 105.372 85.9831 105.414 85.7644 105.45C85.5489 105.483 85.3385 105.513 85.133 105.54C84.9308 105.563 84.7667 105.583 84.6408 105.599C84.3359 105.639 84.0508 105.704 83.7857 105.793C83.5239 105.879 83.3117 106.01 83.1493 106.186C82.9902 106.358 82.9107 106.594 82.9107 106.892C82.9107 107.3 83.0615 107.608 83.3631 107.817C83.668 108.022 84.0542 108.125 84.5215 108.125ZM89.984 109V101.364H91.1175V102.517H91.1971C91.3363 102.139 91.5882 101.833 91.9528 101.597C92.3174 101.362 92.7283 101.244 93.1857 101.244C93.2719 101.244 93.3796 101.246 93.5089 101.249C93.6381 101.253 93.7359 101.258 93.8022 101.264V102.457C93.7624 102.447 93.6713 102.433 93.5288 102.413C93.3896 102.389 93.2421 102.378 93.0863 102.378C92.7151 102.378 92.3836 102.456 92.092 102.612C91.8036 102.764 91.5749 102.976 91.4059 103.248C91.2402 103.516 91.1573 103.823 91.1573 104.168V109H89.984ZM97.4402 109.179C96.9563 109.179 96.5171 109.088 96.1227 108.906C95.7283 108.72 95.4151 108.453 95.1831 108.105C94.9511 107.754 94.835 107.33 94.835 106.832C94.835 106.395 94.9212 106.04 95.0936 105.768C95.2659 105.493 95.4963 105.278 95.7846 105.122C96.073 104.966 96.3912 104.85 96.7392 104.774C97.0905 104.695 97.4435 104.632 97.7981 104.585C98.2621 104.526 98.6383 104.481 98.9267 104.451C99.2183 104.418 99.4305 104.363 99.563 104.287C99.6989 104.211 99.7669 104.078 99.7669 103.889V103.849C99.7669 103.359 99.6326 102.978 99.3642 102.706C99.099 102.434 98.6963 102.298 98.1561 102.298C97.5959 102.298 97.1568 102.421 96.8386 102.666C96.5204 102.911 96.2967 103.173 96.1674 103.452L95.0538 103.054C95.2527 102.59 95.5178 102.229 95.8493 101.97C96.184 101.708 96.5486 101.526 96.943 101.423C97.3407 101.317 97.7318 101.264 98.1163 101.264C98.3616 101.264 98.6433 101.294 98.9615 101.354C99.283 101.41 99.5929 101.528 99.8912 101.707C100.193 101.886 100.443 102.156 100.642 102.517C100.841 102.878 100.94 103.362 100.94 103.969V109H99.7669V107.966H99.7072C99.6277 108.132 99.4951 108.309 99.3095 108.498C99.1239 108.687 98.877 108.848 98.5687 108.98C98.2605 109.113 97.8843 109.179 97.4402 109.179ZM97.6191 108.125C98.0832 108.125 98.4743 108.034 98.7924 107.852C99.1139 107.669 99.3559 107.434 99.5183 107.146C99.684 106.857 99.7669 106.554 99.7669 106.236V105.162C99.7172 105.222 99.6078 105.276 99.4387 105.326C99.273 105.372 99.0808 105.414 98.862 105.45C98.6466 105.483 98.4361 105.513 98.2306 105.54C98.0285 105.563 97.8644 105.583 97.7385 105.599C97.4335 105.639 97.1485 105.704 96.8833 105.793C96.6215 105.879 96.4094 106.01 96.247 106.186C96.0879 106.358 96.0083 106.594 96.0083 106.892C96.0083 107.3 96.1592 107.608 96.4608 107.817C96.7657 108.022 97.1518 108.125 97.6191 108.125ZM107.894 105.878V101.364H109.067V109H107.894V107.707H107.815C107.636 108.095 107.357 108.425 106.979 108.697C106.602 108.965 106.124 109.099 105.548 109.099C105.07 109.099 104.646 108.995 104.275 108.786C103.904 108.574 103.612 108.256 103.4 107.832C103.188 107.404 103.082 106.866 103.082 106.216V101.364H104.255V106.136C104.255 106.693 104.411 107.137 104.722 107.469C105.037 107.8 105.438 107.966 105.925 107.966C106.217 107.966 106.514 107.891 106.815 107.742C107.12 107.593 107.375 107.364 107.581 107.056C107.79 106.748 107.894 106.355 107.894 105.878ZM111.216 101.364H112.39V109.557C112.39 110.027 112.309 110.435 112.146 110.78C111.987 111.125 111.745 111.391 111.42 111.58C111.099 111.769 110.693 111.864 110.202 111.864C110.162 111.864 110.123 111.864 110.083 111.864C110.043 111.864 110.003 111.864 109.964 111.864V110.77C110.003 110.77 110.04 110.77 110.073 110.77C110.106 110.77 110.143 110.77 110.182 110.77C110.54 110.77 110.802 110.664 110.968 110.452C111.134 110.243 111.216 109.945 111.216 109.557V101.364ZM111.793 100.091C111.564 100.091 111.367 100.013 111.202 99.8572C111.039 99.7015 110.958 99.5142 110.958 99.2955C110.958 99.0767 111.039 98.8894 111.202 98.7337C111.367 98.5779 111.564 98.5 111.793 98.5C112.022 98.5 112.217 98.5779 112.38 98.7337C112.546 98.8894 112.628 99.0767 112.628 99.2955C112.628 99.5142 112.546 99.7015 112.38 99.8572C112.217 100.013 112.022 100.091 111.793 100.091ZM117.641 109.159C116.952 109.159 116.347 108.995 115.826 108.667C115.309 108.339 114.905 107.88 114.613 107.29C114.325 106.7 114.181 106.01 114.181 105.222C114.181 104.426 114.325 103.732 114.613 103.138C114.905 102.545 115.309 102.085 115.826 101.756C116.347 101.428 116.952 101.264 117.641 101.264C118.33 101.264 118.934 101.428 119.451 101.756C119.971 102.085 120.375 102.545 120.664 103.138C120.955 103.732 121.101 104.426 121.101 105.222C121.101 106.01 120.955 106.7 120.664 107.29C120.375 107.88 119.971 108.339 119.451 108.667C118.934 108.995 118.33 109.159 117.641 109.159ZM117.641 108.105C118.165 108.105 118.596 107.971 118.934 107.702C119.272 107.434 119.522 107.081 119.684 106.643C119.847 106.206 119.928 105.732 119.928 105.222C119.928 104.711 119.847 104.236 119.684 103.795C119.522 103.354 119.272 102.998 118.934 102.726C118.596 102.454 118.165 102.318 117.641 102.318C117.117 102.318 116.686 102.454 116.348 102.726C116.01 102.998 115.76 103.354 115.598 103.795C115.435 104.236 115.354 104.711 115.354 105.222C115.354 105.732 115.435 106.206 115.598 106.643C115.76 107.081 116.01 107.434 116.348 107.702C116.686 107.971 117.117 108.105 117.641 108.105ZM126.492 98.3409L123.21 110.531H122.137L125.418 98.3409H126.492ZM135.002 102C134.892 101.665 134.748 101.365 134.569 101.1C134.394 100.832 134.183 100.603 133.938 100.414C133.696 100.225 133.421 100.081 133.113 99.9815C132.804 99.8821 132.466 99.8324 132.098 99.8324C131.495 99.8324 130.947 99.9882 130.453 100.3C129.959 100.611 129.566 101.07 129.275 101.677C128.983 102.283 128.837 103.027 128.837 103.909C128.837 104.791 128.984 105.535 129.279 106.141C129.574 106.748 129.974 107.207 130.478 107.518C130.981 107.83 131.548 107.986 132.178 107.986C132.761 107.986 133.275 107.862 133.719 107.613C134.167 107.361 134.515 107.006 134.763 106.549C135.015 106.088 135.141 105.546 135.141 104.923L135.519 105.003H132.456V103.909H136.334V105.003C136.334 105.841 136.155 106.571 135.797 107.19C135.443 107.81 134.952 108.291 134.326 108.632C133.703 108.97 132.987 109.139 132.178 109.139C131.276 109.139 130.484 108.927 129.801 108.503C129.122 108.079 128.592 107.475 128.211 106.693C127.833 105.911 127.644 104.983 127.644 103.909C127.644 103.104 127.752 102.379 127.967 101.737C128.186 101.09 128.494 100.54 128.892 100.086C129.289 99.6319 129.76 99.2839 130.304 99.0419C130.847 98.8 131.445 98.679 132.098 98.679C132.635 98.679 133.136 98.7602 133.6 98.9226C134.067 99.0817 134.483 99.3087 134.848 99.6037C135.216 99.8954 135.522 100.245 135.767 100.653C136.013 101.057 136.182 101.506 136.275 102H135.002ZM138.765 109V101.364H139.939V109H138.765ZM139.362 100.091C139.133 100.091 138.936 100.013 138.77 99.8572C138.608 99.7015 138.527 99.5142 138.527 99.2955C138.527 99.0767 138.608 98.8894 138.77 98.7337C138.936 98.5779 139.133 98.5 139.362 98.5C139.591 98.5 139.786 98.5779 139.949 98.7337C140.114 98.8894 140.197 99.0767 140.197 99.2955C140.197 99.5142 140.114 99.7015 139.949 99.8572C139.786 100.013 139.591 100.091 139.362 100.091ZM145.409 101.364V102.358H141.451V101.364H145.409ZM142.605 99.5341H143.778V106.812C143.778 107.144 143.826 107.393 143.922 107.558C144.021 107.721 144.147 107.83 144.3 107.886C144.456 107.939 144.62 107.966 144.792 107.966C144.921 107.966 145.027 107.959 145.11 107.946C145.193 107.929 145.259 107.916 145.309 107.906L145.548 108.96C145.468 108.99 145.357 109.02 145.215 109.05C145.072 109.083 144.892 109.099 144.673 109.099C144.341 109.099 144.017 109.028 143.698 108.886C143.383 108.743 143.122 108.526 142.913 108.234C142.707 107.943 142.605 107.575 142.605 107.131V99.5341ZM147.497 109V98.8182H153.602V99.9119H148.73V103.352H153.144V104.446H148.73V109H147.497ZM157.801 109.179C157.318 109.179 156.878 109.088 156.484 108.906C156.09 108.72 155.776 108.453 155.544 108.105C155.312 107.754 155.196 107.33 155.196 106.832C155.196 106.395 155.283 106.04 155.455 105.768C155.627 105.493 155.858 105.278 156.146 105.122C156.434 104.966 156.752 104.85 157.1 104.774C157.452 104.695 157.805 104.632 158.159 104.585C158.623 104.526 159 104.481 159.288 104.451C159.58 104.418 159.792 104.363 159.924 104.287C160.06 104.211 160.128 104.078 160.128 103.889V103.849C160.128 103.359 159.994 102.978 159.725 102.706C159.46 102.434 159.058 102.298 158.517 102.298C157.957 102.298 157.518 102.421 157.2 102.666C156.882 102.911 156.658 103.173 156.529 103.452L155.415 103.054C155.614 102.59 155.879 102.229 156.211 101.97C156.545 101.708 156.91 101.526 157.304 101.423C157.702 101.317 158.093 101.264 158.478 101.264C158.723 101.264 159.005 101.294 159.323 101.354C159.644 101.41 159.954 101.528 160.252 101.707C160.554 101.886 160.804 102.156 161.003 102.517C161.202 102.878 161.301 103.362 161.301 103.969V109H160.128V107.966H160.069C159.989 108.132 159.856 108.309 159.671 108.498C159.485 108.687 159.238 108.848 158.93 108.98C158.622 109.113 158.246 109.179 157.801 109.179ZM157.98 108.125C158.444 108.125 158.836 108.034 159.154 107.852C159.475 107.669 159.717 107.434 159.88 107.146C160.045 106.857 160.128 106.554 160.128 106.236V105.162C160.078 105.222 159.969 105.276 159.8 105.326C159.634 105.372 159.442 105.414 159.223 105.45C159.008 105.483 158.797 105.513 158.592 105.54C158.39 105.563 158.226 105.583 158.1 105.599C157.795 105.639 157.51 105.704 157.245 105.793C156.983 105.879 156.771 106.01 156.608 106.186C156.449 106.358 156.37 106.594 156.37 106.892C156.37 107.3 156.52 107.608 156.822 107.817C157.127 108.022 157.513 108.125 157.98 108.125ZM166.545 109.159C165.829 109.159 165.213 108.99 164.696 108.652C164.179 108.314 163.781 107.848 163.503 107.255C163.224 106.662 163.085 105.984 163.085 105.222C163.085 104.446 163.228 103.762 163.513 103.168C163.801 102.572 164.202 102.106 164.716 101.771C165.233 101.433 165.836 101.264 166.525 101.264C167.062 101.264 167.546 101.364 167.977 101.562C168.408 101.761 168.761 102.04 169.036 102.398C169.311 102.756 169.482 103.173 169.548 103.651H168.375C168.285 103.303 168.086 102.994 167.778 102.726C167.473 102.454 167.062 102.318 166.545 102.318C166.088 102.318 165.687 102.437 165.342 102.676C165.001 102.911 164.734 103.245 164.542 103.675C164.353 104.103 164.258 104.605 164.258 105.182C164.258 105.772 164.351 106.286 164.537 106.723C164.726 107.161 164.991 107.5 165.332 107.742C165.677 107.984 166.081 108.105 166.545 108.105C166.85 108.105 167.127 108.052 167.376 107.946C167.624 107.84 167.835 107.688 168.007 107.489C168.179 107.29 168.302 107.051 168.375 106.773H169.548C169.482 107.223 169.318 107.629 169.056 107.991C168.797 108.349 168.454 108.634 168.027 108.846C167.603 109.055 167.109 109.159 166.545 109.159ZM174.584 101.364V102.358H170.627V101.364H174.584ZM171.78 99.5341H172.954V106.812C172.954 107.144 173.002 107.393 173.098 107.558C173.197 107.721 173.323 107.83 173.476 107.886C173.631 107.939 173.796 107.966 173.968 107.966C174.097 107.966 174.203 107.959 174.286 107.946C174.369 107.929 174.435 107.916 174.485 107.906L174.724 108.96C174.644 108.99 174.533 109.02 174.39 109.05C174.248 109.083 174.067 109.099 173.849 109.099C173.517 109.099 173.192 109.028 172.874 108.886C172.559 108.743 172.297 108.526 172.089 108.234C171.883 107.943 171.78 107.575 171.78 107.131V99.5341ZM179.369 109.159C178.68 109.159 178.075 108.995 177.555 108.667C177.038 108.339 176.633 107.88 176.342 107.29C176.053 106.7 175.909 106.01 175.909 105.222C175.909 104.426 176.053 103.732 176.342 103.138C176.633 102.545 177.038 102.085 177.555 101.756C178.075 101.428 178.68 101.264 179.369 101.264C180.059 101.264 180.662 101.428 181.179 101.756C181.7 102.085 182.104 102.545 182.392 103.138C182.684 103.732 182.83 104.426 182.83 105.222C182.83 106.01 182.684 106.7 182.392 107.29C182.104 107.88 181.7 108.339 181.179 108.667C180.662 108.995 180.059 109.159 179.369 109.159ZM179.369 108.105C179.893 108.105 180.324 107.971 180.662 107.702C181 107.434 181.25 107.081 181.413 106.643C181.575 106.206 181.656 105.732 181.656 105.222C181.656 104.711 181.575 104.236 181.413 103.795C181.25 103.354 181 102.998 180.662 102.726C180.324 102.454 179.893 102.318 179.369 102.318C178.846 102.318 178.415 102.454 178.077 102.726C177.739 102.998 177.489 103.354 177.326 103.795C177.164 104.236 177.083 104.711 177.083 105.222C177.083 105.732 177.164 106.206 177.326 106.643C177.489 107.081 177.739 107.434 178.077 107.702C178.415 107.971 178.846 108.105 179.369 108.105ZM184.621 109V101.364H185.754V102.517H185.834C185.973 102.139 186.225 101.833 186.589 101.597C186.954 101.362 187.365 101.244 187.822 101.244C187.909 101.244 188.016 101.246 188.146 101.249C188.275 101.253 188.373 101.258 188.439 101.264V102.457C188.399 102.447 188.308 102.433 188.165 102.413C188.026 102.389 187.879 102.378 187.723 102.378C187.352 102.378 187.02 102.456 186.729 102.612C186.44 102.764 186.212 102.976 186.043 103.248C185.877 103.516 185.794 103.823 185.794 104.168V109H184.621ZM190.818 111.864C190.619 111.864 190.442 111.847 190.286 111.814C190.13 111.784 190.022 111.754 189.963 111.724L190.261 110.69C190.546 110.763 190.798 110.79 191.017 110.77C191.235 110.75 191.429 110.652 191.598 110.477C191.771 110.304 191.928 110.024 192.071 109.636L192.289 109.04L189.466 101.364H190.738L192.846 107.449H192.926L195.034 101.364H196.306L193.065 110.114C192.919 110.508 192.739 110.835 192.523 111.093C192.308 111.355 192.057 111.549 191.772 111.675C191.491 111.801 191.172 111.864 190.818 111.864ZM198.232 109.08C197.986 109.08 197.776 108.992 197.6 108.816C197.425 108.64 197.337 108.43 197.337 108.185C197.337 107.939 197.425 107.729 197.6 107.553C197.776 107.378 197.986 107.29 198.232 107.29C198.477 107.29 198.687 107.378 198.863 107.553C199.039 107.729 199.127 107.939 199.127 108.185C199.127 108.347 199.085 108.496 199.002 108.632C198.923 108.768 198.815 108.877 198.679 108.96C198.547 109.04 198.397 109.08 198.232 109.08ZM204.314 112.023C203.748 112.023 203.26 111.95 202.853 111.804C202.445 111.661 202.105 111.473 201.834 111.237C201.565 111.005 201.351 110.757 201.192 110.491L202.127 109.835C202.233 109.974 202.367 110.134 202.53 110.312C202.692 110.495 202.914 110.652 203.196 110.785C203.481 110.921 203.854 110.989 204.314 110.989C204.931 110.989 205.44 110.839 205.841 110.541C206.242 110.243 206.442 109.776 206.442 109.139V107.588H206.343C206.257 107.727 206.134 107.9 205.975 108.105C205.819 108.307 205.594 108.488 205.299 108.647C205.007 108.803 204.613 108.881 204.116 108.881C203.499 108.881 202.946 108.735 202.455 108.443C201.968 108.152 201.582 107.727 201.297 107.17C201.015 106.614 200.874 105.937 200.874 105.142C200.874 104.36 201.012 103.679 201.287 103.099C201.562 102.515 201.945 102.065 202.435 101.746C202.926 101.425 203.492 101.264 204.135 101.264C204.633 101.264 205.027 101.347 205.319 101.513C205.614 101.675 205.839 101.861 205.995 102.07C206.154 102.275 206.277 102.444 206.363 102.577H206.482V101.364H207.616V109.219C207.616 109.875 207.466 110.409 207.168 110.82C206.873 111.234 206.475 111.537 205.975 111.729C205.478 111.925 204.924 112.023 204.314 112.023ZM204.275 107.827C204.745 107.827 205.143 107.719 205.468 107.504C205.793 107.288 206.04 106.978 206.209 106.574C206.378 106.17 206.462 105.686 206.462 105.122C206.462 104.572 206.379 104.086 206.214 103.665C206.048 103.245 205.803 102.915 205.478 102.676C205.153 102.437 204.752 102.318 204.275 102.318C203.778 102.318 203.363 102.444 203.032 102.696C202.704 102.948 202.457 103.286 202.291 103.71C202.129 104.134 202.047 104.605 202.047 105.122C202.047 105.652 202.13 106.121 202.296 106.529C202.465 106.933 202.714 107.252 203.042 107.484C203.373 107.712 203.784 107.827 204.275 107.827ZM209.763 109V101.364H210.937V109H209.763ZM210.36 100.091C210.131 100.091 209.934 100.013 209.768 99.8572C209.606 99.7015 209.525 99.5142 209.525 99.2955C209.525 99.0767 209.606 98.8894 209.768 98.7337C209.934 98.5779 210.131 98.5 210.36 98.5C210.589 98.5 210.784 98.5779 210.947 98.7337C211.112 98.8894 211.195 99.0767 211.195 99.2955C211.195 99.5142 211.112 99.7015 210.947 99.8572C210.784 100.013 210.589 100.091 210.36 100.091ZM216.407 101.364V102.358H212.449V101.364H216.407ZM213.603 99.5341H214.776V106.812C214.776 107.144 214.824 107.393 214.92 107.558C215.02 107.721 215.145 107.83 215.298 107.886C215.454 107.939 215.618 107.966 215.79 107.966C215.919 107.966 216.025 107.959 216.108 107.946C216.191 107.929 216.257 107.916 216.307 107.906L216.546 108.96C216.466 108.99 216.355 109.02 216.213 109.05C216.07 109.083 215.89 109.099 215.671 109.099C215.339 109.099 215.015 109.028 214.696 108.886C214.382 108.743 214.12 108.526 213.911 108.234C213.705 107.943 213.603 107.575 213.603 107.131V99.5341ZM219.602 98.8182V99.7131C219.602 99.9848 219.552 100.275 219.453 100.583C219.357 100.888 219.214 101.185 219.025 101.473C218.84 101.758 218.614 102.007 218.349 102.219L217.713 101.702C217.922 101.403 218.102 101.094 218.255 100.772C218.411 100.447 218.488 100.101 218.488 99.733V98.8182H219.602ZM222.148 98.8182V99.7131C222.148 99.9848 222.098 100.275 221.998 100.583C221.902 100.888 221.76 101.185 221.571 101.473C221.385 101.758 221.16 102.007 220.895 102.219L220.258 101.702C220.467 101.403 220.648 101.094 220.8 100.772C220.956 100.447 221.034 100.101 221.034 99.733V98.8182H222.148Z" fill="#373737"/>
<path d="M22.0739 162.364H23.2472V170.557C23.2472 171.027 23.166 171.435 23.0036 171.78C22.8445 172.125 22.6025 172.391 22.2777 172.58C21.9562 172.769 21.5502 172.864 21.0597 172.864C21.0199 172.864 20.9801 172.864 20.9403 172.864C20.9006 172.864 20.8608 172.864 20.821 172.864V171.77C20.8608 171.77 20.8973 171.77 20.9304 171.77C20.9635 171.77 21 171.77 21.0398 171.77C21.3977 171.77 21.6596 171.664 21.8253 171.452C21.991 171.243 22.0739 170.945 22.0739 170.557V162.364ZM22.6506 161.091C22.4219 161.091 22.2247 161.013 22.0589 160.857C21.8965 160.701 21.8153 160.514 21.8153 160.295C21.8153 160.077 21.8965 159.889 22.0589 159.734C22.2247 159.578 22.4219 159.5 22.6506 159.5C22.8793 159.5 23.0748 159.578 23.2372 159.734C23.4029 159.889 23.4858 160.077 23.4858 160.295C23.4858 160.514 23.4029 160.701 23.2372 160.857C23.0748 161.013 22.8793 161.091 22.6506 161.091ZM31.6404 162.364L28.8166 170H27.6234L24.7995 162.364H26.0723L28.1802 168.449H28.2598L30.3677 162.364H31.6404ZM35.7992 170.159C35.1628 170.159 34.601 169.998 34.1138 169.677C33.6266 169.352 33.2454 168.895 32.9703 168.305C32.6953 167.711 32.5577 167.01 32.5577 166.202C32.5577 165.4 32.6953 164.704 32.9703 164.114C33.2454 163.524 33.6283 163.068 34.1188 162.746C34.6093 162.425 35.1761 162.264 35.8191 162.264C36.3162 162.264 36.709 162.347 36.9973 162.513C37.289 162.675 37.5111 162.861 37.6635 163.07C37.8193 163.275 37.9403 163.444 38.0265 163.577H38.1259V159.818H39.2992V170H38.1657V168.827H38.0265C37.9403 168.966 37.8176 169.142 37.6586 169.354C37.4995 169.562 37.2724 169.75 36.9775 169.915C36.6825 170.078 36.2897 170.159 35.7992 170.159ZM35.9583 169.105C36.4289 169.105 36.8266 168.982 37.1515 168.737C37.4763 168.489 37.7232 168.146 37.8922 167.708C38.0613 167.267 38.1458 166.759 38.1458 166.182C38.1458 165.612 38.0629 165.113 37.8972 164.685C37.7315 164.254 37.4862 163.92 37.1614 163.681C36.8366 163.439 36.4355 163.318 35.9583 163.318C35.4611 163.318 35.0468 163.446 34.7154 163.701C34.3873 163.953 34.1403 164.296 33.9746 164.73C33.8122 165.161 33.731 165.645 33.731 166.182C33.731 166.725 33.8139 167.219 33.9796 167.663C34.1486 168.104 34.3972 168.455 34.7253 168.717C35.0568 168.976 35.4677 169.105 35.9583 169.105ZM41.611 170V162.364H42.7843V170H41.611ZM42.2076 161.091C41.9789 161.091 41.7817 161.013 41.6159 160.857C41.4535 160.701 41.3723 160.514 41.3723 160.295C41.3723 160.077 41.4535 159.889 41.6159 159.734C41.7817 159.578 41.9789 159.5 42.2076 159.5C42.4363 159.5 42.6318 159.578 42.7942 159.734C42.9599 159.889 43.0428 160.077 43.0428 160.295C43.0428 160.514 42.9599 160.701 42.7942 160.857C42.6318 161.013 42.4363 161.091 42.2076 161.091ZM46.1065 165.406V170H44.9332V162.364H46.0668V163.557H46.1662C46.3452 163.169 46.617 162.857 46.9815 162.622C47.3461 162.384 47.8168 162.264 48.3935 162.264C48.9105 162.264 49.3629 162.37 49.7507 162.582C50.1385 162.791 50.4401 163.109 50.6555 163.537C50.871 163.961 50.9787 164.498 50.9787 165.148V170H49.8054V165.227C49.8054 164.627 49.6496 164.16 49.3381 163.825C49.0265 163.487 48.599 163.318 48.0554 163.318C47.6809 163.318 47.3461 163.399 47.0511 163.562C46.7595 163.724 46.5291 163.961 46.3601 164.273C46.1911 164.584 46.1065 164.962 46.1065 165.406ZM53.1227 170V162.364H54.296V170H53.1227ZM53.7193 161.091C53.4906 161.091 53.2934 161.013 53.1277 160.857C52.9653 160.701 52.8841 160.514 52.8841 160.295C52.8841 160.077 52.9653 159.889 53.1277 159.734C53.2934 159.578 53.4906 159.5 53.7193 159.5C53.948 159.5 54.1435 159.578 54.3059 159.734C54.4717 159.889 54.5545 160.077 54.5545 160.295C54.5545 160.514 54.4717 160.701 54.3059 160.857C54.1435 161.013 53.948 161.091 53.7193 161.091ZM56.2262 170V169.105L60.5614 163.537V163.457H56.3654V162.364H62.0728V163.298L57.8569 168.827V168.906H62.212V170H56.2262ZM69.8857 172.685C68.8714 172.685 67.9749 172.545 67.196 172.267C66.4171 171.992 65.7625 171.586 65.2322 171.049C64.7019 170.512 64.3009 169.854 64.0291 169.075C63.7573 168.296 63.6214 167.405 63.6214 166.401C63.6214 165.429 63.759 164.561 64.0341 163.795C64.3125 163.03 64.7152 162.38 65.2422 161.847C65.7725 161.31 66.4155 160.9 67.1712 160.619C67.9302 160.337 68.7886 160.196 69.7464 160.196C70.6778 160.196 71.4931 160.348 72.1925 160.653C72.8951 160.955 73.4818 161.364 73.9524 161.881C74.4264 162.395 74.781 162.973 75.0163 163.616C75.255 164.259 75.3743 164.922 75.3743 165.605C75.3743 166.086 75.3511 166.573 75.3047 167.067C75.2583 167.561 75.1605 168.015 75.0114 168.429C74.8622 168.84 74.6319 169.171 74.3203 169.423C74.0121 169.675 73.5945 169.801 73.0675 169.801C72.8355 169.801 72.5803 169.765 72.3018 169.692C72.0234 169.619 71.7765 169.498 71.5611 169.329C71.3456 169.16 71.218 168.933 71.1783 168.648H71.1186C71.0391 168.84 70.9164 169.022 70.7507 169.195C70.5883 169.367 70.3745 169.504 70.1094 169.607C69.8475 169.71 69.5277 169.755 69.1499 169.741C68.719 169.725 68.3395 169.629 68.0114 169.453C67.6832 169.274 67.4081 169.032 67.1861 168.727C66.9673 168.419 66.8016 168.063 66.6889 167.658C66.5795 167.251 66.5249 166.812 66.5249 166.341C66.5249 165.893 66.5911 165.484 66.7237 165.113C66.8563 164.742 67.0402 164.417 67.2756 164.138C67.5142 163.86 67.7926 163.638 68.1108 163.472C68.4323 163.303 68.7786 163.199 69.1499 163.159C69.4813 163.126 69.7829 163.141 70.0547 163.204C70.3265 163.263 70.5502 163.355 70.7259 163.477C70.9015 163.597 71.0125 163.729 71.0589 163.875H71.1186V163.318H72.1726V167.812C72.1726 168.091 72.2505 168.336 72.4062 168.548C72.562 168.76 72.7891 168.866 73.0874 168.866C73.4254 168.866 73.6839 168.75 73.8629 168.518C74.0452 168.286 74.1695 167.929 74.2358 167.445C74.3054 166.961 74.3402 166.341 74.3402 165.585C74.3402 165.141 74.2789 164.704 74.1562 164.273C74.0369 163.839 73.8546 163.433 73.6094 163.055C73.3674 162.677 73.0608 162.344 72.6896 162.055C72.3184 161.767 71.8826 161.542 71.3821 161.379C70.8849 161.214 70.3198 161.131 69.6868 161.131C68.9079 161.131 68.2102 161.252 67.5938 161.494C66.9806 161.732 66.4586 162.082 66.0277 162.543C65.6001 163 65.2737 163.557 65.0483 164.213C64.8262 164.866 64.7152 165.608 64.7152 166.44C64.7152 167.286 64.8262 168.036 65.0483 168.692C65.2737 169.349 65.6051 169.902 66.0426 170.353C66.4834 170.804 67.0286 171.145 67.6783 171.377C68.3279 171.612 69.0769 171.73 69.9254 171.73C70.29 171.73 70.6496 171.695 71.0043 171.626C71.3589 171.556 71.6721 171.48 71.9439 171.397C72.2157 171.314 72.4112 171.253 72.5305 171.213L72.8089 172.128C72.6035 172.214 72.335 172.3 72.0036 172.386C71.6754 172.473 71.3241 172.544 70.9496 172.6C70.5784 172.656 70.2237 172.685 69.8857 172.685ZM69.3089 168.727C69.7531 168.727 70.1127 168.638 70.3878 168.459C70.6629 168.28 70.8634 168.01 70.9893 167.648C71.1153 167.287 71.1783 166.831 71.1783 166.281C71.1783 165.724 71.1087 165.29 70.9695 164.979C70.8303 164.667 70.6248 164.448 70.353 164.322C70.0812 164.196 69.7464 164.134 69.3487 164.134C68.9709 164.134 68.6477 164.233 68.3793 164.432C68.1141 164.627 67.9103 164.889 67.7678 165.217C67.6286 165.542 67.5589 165.897 67.5589 166.281C67.5589 166.705 67.6153 167.105 67.728 167.479C67.8407 167.851 68.0246 168.152 68.2798 168.384C68.535 168.613 68.8781 168.727 69.3089 168.727ZM80.2129 173.023C79.6461 173.023 79.1589 172.95 78.7512 172.804C78.3436 172.661 78.0038 172.473 77.7321 172.237C77.4636 172.005 77.2498 171.757 77.0907 171.491L78.0254 170.835C78.1315 170.974 78.2657 171.134 78.4281 171.312C78.5905 171.495 78.8126 171.652 79.0943 171.785C79.3793 171.921 79.7522 171.989 80.2129 171.989C80.8294 171.989 81.3381 171.839 81.7392 171.541C82.1402 171.243 82.3407 170.776 82.3407 170.139V168.588H82.2413C82.1551 168.727 82.0325 168.9 81.8734 169.105C81.7176 169.307 81.4922 169.488 81.1973 169.647C80.9056 169.803 80.5112 169.881 80.014 169.881C79.3975 169.881 78.844 169.735 78.3535 169.443C77.8663 169.152 77.4802 168.727 77.1951 168.17C76.9134 167.614 76.7725 166.937 76.7725 166.142C76.7725 165.36 76.9101 164.679 77.1852 164.099C77.4603 163.515 77.8431 163.065 78.3336 162.746C78.8242 162.425 79.3909 162.264 80.0339 162.264C80.5311 162.264 80.9255 162.347 81.2172 162.513C81.5121 162.675 81.7375 162.861 81.8933 163.07C82.0524 163.275 82.175 163.444 82.2612 163.577H82.3805V162.364H83.514V170.219C83.514 170.875 83.3649 171.409 83.0666 171.82C82.7716 172.234 82.3739 172.537 81.8734 172.729C81.3762 172.925 80.8227 173.023 80.2129 173.023ZM80.1731 168.827C80.6438 168.827 81.0415 168.719 81.3663 168.504C81.6911 168.288 81.938 167.978 82.1071 167.574C82.2761 167.17 82.3606 166.686 82.3606 166.122C82.3606 165.572 82.2778 165.086 82.112 164.665C81.9463 164.245 81.7011 163.915 81.3762 163.676C81.0514 163.437 80.6504 163.318 80.1731 163.318C79.676 163.318 79.2617 163.444 78.9302 163.696C78.6021 163.948 78.3552 164.286 78.1895 164.71C78.027 165.134 77.9458 165.605 77.9458 166.122C77.9458 166.652 78.0287 167.121 78.1944 167.529C78.3635 167.933 78.612 168.252 78.9402 168.484C79.2716 168.712 79.6826 168.827 80.1731 168.827ZM85.6618 170V162.364H86.7953V163.557H86.8947C87.0538 163.149 87.3107 162.833 87.6653 162.607C88.0199 162.379 88.4458 162.264 88.943 162.264C89.4468 162.264 89.8661 162.379 90.2008 162.607C90.5389 162.833 90.8024 163.149 90.9913 163.557H91.0708C91.2664 163.162 91.5597 162.849 91.9508 162.617C92.3419 162.382 92.8109 162.264 93.3578 162.264C94.0405 162.264 94.599 162.478 95.0332 162.906C95.4674 163.33 95.6845 163.991 95.6845 164.889V170H94.5112V164.889C94.5112 164.326 94.3571 163.923 94.0488 163.681C93.7406 163.439 93.3777 163.318 92.96 163.318C92.4231 163.318 92.0072 163.481 91.7122 163.805C91.4172 164.127 91.2697 164.535 91.2697 165.028V170H90.0765V164.77C90.0765 164.336 89.9357 163.986 89.6539 163.721C89.3722 163.452 89.0093 163.318 88.5652 163.318C88.2602 163.318 87.9752 163.399 87.71 163.562C87.4482 163.724 87.2361 163.95 87.0737 164.238C86.9146 164.523 86.835 164.853 86.835 165.227V170H85.6618ZM100.077 170.179C99.593 170.179 99.1538 170.088 98.7594 169.906C98.365 169.72 98.0518 169.453 97.8198 169.105C97.5878 168.754 97.4718 168.33 97.4718 167.832C97.4718 167.395 97.5579 167.04 97.7303 166.768C97.9026 166.493 98.133 166.278 98.4213 166.122C98.7097 165.966 99.0279 165.85 99.3759 165.774C99.7272 165.695 100.08 165.632 100.435 165.585C100.899 165.526 101.275 165.481 101.563 165.451C101.855 165.418 102.067 165.363 102.2 165.287C102.336 165.211 102.404 165.078 102.404 164.889V164.849C102.404 164.359 102.269 163.978 102.001 163.706C101.736 163.434 101.333 163.298 100.793 163.298C100.233 163.298 99.7935 163.421 99.4753 163.666C99.1571 163.911 98.9334 164.173 98.8042 164.452L97.6905 164.054C97.8894 163.59 98.1545 163.229 98.486 162.97C98.8207 162.708 99.1853 162.526 99.5797 162.423C99.9775 162.317 100.369 162.264 100.753 162.264C100.998 162.264 101.28 162.294 101.598 162.354C101.92 162.41 102.23 162.528 102.528 162.707C102.829 162.886 103.08 163.156 103.279 163.517C103.477 163.878 103.577 164.362 103.577 164.969V170H102.404V168.966H102.344C102.264 169.132 102.132 169.309 101.946 169.498C101.761 169.687 101.514 169.848 101.205 169.98C100.897 170.113 100.521 170.179 100.077 170.179ZM100.256 169.125C100.72 169.125 101.111 169.034 101.429 168.852C101.751 168.669 101.993 168.434 102.155 168.146C102.321 167.857 102.404 167.554 102.404 167.236V166.162C102.354 166.222 102.244 166.276 102.075 166.326C101.91 166.372 101.718 166.414 101.499 166.45C101.283 166.483 101.073 166.513 100.867 166.54C100.665 166.563 100.501 166.583 100.375 166.599C100.07 166.639 99.7852 166.704 99.5201 166.793C99.2582 166.879 99.0461 167.01 98.8837 167.186C98.7246 167.358 98.6451 167.594 98.6451 167.892C98.6451 168.3 98.7959 168.608 99.0975 168.817C99.4024 169.022 99.7885 169.125 100.256 169.125ZM105.718 170V162.364H106.892V170H105.718ZM106.315 161.091C106.086 161.091 105.889 161.013 105.723 160.857C105.561 160.701 105.48 160.514 105.48 160.295C105.48 160.077 105.561 159.889 105.723 159.734C105.889 159.578 106.086 159.5 106.315 159.5C106.544 159.5 106.739 159.578 106.902 159.734C107.067 159.889 107.15 160.077 107.15 160.295C107.15 160.514 107.067 160.701 106.902 160.857C106.739 161.013 106.544 161.091 106.315 161.091ZM110.214 159.818V170H109.041V159.818H110.214ZM113.218 170.08C112.973 170.08 112.762 169.992 112.587 169.816C112.411 169.64 112.323 169.43 112.323 169.185C112.323 168.939 112.411 168.729 112.587 168.553C112.762 168.378 112.973 168.29 113.218 168.29C113.463 168.29 113.674 168.378 113.849 168.553C114.025 168.729 114.113 168.939 114.113 169.185C114.113 169.347 114.071 169.496 113.989 169.632C113.909 169.768 113.801 169.877 113.665 169.96C113.533 170.04 113.384 170.08 113.218 170.08ZM119.321 170.159C118.605 170.159 117.988 169.99 117.471 169.652C116.954 169.314 116.556 168.848 116.278 168.255C116 167.662 115.86 166.984 115.86 166.222C115.86 165.446 116.003 164.762 116.288 164.168C116.576 163.572 116.977 163.106 117.491 162.771C118.008 162.433 118.611 162.264 119.301 162.264C119.838 162.264 120.322 162.364 120.752 162.562C121.183 162.761 121.536 163.04 121.811 163.398C122.087 163.756 122.257 164.173 122.324 164.651H121.15C121.061 164.303 120.862 163.994 120.554 163.726C120.249 163.454 119.838 163.318 119.321 163.318C118.863 163.318 118.462 163.437 118.118 163.676C117.776 163.911 117.509 164.245 117.317 164.675C117.128 165.103 117.034 165.605 117.034 166.182C117.034 166.772 117.127 167.286 117.312 167.723C117.501 168.161 117.766 168.5 118.108 168.742C118.452 168.984 118.857 169.105 119.321 169.105C119.626 169.105 119.902 169.052 120.151 168.946C120.4 168.84 120.61 168.688 120.782 168.489C120.955 168.29 121.077 168.051 121.15 167.773H122.324C122.257 168.223 122.093 168.629 121.831 168.991C121.573 169.349 121.23 169.634 120.802 169.846C120.378 170.055 119.884 170.159 119.321 170.159ZM127.141 170.159C126.452 170.159 125.847 169.995 125.326 169.667C124.809 169.339 124.405 168.88 124.113 168.29C123.825 167.7 123.681 167.01 123.681 166.222C123.681 165.426 123.825 164.732 124.113 164.138C124.405 163.545 124.809 163.085 125.326 162.756C125.847 162.428 126.452 162.264 127.141 162.264C127.83 162.264 128.434 162.428 128.951 162.756C129.471 163.085 129.875 163.545 130.164 164.138C130.455 164.732 130.601 165.426 130.601 166.222C130.601 167.01 130.455 167.7 130.164 168.29C129.875 168.88 129.471 169.339 128.951 169.667C128.434 169.995 127.83 170.159 127.141 170.159ZM127.141 169.105C127.665 169.105 128.096 168.971 128.434 168.702C128.772 168.434 129.022 168.081 129.184 167.643C129.347 167.206 129.428 166.732 129.428 166.222C129.428 165.711 129.347 165.236 129.184 164.795C129.022 164.354 128.772 163.998 128.434 163.726C128.096 163.454 127.665 163.318 127.141 163.318C126.617 163.318 126.186 163.454 125.848 163.726C125.51 163.998 125.26 164.354 125.098 164.795C124.935 165.236 124.854 165.711 124.854 166.222C124.854 166.732 124.935 167.206 125.098 167.643C125.26 168.081 125.51 168.434 125.848 168.702C126.186 168.971 126.617 169.105 127.141 169.105ZM132.392 170V162.364H133.526V163.557H133.625C133.784 163.149 134.041 162.833 134.396 162.607C134.75 162.379 135.176 162.264 135.673 162.264C136.177 162.264 136.597 162.379 136.931 162.607C137.269 162.833 137.533 163.149 137.722 163.557H137.801C137.997 163.162 138.29 162.849 138.681 162.617C139.072 162.382 139.541 162.264 140.088 162.264C140.771 162.264 141.329 162.478 141.764 162.906C142.198 163.33 142.415 163.991 142.415 164.889V170H141.242V164.889C141.242 164.326 141.088 163.923 140.779 163.681C140.471 163.439 140.108 163.318 139.691 163.318C139.154 163.318 138.738 163.481 138.443 163.805C138.148 164.127 138 164.535 138 165.028V170H136.807V164.77C136.807 164.336 136.666 163.986 136.384 163.721C136.103 163.452 135.74 163.318 135.296 163.318C134.991 163.318 134.706 163.399 134.441 163.562C134.179 163.724 133.967 163.95 133.804 164.238C133.645 164.523 133.566 164.853 133.566 165.227V170H132.392Z" fill="#373737"/>
<path d="M123.885 350.441V359.527H123V362.454H149V359.527H148.115V350.475L140.152 346.459V350.271L132.733 346.459V350.475H130.215L129.602 337.679C129.765 337.652 129.806 337.577 129.806 337.543V336.931C129.806 336.795 129.625 336.783 129.534 336.795V336.182H127.016V336.795C126.88 336.767 126.777 336.874 126.743 336.931V337.543C126.743 337.625 126.902 337.691 126.982 337.714L126.335 350.441H123.885Z" fill="#EB6C54"/>
<rect x="126.676" y="353.81" width="1.56542" height="1.56542" fill="white"/>
<rect x="126.676" y="356.056" width="1.56542" height="1.56542" fill="white"/>
<rect x="128.854" y="353.81" width="1.56542" height="1.56542" fill="white"/>
<rect x="128.854" y="356.056" width="1.56542" height="1.56542" fill="white"/>
<rect x="131.645" y="353.81" width="1.56542" height="1.56542" fill="white"/>
<rect x="131.645" y="356.056" width="1.56542" height="1.56542" fill="white"/>
<rect x="133.822" y="353.81" width="1.56542" height="1.56542" fill="white"/>
<rect x="133.822" y="356.056" width="1.56542" height="1.56542" fill="white"/>
<rect x="136.613" y="353.81" width="1.56542" height="1.56542" fill="white"/>
<rect x="136.613" y="356.056" width="1.56542" height="1.56542" fill="white"/>
<rect x="138.792" y="353.81" width="1.56542" height="1.56542" fill="white"/>
<rect x="138.792" y="356.056" width="1.56542" height="1.56542" fill="white"/>
<rect x="141.582" y="353.81" width="1.56542" height="1.56542" fill="white"/>
<rect x="141.582" y="356.056" width="1.56542" height="1.56542" fill="white"/>
<rect x="143.76" y="353.81" width="1.56542" height="1.56542" fill="white"/>
<rect x="143.76" y="356.056" width="1.56542" height="1.56542" fill="white"/>
<path d="M133.413 329.512C130.718 328.777 130.067 330.227 130.078 331.043C127.982 331.533 127.549 333.017 127.594 333.698C128.036 335.978 131.235 334.923 131.848 333.868C134.57 335.195 135.659 333.618 135.727 332.813C138.212 334.242 140.56 333.017 140.764 332.609C142.207 333.562 143.815 333.55 144.439 333.426C147.706 332.772 147.615 329.886 147.162 328.525C145.474 324.686 139.198 325.837 138.688 327.947C134.985 326.721 133.629 328.48 133.413 329.512Z" fill="#7B7A7A"/>
</svg>
