<svg width="76" height="49" viewBox="0 0 76 49" fill="none" xmlns="http://www.w3.org/2000/svg">
<path d="M1.59766 36.2668V7.82886H44.1937V36.2668H1.59766Z" fill="#FFB800" stroke="#FFB800" stroke-width="1.02128"/>
<path d="M47.3779 39.45H1L2.79142 41.9967H74.8464V24.1699L63.8988 20.5621C63.8988 12.5826 60.0506 10.0217 58.1264 9.73877H47.3779V39.45Z" fill="#FFB800" stroke="#FFB800" stroke-width="1.02128"/>
<ellipse cx="12.7439" cy="43.9068" rx="4.77712" ry="5.09335" fill="#373737"/>
<ellipse cx="12.743" cy="43.9069" rx="3.58284" ry="3.82002" fill="#FFB800"/>
<ellipse cx="23.8904" cy="43.9068" rx="4.77712" ry="5.09335" fill="#373737"/>
<ellipse cx="62.1072" cy="43.9068" rx="4.77712" ry="5.09335" fill="#373737"/>
<ellipse cx="23.8914" cy="43.9069" rx="3.58284" ry="3.82002" fill="#FFB800"/>
<ellipse cx="62.1063" cy="43.9069" rx="3.58284" ry="3.82002" fill="#FFB800"/>
<path d="M52.1543 21.8354V13.3464H58.5238C60.9468 13.3464 62.0016 18.4651 62.2704 21.4003C62.2919 21.6362 62.1043 21.8354 61.8674 21.8354H52.1543Z" fill="#FFB800" stroke="#FFB800" stroke-width="1.02128"/>
<path d="M46.1819 31.8101V3.79661C46.1156 2.73549 45.1867 0.698149 42.002 1.03771" stroke="#FFB800" stroke-width="1.02128"/>
<path d="M17.732 23.9899V28.4473H17.3594V29.883H28.3098V28.4473H27.9371V24.0066L24.5832 22.0366V23.9064L21.4586 22.0366V24.0066H20.398L20.14 17.7294C20.2088 17.7161 20.226 17.6793 20.226 17.6627V17.3622C20.226 17.2954 20.1495 17.2898 20.1113 17.2954V16.9949H19.0507V17.2954C18.9933 17.282 18.9503 17.3343 18.936 17.3622V17.6627C18.936 17.7027 19.0029 17.735 19.0363 17.7461L18.764 23.9899H17.732Z" fill="#1E1E1E"/>
<rect x="18.9062" y="25.6426" width="0.659317" height="0.767947" fill="#1E1E1E"/>
<rect x="18.9062" y="26.7444" width="0.659316" height="0.767947" fill="#1E1E1E"/>
<rect x="19.8242" y="25.6426" width="0.659317" height="0.767947" fill="#1E1E1E"/>
<rect x="19.8242" y="26.7444" width="0.659317" height="0.767947" fill="#1E1E1E"/>
<rect x="21" y="25.6426" width="0.659317" height="0.767947" fill="#1E1E1E"/>
<rect x="21" y="26.7444" width="0.659316" height="0.767947" fill="#1E1E1E"/>
<rect x="21.918" y="25.6426" width="0.659316" height="0.767947" fill="#1E1E1E"/>
<rect x="21.918" y="26.7444" width="0.659316" height="0.767947" fill="#1E1E1E"/>
<rect x="23.0918" y="25.6426" width="0.659316" height="0.767947" fill="#1E1E1E"/>
<rect x="23.0918" y="26.7444" width="0.659317" height="0.767947" fill="#1E1E1E"/>
<rect x="24.0098" y="25.6426" width="0.659316" height="0.767947" fill="#1E1E1E"/>
<rect x="24.0098" y="26.7444" width="0.659316" height="0.767947" fill="#1E1E1E"/>
<rect x="25.1836" y="25.6426" width="0.659317" height="0.767947" fill="#1E1E1E"/>
<rect x="25.1836" y="26.7444" width="0.659317" height="0.767947" fill="#1E1E1E"/>
<rect x="26.1016" y="25.6426" width="0.659316" height="0.767947" fill="#1E1E1E"/>
<rect x="26.1016" y="26.7444" width="0.659316" height="0.767947" fill="#1E1E1E"/>
<path d="M21.7452 13.7229C20.61 13.3623 20.3358 14.0735 20.3406 14.4741C19.4577 14.7145 19.2752 15.4424 19.2943 15.7763C19.4806 16.8948 20.8279 16.3773 21.0859 15.8598C22.2325 16.5108 22.6912 15.7373 22.7199 15.3422C23.7662 16.0434 24.7551 15.4424 24.8411 15.2421C25.4489 15.7095 26.1263 15.7039 26.3891 15.6427C27.7651 15.3222 27.7268 13.9065 27.5357 13.2387C26.8248 11.3556 24.1818 11.9199 23.9668 12.9549C22.4074 12.3539 21.836 13.2165 21.7452 13.7229Z" fill="#1E1E1E"/>
</svg>
