<svg width="231" height="346" viewBox="0 0 231 346" fill="none" xmlns="http://www.w3.org/2000/svg">
<rect x="11" y="26" width="220" height="320" fill="#E4E4E4"/>
<path d="M66 26V346" stroke="#373737" stroke-width="6"/>
<rect x="90" y="58" width="117" height="64" fill="#6FBBE6"/>
<path d="M132.153 88.0398C132.044 87.6951 131.896 87.3864 131.71 87.1136C131.528 86.8371 131.311 86.6023 131.057 86.4091C130.803 86.2121 130.513 86.0625 130.188 85.9602C129.866 85.858 129.511 85.8068 129.125 85.8068C128.47 85.8068 127.879 85.9754 127.352 86.3125C126.826 86.6496 126.409 87.1439 126.102 87.7955C125.799 88.4432 125.648 89.2367 125.648 90.1761C125.648 91.1193 125.801 91.9167 126.108 92.5682C126.415 93.2197 126.835 93.714 127.369 94.0511C127.903 94.3883 128.511 94.5568 129.193 94.5568C129.826 94.5568 130.377 94.428 130.847 94.1705C131.32 93.9129 131.686 93.5492 131.943 93.0795C132.205 92.6061 132.335 92.0492 132.335 91.4091L132.79 91.4943H129.46V90.0455H134.034V91.3693C134.034 92.3466 133.826 93.1951 133.409 93.9148C132.996 94.6307 132.424 95.1837 131.693 95.5739C130.966 95.964 130.133 96.1591 129.193 96.1591C128.14 96.1591 127.216 95.9167 126.42 95.4318C125.629 94.947 125.011 94.2595 124.568 93.3693C124.125 92.4754 123.903 91.4148 123.903 90.1875C123.903 89.2595 124.032 88.4261 124.29 87.6875C124.547 86.9489 124.909 86.322 125.375 85.8068C125.845 85.2879 126.396 84.892 127.028 84.6193C127.665 84.3428 128.36 84.2045 129.114 84.2045C129.742 84.2045 130.328 84.2973 130.869 84.483C131.415 84.6686 131.9 84.9318 132.324 85.2727C132.752 85.6136 133.106 86.0189 133.386 86.4886C133.667 86.9545 133.856 87.4716 133.955 88.0398H132.153ZM136.673 96V87.2727H138.372V96H136.673ZM137.531 85.9261C137.236 85.9261 136.982 85.8277 136.77 85.6307C136.562 85.4299 136.457 85.1913 136.457 84.9148C136.457 84.6345 136.562 84.3958 136.77 84.1989C136.982 83.9981 137.236 83.8977 137.531 83.8977C137.827 83.8977 138.079 83.9981 138.287 84.1989C138.499 84.3958 138.605 84.6345 138.605 84.9148C138.605 85.1913 138.499 85.4299 138.287 85.6307C138.079 85.8277 137.827 85.9261 137.531 85.9261ZM144.732 87.2727V88.6364H139.964V87.2727H144.732ZM141.243 85.1818H142.942V93.4375C142.942 93.767 142.991 94.0152 143.089 94.1818C143.188 94.3447 143.315 94.4564 143.47 94.517C143.629 94.5739 143.802 94.6023 143.987 94.6023C144.124 94.6023 144.243 94.5928 144.345 94.5739C144.447 94.5549 144.527 94.5398 144.584 94.5284L144.891 95.9318C144.792 95.9697 144.652 96.0076 144.47 96.0455C144.288 96.0871 144.061 96.1098 143.788 96.1136C143.341 96.1212 142.925 96.0417 142.538 95.875C142.152 95.7083 141.839 95.4508 141.601 95.1023C141.362 94.7538 141.243 94.3163 141.243 93.7898V85.1818ZM150.845 96V87.2727H152.544V96H150.845ZM151.703 85.9261C151.408 85.9261 151.154 85.8277 150.942 85.6307C150.733 85.4299 150.629 85.1913 150.629 84.9148C150.629 84.6345 150.733 84.3958 150.942 84.1989C151.154 83.9981 151.408 83.8977 151.703 83.8977C151.999 83.8977 152.25 83.9981 152.459 84.1989C152.671 84.3958 152.777 84.6345 152.777 84.9148C152.777 85.1913 152.671 85.4299 152.459 85.6307C152.25 85.8277 151.999 85.9261 151.703 85.9261ZM156.528 90.8182V96H154.83V87.2727H156.46V88.6932H156.568C156.769 88.2311 157.083 87.8598 157.511 87.5795C157.943 87.2992 158.487 87.1591 159.142 87.1591C159.737 87.1591 160.258 87.2841 160.705 87.5341C161.152 87.7803 161.498 88.1477 161.744 88.6364C161.991 89.125 162.114 89.7292 162.114 90.4489V96H160.415V90.6534C160.415 90.0208 160.25 89.5265 159.92 89.1705C159.591 88.8106 159.138 88.6307 158.562 88.6307C158.169 88.6307 157.818 88.7159 157.511 88.8864C157.208 89.0568 156.968 89.3068 156.79 89.6364C156.616 89.9621 156.528 90.3561 156.528 90.8182ZM164.392 96V87.2727H166.091V96H164.392ZM165.25 85.9261C164.955 85.9261 164.701 85.8277 164.489 85.6307C164.28 85.4299 164.176 85.1913 164.176 84.9148C164.176 84.6345 164.28 84.3958 164.489 84.1989C164.701 83.9981 164.955 83.8977 165.25 83.8977C165.545 83.8977 165.797 83.9981 166.006 84.1989C166.218 84.3958 166.324 84.6345 166.324 84.9148C166.324 85.1913 166.218 85.4299 166.006 85.6307C165.797 85.8277 165.545 85.9261 165.25 85.9261ZM172.45 87.2727V88.6364H167.683V87.2727H172.45ZM168.962 85.1818H170.661V93.4375C170.661 93.767 170.71 94.0152 170.808 94.1818C170.907 94.3447 171.034 94.4564 171.189 94.517C171.348 94.5739 171.52 94.6023 171.706 94.6023C171.842 94.6023 171.962 94.5928 172.064 94.5739C172.166 94.5549 172.246 94.5398 172.303 94.5284L172.609 95.9318C172.511 95.9697 172.371 96.0076 172.189 96.0455C172.007 96.0871 171.78 96.1098 171.507 96.1136C171.06 96.1212 170.643 96.0417 170.257 95.875C169.871 95.7083 169.558 95.4508 169.32 95.1023C169.081 94.7538 168.962 94.3163 168.962 93.7898V85.1818Z" fill="#1182B3"/>
<rect x="90" y="171" width="117" height="117" fill="#373737"/>
<circle cx="117.375" cy="201.374" r="9.37441" transform="rotate(90 117.375 201.374)" fill="#E21212"/>
<circle cx="117.375" cy="229.498" r="9.37441" transform="rotate(90 117.375 229.498)" fill="#FFB800"/>
<circle cx="117.375" cy="257.621" r="9.37441" transform="rotate(90 117.375 257.621)" fill="#1BC400"/>
<circle cx="180.126" cy="229.689" r="9.37441" transform="rotate(90 180.126 229.689)" fill="#E21212"/>
<circle cx="180.126" cy="257.812" r="9.37441" transform="rotate(90 180.126 257.812)" fill="#FFB800"/>
<circle cx="148.75" cy="229.498" r="9.37441" transform="rotate(-90 148.75 229.498)" fill="#FFB800"/>
<circle cx="148.75" cy="201.374" r="9.37441" transform="rotate(-90 148.75 201.374)" fill="#1BC400"/>
<rect width="66" height="90" rx="10" fill="#FFB800"/>
<rect x="44" width="9" height="90" fill="#373737"/>
</svg>
