<svg width="190" height="130" viewBox="0 0 190 130" fill="none" xmlns="http://www.w3.org/2000/svg">
<path fill-rule="evenodd" clip-rule="evenodd" d="M3.98256 0C1.78305 0 0 1.78305 0 3.98256V122.035C0 126.434 3.56611 130 7.96512 130H182.035C186.434 130 190 126.434 190 122.035V20.0581C190 15.6591 186.434 12.093 182.035 12.093H63.3576C61.1581 12.093 59.375 10.31 59.375 8.11046V3.98256C59.375 1.78305 57.5919 0 55.3924 0H3.98256ZM54.1797 79.3411L79.2216 105.058L135.82 46.9334L125.446 36.2791L79.2216 83.7974L64.5544 69.2753L54.1797 79.3411Z" fill="#6FBBE6"/>
</svg>
