<svg width="323" height="130" viewBox="0 0 323 130" fill="none" xmlns="http://www.w3.org/2000/svg">
<path d="M22.2611 10.8306C16.1142 10.8306 11.1346 15.6812 11.1346 21.6694V108.331C11.1346 114.319 16.1142 119.169 22.2611 119.169H141.003C147.15 119.169 152.13 114.319 152.13 108.331V21.6694C152.13 15.6812 147.15 10.8306 141.003 10.8306H22.2611ZM141.003 0C153.297 0 163.264 9.70125 163.264 21.6694V108.331C163.264 120.299 153.297 130 141.003 130H22.2611C9.96728 130 0 120.299 0 108.331V21.6694C0 9.70125 9.96728 0 22.2611 0H141.003ZM66.6689 90.4556H32.6528C31.9296 90.447 31.2118 90.5805 30.5404 90.8483C29.8691 91.1161 29.2573 91.513 28.7402 92.0164C28.2231 92.5197 27.8108 93.1196 27.5269 93.7817C27.243 94.4438 27.093 95.1551 27.0855 95.875C27.0855 98.865 29.5753 101.294 32.6528 101.294H66.6689C67.3915 101.302 68.1084 101.168 68.7789 100.899C69.4493 100.631 70.06 100.234 70.5763 99.7307C71.0925 99.2275 71.5041 98.628 71.7875 97.9664C72.0709 97.3048 72.2206 96.5942 72.2281 95.875C72.2206 95.1558 72.0709 94.4452 71.7875 93.7836C71.5041 93.122 71.0925 92.5225 70.5763 92.0193C70.06 91.516 69.4493 91.1189 68.7789 90.8506C68.1084 90.5823 67.3915 90.4481 66.6689 90.4556ZM112.244 27.0806C99.8034 27.0806 89.6729 36.7575 89.6729 48.75C89.6729 55.0306 92.4484 60.6775 96.8891 64.6344C88.481 69.5744 82.8729 78.4713 82.8729 88.6356C82.8729 91.5363 83.33 94.3881 84.2198 97.11C85.1586 99.9538 88.2933 101.53 91.2157 100.62C91.9054 100.414 92.5471 100.074 93.1031 99.6188C93.6592 99.1636 94.1187 98.6027 94.4546 97.9688C94.7905 97.335 94.9961 96.6409 95.0595 95.927C95.1229 95.2132 95.0428 94.4939 94.8238 93.8112C94.2782 92.1399 94.0027 90.393 94.0075 88.6356C94.0075 79.0888 102.146 71.305 112.244 71.305C122.342 71.305 130.489 79.0888 130.489 88.6356C130.489 90.0413 130.317 91.4144 129.975 92.7469C129.803 93.4433 129.771 94.1668 129.883 94.8754C129.994 95.5839 130.246 96.2634 130.623 96.8742C131.001 97.4851 131.496 98.0152 132.082 98.4336C132.667 98.8521 133.33 99.1506 134.032 99.3119C135.451 99.6664 136.954 99.451 138.216 98.7122C139.477 97.9734 140.396 96.7705 140.775 95.3631C141.338 93.1694 141.615 90.9188 141.615 88.6356C141.615 78.4713 136.007 69.5744 127.599 64.6181C132.04 60.6775 134.815 55.0306 134.815 48.75C134.815 36.7575 124.693 27.0806 112.244 27.0806ZM66.6689 62.0181H32.6528C31.9296 62.0095 31.2118 62.143 30.5404 62.4108C29.8691 62.6786 29.2573 63.0755 28.7402 63.5789C28.2231 64.0822 27.8108 64.6821 27.5269 65.3442C27.243 66.0063 27.093 66.7176 27.0855 67.4375C27.0855 70.4275 29.5753 72.8569 32.6528 72.8569H66.6689C67.3915 72.8644 68.1084 72.7302 68.7789 72.4619C69.4493 72.1936 70.06 71.7965 70.5763 71.2932C71.0925 70.79 71.5041 70.1905 71.7875 69.5289C72.0709 68.8673 72.2206 68.1567 72.2281 67.4375C72.2206 66.7183 72.0709 66.0077 71.7875 65.3461C71.5041 64.6845 71.0925 64.085 70.5763 63.5818C70.06 63.0785 69.4493 62.6814 68.7789 62.4131C68.1084 62.1448 67.3915 62.0106 66.6689 62.0181ZM112.244 37.9194C118.587 37.9194 123.689 42.7944 123.689 48.75C123.689 54.7137 118.587 59.5806 112.244 59.5806C105.901 59.5806 100.799 54.7056 100.799 48.75C100.799 42.7863 105.901 37.9194 112.244 37.9194ZM66.6689 33.5806H32.6528C31.9296 33.572 31.2118 33.7055 30.5404 33.9733C29.8691 34.2411 29.2573 34.638 28.7402 35.1414C28.2231 35.6447 27.8108 36.2446 27.5269 36.9067C27.243 37.5688 27.093 38.2801 27.0855 39C27.0855 41.99 29.5753 44.4194 32.6528 44.4194H66.6689C67.3915 44.4269 68.1084 44.2927 68.7789 44.0244C69.4493 43.7561 70.06 43.359 70.5763 42.8557C71.0925 42.3525 71.5041 41.753 71.7875 41.0914C72.0709 40.4298 72.2206 39.7192 72.2281 39C72.2206 38.2808 72.0709 37.5702 71.7875 36.9086C71.5041 36.247 71.0925 35.6475 70.5763 35.1443C70.06 34.641 69.4493 34.2439 68.7789 33.9756C68.1084 33.7073 67.3915 33.5731 66.6689 33.5806Z" fill="#EB6C54"/>
<path d="M224.246 118.3L180.552 74.811L198.654 57.7891L224.246 82.3469L304.898 1.99066L323 20.0078L224.246 118.3Z" fill="#1BC400"/>
</svg>
