<svg width="280" height="440" viewBox="0 0 280 440" fill="none" xmlns="http://www.w3.org/2000/svg">
<rect width="280" height="440" rx="5" fill="#1182B3"/>
<path d="M5 55H275V430C275 432.761 272.761 435 270 435H10C7.23857 435 5 432.761 5 430V55Z" fill="white"/>
<rect x="97" y="21" width="86" height="12" rx="6" fill="#2C2925" fill-opacity="0.9"/>
<circle cx="140" cy="171" r="93" fill="#8F8F8F"/>
<path fill-rule="evenodd" clip-rule="evenodd" d="M61.4775 220.854C61.4998 220.817 61.5221 220.781 61.5445 220.744C64.574 215.82 68.5926 212.057 73.6002 209.456C84.3211 204.096 95.2148 200.077 106.281 197.4C117.348 194.724 128.588 193.382 140 193.375C151.413 193.368 162.652 194.71 173.719 197.4C184.786 200.091 195.679 204.11 206.4 209.456C211.415 212.05 215.437 215.813 218.466 220.744C218.487 220.778 218.508 220.812 218.528 220.845C202.027 246.788 173.024 264 140 264C106.98 264 77.9798 246.791 61.4775 220.854ZM110.691 170.809C118.818 178.936 128.588 183 140 183C151.413 183 161.183 178.936 169.31 170.809C177.437 162.682 181.5 152.912 181.5 141.5C181.5 130.087 177.437 120.318 169.31 112.191C161.183 104.064 151.413 100 140 100C128.588 100 118.818 104.064 110.691 112.191C102.564 120.318 98.5002 130.087 98.5002 141.5C98.5002 152.912 102.564 162.682 110.691 170.809Z" fill="#79716F"/>
<path d="M52.7386 291.364H54.8295V299.545C54.8258 300.295 54.6667 300.941 54.3523 301.483C54.0379 302.021 53.5985 302.436 53.0341 302.727C52.4735 303.015 51.8201 303.159 51.0739 303.159C50.392 303.159 49.7784 303.038 49.233 302.795C48.6913 302.549 48.2614 302.186 47.9432 301.705C47.625 301.223 47.4659 300.625 47.4659 299.909H49.5625C49.5663 300.223 49.6345 300.494 49.767 300.722C49.9034 300.949 50.0909 301.123 50.3295 301.244C50.5682 301.366 50.8428 301.426 51.1534 301.426C51.4905 301.426 51.7765 301.356 52.0114 301.216C52.2462 301.072 52.4242 300.86 52.5455 300.58C52.6705 300.299 52.7348 299.955 52.7386 299.545V291.364ZM60.8324 303.17C59.9801 303.17 59.2415 302.983 58.6165 302.608C57.9915 302.233 57.5066 301.708 57.1619 301.034C56.821 300.36 56.6506 299.572 56.6506 298.67C56.6506 297.769 56.821 296.979 57.1619 296.301C57.5066 295.623 57.9915 295.097 58.6165 294.722C59.2415 294.347 59.9801 294.159 60.8324 294.159C61.6847 294.159 62.4233 294.347 63.0483 294.722C63.6733 295.097 64.1563 295.623 64.4972 296.301C64.8419 296.979 65.0142 297.769 65.0142 298.67C65.0142 299.572 64.8419 300.36 64.4972 301.034C64.1563 301.708 63.6733 302.233 63.0483 302.608C62.4233 302.983 61.6847 303.17 60.8324 303.17ZM60.8438 301.523C61.3059 301.523 61.6922 301.396 62.0028 301.142C62.3134 300.884 62.5445 300.54 62.696 300.108C62.8513 299.676 62.929 299.195 62.929 298.665C62.929 298.131 62.8513 297.648 62.696 297.216C62.5445 296.78 62.3134 296.434 62.0028 296.176C61.6922 295.919 61.3059 295.79 60.8438 295.79C60.3703 295.79 59.9763 295.919 59.6619 296.176C59.3513 296.434 59.1184 296.78 58.9631 297.216C58.8116 297.648 58.7358 298.131 58.7358 298.665C58.7358 299.195 58.8116 299.676 58.9631 300.108C59.1184 300.54 59.3513 300.884 59.6619 301.142C59.9763 301.396 60.3703 301.523 60.8438 301.523ZM69.2713 303.176C68.7183 303.176 68.2202 303.078 67.777 302.881C67.3376 302.68 66.9891 302.384 66.7315 301.994C66.4777 301.604 66.3509 301.123 66.3509 300.551C66.3509 300.059 66.4418 299.652 66.6236 299.33C66.8054 299.008 67.0535 298.75 67.3679 298.557C67.6823 298.364 68.0365 298.218 68.4304 298.119C68.8281 298.017 69.2391 297.943 69.6634 297.898C70.1747 297.845 70.5895 297.797 70.9077 297.756C71.2259 297.71 71.4569 297.642 71.6009 297.551C71.7486 297.456 71.8224 297.311 71.8224 297.114V297.08C71.8224 296.652 71.6955 296.32 71.4418 296.085C71.188 295.85 70.8224 295.733 70.3452 295.733C69.8414 295.733 69.4418 295.843 69.1463 296.062C68.8546 296.282 68.6577 296.542 68.5554 296.841L66.6349 296.568C66.7865 296.038 67.0365 295.595 67.3849 295.239C67.7334 294.879 68.1596 294.61 68.6634 294.432C69.1671 294.25 69.724 294.159 70.3338 294.159C70.7543 294.159 71.1728 294.208 71.5895 294.307C72.0062 294.405 72.3868 294.568 72.7315 294.795C73.0762 295.019 73.3527 295.324 73.5611 295.71C73.7732 296.097 73.8793 296.58 73.8793 297.159V303H71.902V301.801H71.8338C71.7088 302.044 71.5327 302.271 71.3054 302.483C71.0819 302.691 70.7997 302.86 70.4588 302.989C70.1217 303.114 69.7259 303.176 69.2713 303.176ZM69.8054 301.665C70.2183 301.665 70.5762 301.583 70.8793 301.42C71.1823 301.254 71.4152 301.034 71.5781 300.761C71.7448 300.489 71.8281 300.191 71.8281 299.869V298.841C71.7637 298.894 71.6539 298.943 71.4986 298.989C71.3471 299.034 71.1766 299.074 70.9872 299.108C70.7978 299.142 70.6103 299.172 70.4247 299.199C70.2391 299.225 70.0781 299.248 69.9418 299.267C69.6349 299.309 69.3603 299.377 69.1179 299.472C68.8755 299.566 68.6842 299.699 68.544 299.869C68.4039 300.036 68.3338 300.252 68.3338 300.517C68.3338 300.896 68.4721 301.182 68.7486 301.375C69.0251 301.568 69.3774 301.665 69.8054 301.665ZM68.7543 293.21L67.5099 293.182C67.5099 292.508 67.6842 291.979 68.0327 291.597C68.3812 291.214 68.8111 291.023 69.3224 291.023C69.5687 291.023 69.7827 291.064 69.9645 291.148C70.1463 291.227 70.313 291.32 70.4645 291.426C70.6198 291.532 70.7713 291.627 70.919 291.71C71.0668 291.79 71.2296 291.83 71.4077 291.83C71.6236 291.83 71.794 291.748 71.919 291.585C72.0478 291.422 72.1141 291.214 72.1179 290.96L73.3395 291.011C73.3357 291.689 73.1596 292.216 72.8111 292.591C72.4626 292.962 72.0346 293.15 71.527 293.153C71.2543 293.157 71.0251 293.117 70.8395 293.034C70.6539 292.951 70.491 292.856 70.3509 292.75C70.2145 292.644 70.0762 292.551 69.9361 292.472C69.7959 292.388 69.6312 292.347 69.4418 292.347C69.241 292.347 69.0762 292.426 68.9474 292.585C68.8187 292.744 68.7543 292.953 68.7543 293.21ZM79.7543 303.17C78.902 303.17 78.1634 302.983 77.5384 302.608C76.9134 302.233 76.4285 301.708 76.0838 301.034C75.7429 300.36 75.5724 299.572 75.5724 298.67C75.5724 297.769 75.7429 296.979 76.0838 296.301C76.4285 295.623 76.9134 295.097 77.5384 294.722C78.1634 294.347 78.902 294.159 79.7543 294.159C80.6065 294.159 81.3452 294.347 81.9702 294.722C82.5952 295.097 83.0781 295.623 83.419 296.301C83.7637 296.979 83.9361 297.769 83.9361 298.67C83.9361 299.572 83.7637 300.36 83.419 301.034C83.0781 301.708 82.5952 302.233 81.9702 302.608C81.3452 302.983 80.6065 303.17 79.7543 303.17ZM79.7656 301.523C80.2277 301.523 80.6141 301.396 80.9247 301.142C81.2353 300.884 81.4664 300.54 81.6179 300.108C81.7732 299.676 81.8509 299.195 81.8509 298.665C81.8509 298.131 81.7732 297.648 81.6179 297.216C81.4664 296.78 81.2353 296.434 80.9247 296.176C80.6141 295.919 80.2277 295.79 79.7656 295.79C79.2921 295.79 78.8982 295.919 78.5838 296.176C78.2732 296.434 78.0402 296.78 77.8849 297.216C77.7334 297.648 77.6577 298.131 77.6577 298.665C77.6577 299.195 77.7334 299.676 77.8849 300.108C78.0402 300.54 78.2732 300.884 78.5838 301.142C78.8982 301.396 79.2921 301.523 79.7656 301.523ZM91.2983 291.364L94.3267 300.523H94.446L97.4688 291.364H99.7869L95.6847 303H93.0824L88.9858 291.364H91.2983ZM101.229 303V294.273H103.286V303H101.229ZM102.263 293.034C101.937 293.034 101.657 292.926 101.422 292.71C101.187 292.491 101.07 292.227 101.07 291.92C101.07 291.61 101.187 291.347 101.422 291.131C101.657 290.911 101.937 290.801 102.263 290.801C102.592 290.801 102.873 290.911 103.104 291.131C103.339 291.347 103.456 291.61 103.456 291.92C103.456 292.227 103.339 292.491 103.104 292.71C102.873 292.926 102.592 293.034 102.263 293.034ZM109.207 303.17C108.336 303.17 107.588 302.979 106.963 302.597C106.342 302.214 105.863 301.686 105.526 301.011C105.192 300.333 105.026 299.553 105.026 298.67C105.026 297.784 105.196 297.002 105.537 296.324C105.878 295.642 106.359 295.112 106.98 294.733C107.605 294.35 108.344 294.159 109.196 294.159C109.904 294.159 110.531 294.29 111.077 294.551C111.626 294.809 112.063 295.174 112.389 295.648C112.715 296.117 112.901 296.667 112.946 297.295H110.98C110.901 296.875 110.711 296.525 110.412 296.244C110.116 295.96 109.721 295.818 109.224 295.818C108.804 295.818 108.435 295.932 108.116 296.159C107.798 296.383 107.55 296.705 107.372 297.125C107.198 297.545 107.111 298.049 107.111 298.636C107.111 299.231 107.198 299.742 107.372 300.17C107.546 300.595 107.791 300.922 108.105 301.153C108.423 301.381 108.796 301.494 109.224 301.494C109.527 301.494 109.798 301.437 110.037 301.324C110.279 301.206 110.482 301.038 110.645 300.818C110.808 300.598 110.92 300.331 110.98 300.017H112.946C112.897 300.634 112.715 301.182 112.401 301.659C112.086 302.133 111.658 302.504 111.116 302.773C110.575 303.038 109.938 303.17 109.207 303.17ZM118.993 294.273V295.864H113.976V294.273H118.993ZM115.214 292.182H117.271V300.375C117.271 300.652 117.313 300.864 117.396 301.011C117.483 301.155 117.597 301.254 117.737 301.307C117.877 301.36 118.033 301.386 118.203 301.386C118.332 301.386 118.449 301.377 118.555 301.358C118.665 301.339 118.749 301.322 118.805 301.307L119.152 302.915C119.042 302.953 118.885 302.994 118.68 303.04C118.48 303.085 118.233 303.112 117.942 303.119C117.427 303.134 116.963 303.057 116.55 302.886C116.137 302.712 115.809 302.443 115.567 302.08C115.328 301.716 115.211 301.261 115.214 300.716V292.182ZM124.426 303.17C123.574 303.17 122.835 302.983 122.21 302.608C121.585 302.233 121.1 301.708 120.756 301.034C120.415 300.36 120.244 299.572 120.244 298.67C120.244 297.769 120.415 296.979 120.756 296.301C121.1 295.623 121.585 295.097 122.21 294.722C122.835 294.347 123.574 294.159 124.426 294.159C125.278 294.159 126.017 294.347 126.642 294.722C127.267 295.097 127.75 295.623 128.091 296.301C128.436 296.979 128.608 297.769 128.608 298.67C128.608 299.572 128.436 300.36 128.091 301.034C127.75 301.708 127.267 302.233 126.642 302.608C126.017 302.983 125.278 303.17 124.426 303.17ZM124.438 301.523C124.9 301.523 125.286 301.396 125.597 301.142C125.907 300.884 126.138 300.54 126.29 300.108C126.445 299.676 126.523 299.195 126.523 298.665C126.523 298.131 126.445 297.648 126.29 297.216C126.138 296.78 125.907 296.434 125.597 296.176C125.286 295.919 124.9 295.79 124.438 295.79C123.964 295.79 123.57 295.919 123.256 296.176C122.945 296.434 122.712 296.78 122.557 297.216C122.405 297.648 122.33 298.131 122.33 298.665C122.33 299.195 122.405 299.676 122.557 300.108C122.712 300.54 122.945 300.884 123.256 301.142C123.57 301.396 123.964 301.523 124.438 301.523ZM130.354 303V294.273H132.348V295.727H132.439C132.598 295.223 132.871 294.835 133.257 294.562C133.647 294.286 134.092 294.148 134.592 294.148C134.706 294.148 134.833 294.153 134.973 294.165C135.117 294.172 135.236 294.186 135.331 294.205V296.097C135.244 296.066 135.106 296.04 134.916 296.017C134.731 295.991 134.551 295.977 134.376 295.977C134.001 295.977 133.664 296.059 133.365 296.222C133.07 296.381 132.837 296.602 132.666 296.886C132.496 297.17 132.411 297.498 132.411 297.869V303H130.354ZM144.7 303H140.757V291.364H144.78C145.935 291.364 146.928 291.597 147.757 292.062C148.59 292.525 149.231 293.189 149.678 294.057C150.125 294.924 150.348 295.962 150.348 297.17C150.348 298.383 150.123 299.424 149.672 300.295C149.225 301.167 148.579 301.835 147.734 302.301C146.893 302.767 145.882 303 144.7 303ZM142.865 301.176H144.598C145.409 301.176 146.085 301.028 146.626 300.733C147.168 300.434 147.575 299.989 147.848 299.398C148.121 298.803 148.257 298.061 148.257 297.17C148.257 296.28 148.121 295.542 147.848 294.955C147.575 294.364 147.172 293.922 146.638 293.631C146.107 293.335 145.448 293.188 144.661 293.188H142.865V301.176ZM152.26 303V294.273H154.317V303H152.26ZM153.294 293.034C152.968 293.034 152.688 292.926 152.453 292.71C152.218 292.491 152.101 292.227 152.101 291.92C152.101 291.61 152.218 291.347 152.453 291.131C152.688 290.911 152.968 290.801 153.294 290.801C153.624 290.801 153.904 290.911 154.135 291.131C154.37 291.347 154.487 291.61 154.487 291.92C154.487 292.227 154.37 292.491 154.135 292.71C153.904 292.926 153.624 293.034 153.294 293.034ZM158.489 297.886V303H156.432V294.273H158.398V295.756H158.5C158.701 295.267 159.021 294.879 159.46 294.591C159.903 294.303 160.451 294.159 161.102 294.159C161.705 294.159 162.229 294.288 162.676 294.545C163.127 294.803 163.475 295.176 163.722 295.665C163.972 296.153 164.095 296.746 164.091 297.443V303H162.034V297.761C162.034 297.178 161.883 296.722 161.58 296.392C161.28 296.062 160.866 295.898 160.335 295.898C159.975 295.898 159.655 295.977 159.375 296.136C159.098 296.292 158.881 296.517 158.722 296.812C158.566 297.108 158.489 297.466 158.489 297.886ZM166.182 303V294.273H168.239V303H166.182ZM167.216 293.034C166.89 293.034 166.61 292.926 166.375 292.71C166.14 292.491 166.023 292.227 166.023 291.92C166.023 291.61 166.14 291.347 166.375 291.131C166.61 290.911 166.89 290.801 167.216 290.801C167.545 290.801 167.826 290.911 168.057 291.131C168.292 291.347 168.409 291.61 168.409 291.92C168.409 292.227 168.292 292.491 168.057 292.71C167.826 292.926 167.545 293.034 167.216 293.034ZM170.24 303V301.693L174.74 296.051V295.977H170.388V294.273H177.257V295.676L172.973 301.222V301.295H177.405V303H170.24ZM184.892 303H182.642L186.739 291.364H189.341L193.443 303H191.193L188.085 293.75H187.994L184.892 303ZM184.966 298.438H191.102V300.131H184.966V298.438ZM194.885 303V294.273H196.879V295.727H196.97C197.129 295.223 197.402 294.835 197.788 294.562C198.179 294.286 198.624 294.148 199.124 294.148C199.237 294.148 199.364 294.153 199.504 294.165C199.648 294.172 199.768 294.186 199.862 294.205V296.097C199.775 296.066 199.637 296.04 199.447 296.017C199.262 295.991 199.082 295.977 198.908 295.977C198.533 295.977 198.196 296.059 197.896 296.222C197.601 296.381 197.368 296.602 197.197 296.886C197.027 297.17 196.942 297.498 196.942 297.869V303H194.885ZM203.584 303.176C203.031 303.176 202.533 303.078 202.089 302.881C201.65 302.68 201.302 302.384 201.044 301.994C200.79 301.604 200.663 301.123 200.663 300.551C200.663 300.059 200.754 299.652 200.936 299.33C201.118 299.008 201.366 298.75 201.68 298.557C201.995 298.364 202.349 298.218 202.743 298.119C203.141 298.017 203.552 297.943 203.976 297.898C204.487 297.845 204.902 297.797 205.22 297.756C205.538 297.71 205.769 297.642 205.913 297.551C206.061 297.456 206.135 297.311 206.135 297.114V297.08C206.135 296.652 206.008 296.32 205.754 296.085C205.5 295.85 205.135 295.733 204.658 295.733C204.154 295.733 203.754 295.843 203.459 296.062C203.167 296.282 202.97 296.542 202.868 296.841L200.947 296.568C201.099 296.038 201.349 295.595 201.697 295.239C202.046 294.879 202.472 294.61 202.976 294.432C203.48 294.25 204.036 294.159 204.646 294.159C205.067 294.159 205.485 294.208 205.902 294.307C206.319 294.405 206.699 294.568 207.044 294.795C207.389 295.019 207.665 295.324 207.874 295.71C208.086 296.097 208.192 296.58 208.192 297.159V303H206.214V301.801H206.146C206.021 302.044 205.845 302.271 205.618 302.483C205.394 302.691 205.112 302.86 204.771 302.989C204.434 303.114 204.038 303.176 203.584 303.176ZM204.118 301.665C204.531 301.665 204.889 301.583 205.192 301.42C205.495 301.254 205.728 301.034 205.891 300.761C206.057 300.489 206.141 300.191 206.141 299.869V298.841C206.076 298.894 205.966 298.943 205.811 298.989C205.66 299.034 205.489 299.074 205.3 299.108C205.11 299.142 204.923 299.172 204.737 299.199C204.552 299.225 204.391 299.248 204.254 299.267C203.947 299.309 203.673 299.377 203.43 299.472C203.188 299.566 202.997 299.699 202.857 299.869C202.716 300.036 202.646 300.252 202.646 300.517C202.646 300.896 202.785 301.182 203.061 301.375C203.338 301.568 203.69 301.665 204.118 301.665ZM215.822 299.33V294.273H217.879V303H215.885V301.449H215.794C215.597 301.937 215.273 302.337 214.822 302.648C214.375 302.958 213.824 303.114 213.169 303.114C212.597 303.114 212.091 302.987 211.652 302.733C211.216 302.475 210.875 302.102 210.629 301.614C210.383 301.121 210.26 300.527 210.26 299.83V294.273H212.317V299.511C212.317 300.064 212.468 300.504 212.771 300.83C213.074 301.155 213.472 301.318 213.964 301.318C214.268 301.318 214.561 301.244 214.845 301.097C215.129 300.949 215.362 300.729 215.544 300.438C215.73 300.142 215.822 299.773 215.822 299.33ZM213.294 293.125L214.567 290.528H216.578L214.834 293.125H213.294ZM219.994 294.273H222.051V303.5C222.051 304.129 221.932 304.648 221.693 305.057C221.455 305.466 221.11 305.771 220.659 305.972C220.208 306.172 219.661 306.273 219.017 306.273C218.941 306.273 218.871 306.271 218.807 306.267C218.742 306.267 218.672 306.265 218.597 306.261V304.585C218.653 304.589 218.705 304.591 218.75 304.591C218.795 304.595 218.843 304.597 218.892 304.597C219.286 304.597 219.568 304.5 219.739 304.307C219.909 304.117 219.994 303.839 219.994 303.472V294.273ZM221.017 293.034C220.688 293.034 220.405 292.926 220.17 292.71C219.939 292.491 219.824 292.227 219.824 291.92C219.824 291.61 219.939 291.347 220.17 291.131C220.405 290.911 220.688 290.801 221.017 290.801C221.343 290.801 221.621 290.911 221.852 291.131C222.087 291.347 222.205 291.61 222.205 291.92C222.205 292.227 222.087 292.491 221.852 292.71C221.621 292.926 221.343 293.034 221.017 293.034ZM227.973 303.17C227.121 303.17 226.382 302.983 225.757 302.608C225.132 302.233 224.647 301.708 224.303 301.034C223.962 300.36 223.791 299.572 223.791 298.67C223.791 297.769 223.962 296.979 224.303 296.301C224.647 295.623 225.132 295.097 225.757 294.722C226.382 294.347 227.121 294.159 227.973 294.159C228.825 294.159 229.564 294.347 230.189 294.722C230.814 295.097 231.297 295.623 231.638 296.301C231.982 296.979 232.155 297.769 232.155 298.67C232.155 299.572 231.982 300.36 231.638 301.034C231.297 301.708 230.814 302.233 230.189 302.608C229.564 302.983 228.825 303.17 227.973 303.17ZM227.984 301.523C228.446 301.523 228.833 301.396 229.143 301.142C229.454 300.884 229.685 300.54 229.837 300.108C229.992 299.676 230.07 299.195 230.07 298.665C230.07 298.131 229.992 297.648 229.837 297.216C229.685 296.78 229.454 296.434 229.143 296.176C228.833 295.919 228.446 295.79 227.984 295.79C227.511 295.79 227.117 295.919 226.803 296.176C226.492 296.434 226.259 296.78 226.104 297.216C225.952 297.648 225.876 298.131 225.876 298.665C225.876 299.195 225.952 299.676 226.104 300.108C226.259 300.54 226.492 300.884 226.803 301.142C227.117 301.396 227.511 301.523 227.984 301.523Z" fill="#252525"/>
<path d="M69.0568 350.273H71.1136V359.5C71.1136 360.129 70.9943 360.648 70.7557 361.057C70.517 361.466 70.1723 361.771 69.7216 361.972C69.2708 362.172 68.7235 362.273 68.0795 362.273C68.0038 362.273 67.9337 362.271 67.8693 362.267C67.8049 362.267 67.7348 362.265 67.6591 362.261V360.585C67.7159 360.589 67.767 360.591 67.8125 360.591C67.858 360.595 67.9053 360.597 67.9545 360.597C68.3485 360.597 68.6307 360.5 68.8011 360.307C68.9716 360.117 69.0568 359.839 69.0568 359.472V350.273ZM70.0795 349.034C69.75 349.034 69.4678 348.926 69.233 348.71C69.0019 348.491 68.8864 348.227 68.8864 347.92C68.8864 347.61 69.0019 347.347 69.233 347.131C69.4678 346.911 69.75 346.801 70.0795 346.801C70.4053 346.801 70.6837 346.911 70.9148 347.131C71.1496 347.347 71.267 347.61 71.267 347.92C71.267 348.227 71.1496 348.491 70.9148 348.71C70.6837 348.926 70.4053 349.034 70.0795 349.034ZM81.0241 350.273L77.9162 359H75.6435L72.5355 350.273H74.7287L76.7344 356.756H76.8253L78.8366 350.273H81.0241ZM85.3892 359.153C84.7036 359.153 84.09 358.977 83.5483 358.625C83.0066 358.273 82.5786 357.761 82.2642 357.091C81.9498 356.42 81.7926 355.606 81.7926 354.648C81.7926 353.678 81.9517 352.86 82.2699 352.193C82.5919 351.523 83.0256 351.017 83.571 350.676C84.1165 350.331 84.7244 350.159 85.3949 350.159C85.9063 350.159 86.3267 350.246 86.6562 350.42C86.9858 350.591 87.2472 350.797 87.4403 351.04C87.6335 351.278 87.7831 351.504 87.8892 351.716H87.9744V347.364H90.0369V359H88.0142V357.625H87.8892C87.7831 357.837 87.6297 358.062 87.429 358.301C87.2282 358.536 86.9631 358.737 86.6335 358.903C86.304 359.07 85.8892 359.153 85.3892 359.153ZM85.9631 357.466C86.3987 357.466 86.7699 357.348 87.0767 357.114C87.3835 356.875 87.6165 356.544 87.7756 356.119C87.9347 355.695 88.0142 355.201 88.0142 354.636C88.0142 354.072 87.9347 353.581 87.7756 353.165C87.6203 352.748 87.3892 352.424 87.0824 352.193C86.7794 351.962 86.4063 351.847 85.9631 351.847C85.5047 351.847 85.1222 351.966 84.8153 352.205C84.5085 352.443 84.2775 352.773 84.1222 353.193C83.9669 353.614 83.8892 354.095 83.8892 354.636C83.8892 355.182 83.9669 355.669 84.1222 356.097C84.2813 356.521 84.5142 356.856 84.821 357.102C85.1316 357.345 85.5123 357.466 85.9631 357.466ZM92.2287 359V350.273H94.2855V359H92.2287ZM93.2628 349.034C92.937 349.034 92.6567 348.926 92.4219 348.71C92.187 348.491 92.0696 348.227 92.0696 347.92C92.0696 347.61 92.187 347.347 92.4219 347.131C92.6567 346.911 92.937 346.801 93.2628 346.801C93.5923 346.801 93.8726 346.911 94.1037 347.131C94.3385 347.347 94.456 347.61 94.456 347.92C94.456 348.227 94.3385 348.491 94.1037 348.71C93.8726 348.926 93.5923 349.034 93.2628 349.034ZM98.4574 353.886V359H96.4006V350.273H98.3665V351.756H98.4688C98.6695 351.267 98.9896 350.879 99.429 350.591C99.8722 350.303 100.42 350.159 101.071 350.159C101.673 350.159 102.198 350.288 102.645 350.545C103.096 350.803 103.444 351.176 103.69 351.665C103.94 352.153 104.063 352.746 104.06 353.443V359H102.003V353.761C102.003 353.178 101.851 352.722 101.548 352.392C101.249 352.062 100.834 351.898 100.304 351.898C99.9441 351.898 99.6241 351.977 99.3438 352.136C99.0672 352.292 98.8494 352.517 98.6903 352.812C98.535 353.108 98.4574 353.466 98.4574 353.886ZM106.151 359V350.273H108.207V359H106.151ZM107.185 349.034C106.859 349.034 106.579 348.926 106.344 348.71C106.109 348.491 105.991 348.227 105.991 347.92C105.991 347.61 106.109 347.347 106.344 347.131C106.579 346.911 106.859 346.801 107.185 346.801C107.514 346.801 107.795 346.911 108.026 347.131C108.26 347.347 108.378 347.61 108.378 347.92C108.378 348.227 108.26 348.491 108.026 348.71C107.795 348.926 107.514 349.034 107.185 349.034ZM110.209 359V357.693L114.709 352.051V351.977H110.357V350.273H117.226V351.676L112.942 357.222V357.295H117.374V359H110.209ZM126.619 362.261C125.426 362.261 124.366 362.098 123.438 361.773C122.513 361.451 121.733 360.975 121.097 360.347C120.46 359.722 119.977 358.958 119.648 358.057C119.318 357.155 119.152 356.125 119.148 354.966C119.152 353.833 119.32 352.812 119.653 351.903C119.987 350.991 120.473 350.21 121.114 349.562C121.754 348.911 122.536 348.411 123.46 348.062C124.384 347.714 125.436 347.54 126.614 347.54C127.723 347.54 128.706 347.708 129.562 348.045C130.422 348.383 131.148 348.852 131.739 349.455C132.333 350.053 132.782 350.754 133.085 351.557C133.392 352.356 133.545 353.223 133.545 354.159C133.545 354.807 133.496 355.42 133.398 356C133.299 356.576 133.131 357.087 132.892 357.534C132.657 357.981 132.337 358.337 131.932 358.602C131.527 358.864 131.019 359.006 130.409 359.028C130.027 359.047 129.691 359.011 129.403 358.92C129.116 358.83 128.883 358.688 128.705 358.494C128.53 358.297 128.42 358.057 128.375 357.773H128.307C128.22 358 128.055 358.208 127.812 358.398C127.574 358.583 127.278 358.729 126.926 358.835C126.574 358.937 126.182 358.979 125.75 358.96C125.288 358.937 124.86 358.831 124.466 358.642C124.076 358.449 123.735 358.18 123.443 357.835C123.155 357.487 122.932 357.066 122.773 356.574C122.614 356.081 122.534 355.523 122.534 354.898C122.534 354.288 122.621 353.75 122.795 353.284C122.97 352.818 123.203 352.42 123.494 352.091C123.79 351.761 124.123 351.504 124.494 351.318C124.866 351.129 125.248 351.008 125.642 350.955C126.051 350.898 126.436 350.903 126.795 350.972C127.155 351.04 127.455 351.144 127.693 351.284C127.936 351.424 128.087 351.578 128.148 351.744H128.227V351.108H129.812V356.517C129.816 356.801 129.884 357.03 130.017 357.205C130.153 357.379 130.343 357.466 130.585 357.466C130.888 357.466 131.133 357.347 131.318 357.108C131.508 356.866 131.644 356.494 131.727 355.994C131.814 355.491 131.856 354.847 131.852 354.062C131.856 353.419 131.771 352.835 131.597 352.312C131.426 351.786 131.184 351.324 130.869 350.926C130.555 350.528 130.178 350.197 129.739 349.932C129.303 349.663 128.818 349.46 128.284 349.324C127.75 349.187 127.18 349.119 126.574 349.119C125.646 349.119 124.83 349.261 124.125 349.545C123.42 349.826 122.83 350.225 122.352 350.744C121.879 351.263 121.521 351.879 121.278 352.591C121.04 353.299 120.92 354.083 120.92 354.943C120.92 355.864 121.045 356.68 121.295 357.392C121.549 358.1 121.92 358.697 122.409 359.182C122.898 359.667 123.502 360.034 124.222 360.284C124.945 360.534 125.777 360.659 126.716 360.659C127.148 360.659 127.57 360.625 127.983 360.557C128.396 360.489 128.767 360.409 129.097 360.318C129.426 360.227 129.68 360.148 129.858 360.08L130.341 361.523C130.106 361.644 129.788 361.761 129.386 361.875C128.989 361.989 128.549 362.081 128.068 362.153C127.591 362.225 127.108 362.261 126.619 362.261ZM126.222 357.33C126.703 357.33 127.087 357.237 127.375 357.051C127.663 356.862 127.869 356.581 127.994 356.21C128.119 355.839 128.18 355.377 128.176 354.824C128.176 354.309 128.112 353.886 127.983 353.557C127.854 353.227 127.648 352.983 127.364 352.824C127.08 352.665 126.703 352.585 126.233 352.585C125.809 352.585 125.447 352.682 125.148 352.875C124.852 353.068 124.625 353.335 124.466 353.676C124.311 354.013 124.233 354.398 124.233 354.83C124.233 355.261 124.295 355.669 124.42 356.051C124.549 356.43 124.758 356.739 125.045 356.977C125.337 357.212 125.729 357.33 126.222 357.33ZM139.155 359.17C138.28 359.17 137.524 358.989 136.888 358.625C136.255 358.258 135.768 357.739 135.428 357.068C135.087 356.394 134.916 355.6 134.916 354.688C134.916 353.79 135.087 353.002 135.428 352.324C135.772 351.642 136.253 351.112 136.871 350.733C137.488 350.35 138.214 350.159 139.047 350.159C139.585 350.159 140.092 350.246 140.57 350.42C141.051 350.591 141.475 350.856 141.842 351.216C142.214 351.576 142.505 352.034 142.717 352.591C142.929 353.144 143.036 353.803 143.036 354.568V355.199H135.882V353.812H141.064C141.06 353.419 140.975 353.068 140.808 352.761C140.642 352.451 140.409 352.206 140.109 352.028C139.814 351.85 139.469 351.761 139.075 351.761C138.655 351.761 138.286 351.864 137.967 352.068C137.649 352.269 137.401 352.534 137.223 352.864C137.049 353.189 136.96 353.547 136.956 353.938V355.148C136.956 355.655 137.049 356.091 137.234 356.455C137.42 356.814 137.679 357.091 138.013 357.284C138.346 357.473 138.736 357.568 139.183 357.568C139.482 357.568 139.753 357.527 139.996 357.443C140.238 357.356 140.448 357.229 140.626 357.062C140.804 356.896 140.939 356.689 141.03 356.443L142.95 356.659C142.829 357.167 142.598 357.61 142.257 357.989C141.92 358.364 141.488 358.655 140.962 358.864C140.435 359.068 139.833 359.17 139.155 359.17ZM144.776 359V350.273H146.741V351.756H146.844C147.026 351.256 147.327 350.866 147.747 350.585C148.168 350.301 148.67 350.159 149.253 350.159C149.844 350.159 150.342 350.303 150.747 350.591C151.156 350.875 151.444 351.263 151.611 351.756H151.702C151.895 351.271 152.221 350.884 152.679 350.597C153.141 350.305 153.688 350.159 154.321 350.159C155.124 350.159 155.779 350.413 156.287 350.92C156.795 351.428 157.048 352.169 157.048 353.142V359H154.986V353.46C154.986 352.919 154.842 352.523 154.554 352.273C154.266 352.019 153.914 351.892 153.497 351.892C153.001 351.892 152.613 352.047 152.332 352.358C152.056 352.665 151.918 353.064 151.918 353.557V359H149.901V353.375C149.901 352.924 149.764 352.564 149.491 352.295C149.223 352.027 148.87 351.892 148.435 351.892C148.139 351.892 147.87 351.968 147.628 352.119C147.385 352.267 147.192 352.477 147.048 352.75C146.904 353.019 146.832 353.333 146.832 353.693V359H144.776ZM161.646 359.176C161.093 359.176 160.595 359.078 160.152 358.881C159.713 358.68 159.364 358.384 159.107 357.994C158.853 357.604 158.726 357.123 158.726 356.551C158.726 356.059 158.817 355.652 158.999 355.33C159.18 355.008 159.429 354.75 159.743 354.557C160.057 354.364 160.411 354.218 160.805 354.119C161.203 354.017 161.614 353.943 162.038 353.898C162.55 353.845 162.964 353.797 163.283 353.756C163.601 353.71 163.832 353.642 163.976 353.551C164.124 353.456 164.197 353.311 164.197 353.114V353.08C164.197 352.652 164.071 352.32 163.817 352.085C163.563 351.85 163.197 351.733 162.72 351.733C162.216 351.733 161.817 351.843 161.521 352.062C161.23 352.282 161.033 352.542 160.93 352.841L159.01 352.568C159.161 352.038 159.411 351.595 159.76 351.239C160.108 350.879 160.535 350.61 161.038 350.432C161.542 350.25 162.099 350.159 162.709 350.159C163.129 350.159 163.548 350.208 163.964 350.307C164.381 350.405 164.762 350.568 165.107 350.795C165.451 351.019 165.728 351.324 165.936 351.71C166.148 352.097 166.254 352.58 166.254 353.159V359H164.277V357.801H164.209C164.084 358.044 163.908 358.271 163.68 358.483C163.457 358.691 163.175 358.86 162.834 358.989C162.497 359.114 162.101 359.176 161.646 359.176ZM162.18 357.665C162.593 357.665 162.951 357.583 163.254 357.42C163.557 357.254 163.79 357.034 163.953 356.761C164.12 356.489 164.203 356.191 164.203 355.869V354.841C164.139 354.894 164.029 354.943 163.874 354.989C163.722 355.034 163.552 355.074 163.362 355.108C163.173 355.142 162.985 355.172 162.8 355.199C162.614 355.225 162.453 355.248 162.317 355.267C162.01 355.309 161.735 355.377 161.493 355.472C161.25 355.566 161.059 355.699 160.919 355.869C160.779 356.036 160.709 356.252 160.709 356.517C160.709 356.896 160.847 357.182 161.124 357.375C161.4 357.568 161.752 357.665 162.18 357.665ZM168.322 359V350.273H170.379V359H168.322ZM169.357 349.034C169.031 349.034 168.75 348.926 168.516 348.71C168.281 348.491 168.163 348.227 168.163 347.92C168.163 347.61 168.281 347.347 168.516 347.131C168.75 346.911 169.031 346.801 169.357 346.801C169.686 346.801 169.966 346.911 170.197 347.131C170.432 347.347 170.55 347.61 170.55 347.92C170.55 348.227 170.432 348.491 170.197 348.71C169.966 348.926 169.686 349.034 169.357 349.034ZM174.551 347.364V359H172.494V347.364H174.551ZM177.933 359.125C177.589 359.125 177.293 359.004 177.047 358.761C176.801 358.519 176.679 358.223 176.683 357.875C176.679 357.534 176.801 357.242 177.047 357C177.293 356.758 177.589 356.636 177.933 356.636C178.267 356.636 178.556 356.758 178.803 357C179.053 357.242 179.179 357.534 179.183 357.875C179.179 358.106 179.119 358.316 179.001 358.506C178.888 358.695 178.736 358.847 178.547 358.96C178.361 359.07 178.157 359.125 177.933 359.125ZM185.114 359.17C184.242 359.17 183.494 358.979 182.869 358.597C182.248 358.214 181.769 357.686 181.432 357.011C181.098 356.333 180.932 355.553 180.932 354.67C180.932 353.784 181.102 353.002 181.443 352.324C181.784 351.642 182.265 351.112 182.886 350.733C183.511 350.35 184.25 350.159 185.102 350.159C185.811 350.159 186.438 350.29 186.983 350.551C187.532 350.809 187.97 351.174 188.295 351.648C188.621 352.117 188.807 352.667 188.852 353.295H186.886C186.807 352.875 186.617 352.525 186.318 352.244C186.023 351.96 185.627 351.818 185.131 351.818C184.71 351.818 184.341 351.932 184.023 352.159C183.705 352.383 183.456 352.705 183.278 353.125C183.104 353.545 183.017 354.049 183.017 354.636C183.017 355.231 183.104 355.742 183.278 356.17C183.453 356.595 183.697 356.922 184.011 357.153C184.33 357.381 184.703 357.494 185.131 357.494C185.434 357.494 185.705 357.437 185.943 357.324C186.186 357.206 186.388 357.038 186.551 356.818C186.714 356.598 186.826 356.331 186.886 356.017H188.852C188.803 356.634 188.621 357.182 188.307 357.659C187.992 358.133 187.564 358.504 187.023 358.773C186.481 359.038 185.845 359.17 185.114 359.17ZM194.348 359.17C193.496 359.17 192.757 358.983 192.132 358.608C191.507 358.233 191.022 357.708 190.678 357.034C190.337 356.36 190.166 355.572 190.166 354.67C190.166 353.769 190.337 352.979 190.678 352.301C191.022 351.623 191.507 351.097 192.132 350.722C192.757 350.347 193.496 350.159 194.348 350.159C195.2 350.159 195.939 350.347 196.564 350.722C197.189 351.097 197.672 351.623 198.013 352.301C198.357 352.979 198.53 353.769 198.53 354.67C198.53 355.572 198.357 356.36 198.013 357.034C197.672 357.708 197.189 358.233 196.564 358.608C195.939 358.983 195.2 359.17 194.348 359.17ZM194.359 357.523C194.821 357.523 195.208 357.396 195.518 357.142C195.829 356.884 196.06 356.54 196.212 356.108C196.367 355.676 196.445 355.195 196.445 354.665C196.445 354.131 196.367 353.648 196.212 353.216C196.06 352.78 195.829 352.434 195.518 352.176C195.208 351.919 194.821 351.79 194.359 351.79C193.886 351.79 193.492 351.919 193.178 352.176C192.867 352.434 192.634 352.78 192.479 353.216C192.327 353.648 192.251 354.131 192.251 354.665C192.251 355.195 192.327 355.676 192.479 356.108C192.634 356.54 192.867 356.884 193.178 357.142C193.492 357.396 193.886 357.523 194.359 357.523ZM200.276 359V350.273H202.241V351.756H202.344C202.526 351.256 202.827 350.866 203.247 350.585C203.668 350.301 204.17 350.159 204.753 350.159C205.344 350.159 205.842 350.303 206.247 350.591C206.656 350.875 206.944 351.263 207.111 351.756H207.202C207.395 351.271 207.721 350.884 208.179 350.597C208.641 350.305 209.188 350.159 209.821 350.159C210.624 350.159 211.279 350.413 211.787 350.92C212.295 351.428 212.548 352.169 212.548 353.142V359H210.486V353.46C210.486 352.919 210.342 352.523 210.054 352.273C209.766 352.019 209.414 351.892 208.997 351.892C208.501 351.892 208.113 352.047 207.832 352.358C207.556 352.665 207.418 353.064 207.418 353.557V359H205.401V353.375C205.401 352.924 205.264 352.564 204.991 352.295C204.723 352.027 204.37 351.892 203.935 351.892C203.639 351.892 203.37 351.968 203.128 352.119C202.885 352.267 202.692 352.477 202.548 352.75C202.404 353.019 202.332 353.333 202.332 353.693V359H200.276Z" fill="#252525"/>
<path d="M94.4148 325H91.1186V314.818H94.5192C95.5168 314.818 96.3736 315.022 97.0895 315.43C97.8054 315.834 98.3539 316.416 98.7351 317.175C99.1196 317.93 99.3118 318.837 99.3118 319.894C99.3118 320.955 99.1179 321.866 98.7301 322.629C98.3456 323.391 97.7888 323.978 97.0597 324.388C96.3305 324.796 95.4489 325 94.4148 325ZM92.6548 323.658H94.3303C95.1058 323.658 95.7505 323.512 96.2642 323.22C96.7779 322.925 97.1624 322.499 97.4176 321.942C97.6728 321.382 97.8004 320.7 97.8004 319.894C97.8004 319.095 97.6728 318.418 97.4176 317.861C97.1657 317.304 96.7895 316.881 96.2891 316.593C95.7886 316.305 95.1671 316.161 94.4247 316.161H92.6548V323.658ZM104.394 325.154C103.642 325.154 102.994 324.993 102.45 324.672C101.91 324.347 101.492 323.891 101.197 323.305C100.906 322.715 100.76 322.024 100.76 321.232C100.76 320.449 100.906 319.76 101.197 319.163C101.492 318.567 101.903 318.101 102.43 317.766C102.961 317.432 103.58 317.264 104.29 317.264C104.72 317.264 105.138 317.335 105.542 317.478C105.947 317.621 106.31 317.844 106.631 318.149C106.953 318.454 107.206 318.85 107.392 319.337C107.577 319.821 107.67 320.41 107.67 321.102V321.629H101.6V320.516H106.214C106.214 320.125 106.134 319.778 105.975 319.477C105.816 319.172 105.592 318.931 105.304 318.756C105.019 318.58 104.684 318.492 104.3 318.492C103.882 318.492 103.517 318.595 103.206 318.8C102.898 319.003 102.659 319.268 102.49 319.596C102.324 319.921 102.241 320.274 102.241 320.655V321.525C102.241 322.035 102.331 322.469 102.51 322.827C102.692 323.185 102.946 323.459 103.27 323.648C103.595 323.833 103.975 323.926 104.409 323.926C104.691 323.926 104.948 323.886 105.18 323.807C105.412 323.724 105.612 323.601 105.781 323.439C105.95 323.277 106.079 323.076 106.169 322.837L107.576 323.091C107.463 323.505 107.261 323.868 106.969 324.18C106.681 324.488 106.318 324.728 105.881 324.901C105.446 325.07 104.951 325.154 104.394 325.154ZM115.042 319.228L113.695 319.467C113.638 319.294 113.549 319.13 113.426 318.974C113.307 318.819 113.144 318.691 112.939 318.592C112.733 318.492 112.477 318.442 112.168 318.442C111.747 318.442 111.396 318.537 111.114 318.726C110.833 318.911 110.692 319.152 110.692 319.447C110.692 319.702 110.786 319.907 110.975 320.063C111.164 320.219 111.469 320.347 111.89 320.446L113.103 320.724C113.806 320.887 114.329 321.137 114.674 321.475C115.019 321.813 115.191 322.252 115.191 322.793C115.191 323.25 115.058 323.658 114.793 324.016C114.531 324.37 114.165 324.649 113.695 324.851C113.227 325.053 112.685 325.154 112.069 325.154C111.214 325.154 110.516 324.972 109.976 324.607C109.436 324.239 109.104 323.717 108.982 323.041L110.418 322.822C110.508 323.197 110.692 323.48 110.97 323.673C111.249 323.862 111.612 323.956 112.059 323.956C112.546 323.956 112.936 323.855 113.227 323.653C113.519 323.447 113.665 323.197 113.665 322.902C113.665 322.663 113.575 322.463 113.396 322.3C113.221 322.138 112.951 322.015 112.586 321.933L111.293 321.649C110.581 321.487 110.054 321.228 109.712 320.874C109.374 320.519 109.205 320.07 109.205 319.526C109.205 319.076 109.331 318.681 109.583 318.343C109.835 318.005 110.183 317.741 110.627 317.553C111.071 317.36 111.58 317.264 112.153 317.264C112.979 317.264 113.628 317.443 114.102 317.801C114.576 318.156 114.889 318.631 115.042 319.228ZM120.117 325.154C119.364 325.154 118.716 324.993 118.173 324.672C117.633 324.347 117.215 323.891 116.92 323.305C116.628 322.715 116.482 322.024 116.482 321.232C116.482 320.449 116.628 319.76 116.92 319.163C117.215 318.567 117.626 318.101 118.153 317.766C118.683 317.432 119.303 317.264 120.012 317.264C120.443 317.264 120.861 317.335 121.265 317.478C121.669 317.621 122.032 317.844 122.354 318.149C122.675 318.454 122.929 318.85 123.115 319.337C123.3 319.821 123.393 320.41 123.393 321.102V321.629H117.323V320.516H121.936C121.936 320.125 121.857 319.778 121.698 319.477C121.539 319.172 121.315 318.931 121.026 318.756C120.741 318.58 120.407 318.492 120.022 318.492C119.605 318.492 119.24 318.595 118.928 318.8C118.62 319.003 118.382 319.268 118.213 319.596C118.047 319.921 117.964 320.274 117.964 320.655V321.525C117.964 322.035 118.053 322.469 118.232 322.827C118.415 323.185 118.668 323.459 118.993 323.648C119.318 323.833 119.697 323.926 120.132 323.926C120.413 323.926 120.67 323.886 120.902 323.807C121.134 323.724 121.335 323.601 121.504 323.439C121.673 323.277 121.802 323.076 121.892 322.837L123.298 323.091C123.186 323.505 122.984 323.868 122.692 324.18C122.404 324.488 122.041 324.728 121.603 324.901C121.169 325.07 120.673 325.154 120.117 325.154ZM126.529 320.466V325H125.042V317.364H126.469V318.607H126.564C126.739 318.202 127.014 317.877 127.389 317.632C127.767 317.387 128.242 317.264 128.816 317.264C129.336 317.264 129.792 317.374 130.183 317.592C130.574 317.808 130.877 318.129 131.093 318.557C131.308 318.984 131.416 319.513 131.416 320.143V325H129.929V320.322C129.929 319.768 129.785 319.336 129.497 319.024C129.208 318.709 128.812 318.552 128.309 318.552C127.964 318.552 127.657 318.626 127.389 318.776C127.124 318.925 126.913 319.143 126.757 319.432C126.605 319.717 126.529 320.062 126.529 320.466ZM139.669 317.364L136.9 325H135.309L132.534 317.364H134.13L136.064 323.24H136.144L138.073 317.364H139.669ZM144.023 325.154C143.307 325.154 142.682 324.99 142.148 324.662C141.615 324.334 141.2 323.875 140.905 323.285C140.61 322.695 140.463 322.005 140.463 321.217C140.463 320.424 140.61 319.732 140.905 319.138C141.2 318.545 141.615 318.085 142.148 317.756C142.682 317.428 143.307 317.264 144.023 317.264C144.738 317.264 145.363 317.428 145.897 317.756C146.43 318.085 146.845 318.545 147.14 319.138C147.435 319.732 147.582 320.424 147.582 321.217C147.582 322.005 147.435 322.695 147.14 323.285C146.845 323.875 146.43 324.334 145.897 324.662C145.363 324.99 144.738 325.154 144.023 325.154ZM144.028 323.906C144.492 323.906 144.876 323.784 145.181 323.538C145.486 323.293 145.711 322.967 145.857 322.559C146.006 322.151 146.081 321.702 146.081 321.212C146.081 320.724 146.006 320.277 145.857 319.869C145.711 319.458 145.486 319.129 145.181 318.88C144.876 318.631 144.492 318.507 144.028 318.507C143.56 318.507 143.172 318.631 142.864 318.88C142.559 319.129 142.332 319.458 142.183 319.869C142.037 320.277 141.964 320.724 141.964 321.212C141.964 321.702 142.037 322.151 142.183 322.559C142.332 322.967 142.559 323.293 142.864 323.538C143.172 323.784 143.56 323.906 144.028 323.906ZM150.728 314.818V325H149.241V314.818H150.728ZM159.26 317.364L156.491 325H154.9L152.126 317.364H153.722L155.656 323.24H155.736L157.665 317.364H159.26ZM163.689 325.154C162.937 325.154 162.289 324.993 161.745 324.672C161.205 324.347 160.787 323.891 160.492 323.305C160.201 322.715 160.055 322.024 160.055 321.232C160.055 320.449 160.201 319.76 160.492 319.163C160.787 318.567 161.198 318.101 161.725 317.766C162.255 317.432 162.875 317.264 163.585 317.264C164.015 317.264 164.433 317.335 164.837 317.478C165.242 317.621 165.605 317.844 165.926 318.149C166.248 318.454 166.501 318.85 166.687 319.337C166.872 319.821 166.965 320.41 166.965 321.102V321.629H160.895V320.516H165.509C165.509 320.125 165.429 319.778 165.27 319.477C165.111 319.172 164.887 318.931 164.599 318.756C164.314 318.58 163.979 318.492 163.594 318.492C163.177 318.492 162.812 318.595 162.501 318.8C162.192 319.003 161.954 319.268 161.785 319.596C161.619 319.921 161.536 320.274 161.536 320.655V321.525C161.536 322.035 161.626 322.469 161.805 322.827C161.987 323.185 162.241 323.459 162.565 323.648C162.89 323.833 163.27 323.926 163.704 323.926C163.986 323.926 164.242 323.886 164.474 323.807C164.706 323.724 164.907 323.601 165.076 323.439C165.245 323.277 165.374 323.076 165.464 322.837L166.871 323.091C166.758 323.505 166.556 323.868 166.264 324.18C165.976 324.488 165.613 324.728 165.175 324.901C164.741 325.07 164.246 325.154 163.689 325.154ZM171.473 325.149C170.857 325.149 170.307 324.992 169.823 324.677C169.342 324.359 168.964 323.906 168.689 323.32C168.417 322.73 168.281 322.022 168.281 321.197C168.281 320.371 168.419 319.665 168.694 319.079C168.972 318.492 169.354 318.043 169.838 317.732C170.321 317.42 170.87 317.264 171.483 317.264C171.957 317.264 172.338 317.344 172.627 317.503C172.918 317.659 173.144 317.841 173.303 318.05C173.465 318.259 173.591 318.442 173.681 318.602H173.77V314.818H175.257V325H173.805V323.812H173.681C173.591 323.974 173.462 324.16 173.293 324.369C173.127 324.577 172.898 324.76 172.607 324.915C172.315 325.071 171.937 325.149 171.473 325.149ZM171.801 323.881C172.229 323.881 172.59 323.769 172.885 323.543C173.183 323.315 173.409 322.998 173.561 322.594C173.717 322.189 173.795 321.719 173.795 321.182C173.795 320.652 173.719 320.187 173.566 319.79C173.414 319.392 173.19 319.082 172.895 318.86C172.6 318.638 172.235 318.527 171.801 318.527C171.354 318.527 170.981 318.643 170.683 318.875C170.384 319.107 170.159 319.424 170.007 319.825C169.857 320.226 169.783 320.678 169.783 321.182C169.783 321.692 169.859 322.151 170.012 322.559C170.164 322.967 170.389 323.29 170.688 323.528C170.989 323.764 171.36 323.881 171.801 323.881ZM180.595 325.154C179.879 325.154 179.254 324.99 178.721 324.662C178.187 324.334 177.773 323.875 177.478 323.285C177.183 322.695 177.035 322.005 177.035 321.217C177.035 320.424 177.183 319.732 177.478 319.138C177.773 318.545 178.187 318.085 178.721 317.756C179.254 317.428 179.879 317.264 180.595 317.264C181.311 317.264 181.935 317.428 182.469 317.756C183.003 318.085 183.417 318.545 183.712 319.138C184.007 319.732 184.154 320.424 184.154 321.217C184.154 322.005 184.007 322.695 183.712 323.285C183.417 323.875 183.003 324.334 182.469 324.662C181.935 324.99 181.311 325.154 180.595 325.154ZM180.6 323.906C181.064 323.906 181.448 323.784 181.753 323.538C182.058 323.293 182.283 322.967 182.429 322.559C182.578 322.151 182.653 321.702 182.653 321.212C182.653 320.724 182.578 320.277 182.429 319.869C182.283 319.458 182.058 319.129 181.753 318.88C181.448 318.631 181.064 318.507 180.6 318.507C180.132 318.507 179.745 318.631 179.436 318.88C179.132 319.129 178.904 319.458 178.755 319.869C178.609 320.277 178.537 320.724 178.537 321.212C178.537 321.702 178.609 322.151 178.755 322.559C178.904 322.967 179.132 323.293 179.436 323.538C179.745 323.784 180.132 323.906 180.6 323.906ZM185.814 325V317.364H187.251V318.577H187.33C187.469 318.166 187.715 317.843 188.066 317.607C188.421 317.369 188.822 317.249 189.269 317.249C189.362 317.249 189.471 317.253 189.597 317.259C189.726 317.266 189.827 317.274 189.9 317.284V318.706C189.841 318.689 189.735 318.671 189.582 318.651C189.43 318.628 189.277 318.616 189.125 318.616C188.773 318.616 188.46 318.691 188.185 318.84C187.913 318.986 187.698 319.19 187.539 319.452C187.38 319.71 187.3 320.005 187.3 320.337V325H185.814Z" fill="#373737"/>
<path d="M128.885 405.441V414.527H128V417.454H154V414.527H153.115V405.475L145.152 401.459V405.271L137.733 401.459V405.475H135.215L134.602 392.679C134.765 392.652 134.806 392.577 134.806 392.543V391.931C134.806 391.795 134.625 391.783 134.534 391.795V391.182H132.016V391.795C131.88 391.767 131.777 391.874 131.743 391.931V392.543C131.743 392.625 131.902 392.691 131.982 392.714L131.335 405.441H128.885Z" fill="#EB6C54"/>
<rect x="131.675" y="408.81" width="1.56542" height="1.56542" fill="white"/>
<rect x="131.675" y="411.056" width="1.56542" height="1.56542" fill="white"/>
<rect x="133.854" y="408.81" width="1.56542" height="1.56542" fill="white"/>
<rect x="133.854" y="411.056" width="1.56542" height="1.56542" fill="white"/>
<rect x="136.644" y="408.81" width="1.56542" height="1.56542" fill="white"/>
<rect x="136.644" y="411.056" width="1.56542" height="1.56542" fill="white"/>
<rect x="138.822" y="408.81" width="1.56542" height="1.56542" fill="white"/>
<rect x="138.822" y="411.056" width="1.56542" height="1.56542" fill="white"/>
<rect x="141.612" y="408.81" width="1.56542" height="1.56542" fill="white"/>
<rect x="141.612" y="411.056" width="1.56542" height="1.56542" fill="white"/>
<rect x="143.791" y="408.81" width="1.56542" height="1.56542" fill="white"/>
<rect x="143.791" y="411.056" width="1.56542" height="1.56542" fill="white"/>
<rect x="146.581" y="408.81" width="1.56542" height="1.56542" fill="white"/>
<rect x="146.581" y="411.056" width="1.56542" height="1.56542" fill="white"/>
<rect x="148.759" y="408.81" width="1.56542" height="1.56542" fill="white"/>
<rect x="148.759" y="411.056" width="1.56542" height="1.56542" fill="white"/>
<path d="M138.414 384.512C135.718 383.777 135.067 385.227 135.079 386.043C132.982 386.533 132.549 388.017 132.594 388.698C133.037 390.978 136.236 389.923 136.848 388.868C139.571 390.195 140.66 388.618 140.728 387.813C143.212 389.242 145.56 388.017 145.764 387.609C147.207 388.562 148.816 388.55 149.44 388.426C152.707 387.772 152.616 384.886 152.162 383.525C150.474 379.686 144.199 380.837 143.688 382.947C139.986 381.721 138.629 383.48 138.414 384.512Z" fill="#7B7A7A"/>
</svg>
