<svg width="60" height="48" viewBox="0 0 60 48" fill="none" xmlns="http://www.w3.org/2000/svg">
<mask id="path-1-inside-1_167_1311" fill="white">
<path d="M8.181 3.999C5.922 3.999 4.092 5.79 4.092 8.001V39.999C4.092 42.21 5.922 44.001 8.181 44.001H51.819C54.078 44.001 55.908 42.21 55.908 39.999V8.001C55.908 5.79 54.078 3.999 51.819 3.999H8.181ZM51.819 0C56.337 0 60 3.582 60 8.001V39.999C60 44.418 56.337 48 51.819 48H8.181C3.663 48 0 44.418 0 39.999V8.001C0 3.582 3.663 0 8.181 0H51.819ZM24.501 33.399H12C11.7342 33.3958 11.4704 33.4451 11.2237 33.544C10.977 33.6429 10.7521 33.7894 10.5621 33.9753C10.3721 34.1611 10.2206 34.3826 10.1162 34.6271C10.0119 34.8716 9.95674 35.1342 9.954 35.4C9.954 36.504 10.869 37.401 12 37.401H24.501C24.7665 37.4038 25.03 37.3542 25.2764 37.2551C25.5228 37.1561 25.7472 37.0095 25.937 36.8237C26.1267 36.6378 26.2779 36.4165 26.3821 36.1722C26.4862 35.9279 26.5413 35.6655 26.544 35.4C26.5413 35.1345 26.4862 34.8721 26.3821 34.6278C26.2779 34.3835 26.1267 34.1622 25.937 33.9763C25.7472 33.7905 25.5228 33.6439 25.2764 33.5448C25.03 33.4458 24.7665 33.3962 24.501 33.399ZM41.25 9.999C36.678 9.999 32.955 13.572 32.955 18C32.955 20.319 33.975 22.404 35.607 23.865C32.517 25.689 30.456 28.974 30.456 32.727C30.456 33.798 30.624 34.851 30.951 35.856C31.296 36.906 32.448 37.488 33.522 37.152C33.7755 37.0761 34.0113 36.9504 34.2156 36.7823C34.42 36.6143 34.5888 36.4072 34.7123 36.1731C34.8357 35.9391 34.9113 35.6828 34.9346 35.4192C34.9579 35.1556 34.9285 34.8901 34.848 34.638C34.6475 34.0209 34.5462 33.3759 34.548 32.727C34.548 29.202 37.539 26.328 41.25 26.328C44.961 26.328 47.955 29.202 47.955 32.727C47.955 33.246 47.892 33.753 47.766 34.245C47.7028 34.5021 47.6913 34.7693 47.7322 35.0309C47.7731 35.2925 47.8656 35.5434 48.0044 35.7689C48.1431 35.9945 48.3253 36.1902 48.5403 36.3447C48.7554 36.4992 48.999 36.6095 49.257 36.669C49.7787 36.7999 50.331 36.7204 50.7946 36.4476C51.2583 36.1748 51.596 35.7306 51.735 35.211C51.942 34.401 52.044 33.57 52.044 32.727C52.044 28.974 49.983 25.689 46.893 23.859C48.525 22.404 49.545 20.319 49.545 18C49.545 13.572 45.825 9.999 41.25 9.999ZM24.501 22.899H12C11.7342 22.8958 11.4704 22.9451 11.2237 23.044C10.977 23.1429 10.7521 23.2894 10.5621 23.4753C10.3721 23.6611 10.2206 23.8826 10.1162 24.1271C10.0119 24.3716 9.95674 24.6342 9.954 24.9C9.954 26.004 10.869 26.901 12 26.901H24.501C24.7665 26.9038 25.03 26.8542 25.2764 26.7551C25.5228 26.6561 25.7472 26.5095 25.937 26.3237C26.1267 26.1378 26.2779 25.9165 26.3821 25.6722C26.4862 25.4279 26.5413 25.1655 26.544 24.9C26.5413 24.6345 26.4862 24.3721 26.3821 24.1278C26.2779 23.8835 26.1267 23.6622 25.937 23.4763C25.7472 23.2905 25.5228 23.1439 25.2764 23.0448C25.03 22.9458 24.7665 22.8962 24.501 22.899ZM41.25 14.001C43.581 14.001 45.456 15.801 45.456 18C45.456 20.202 43.581 21.999 41.25 21.999C38.919 21.999 37.044 20.199 37.044 18C37.044 15.798 38.919 14.001 41.25 14.001ZM24.501 12.399H12C11.7342 12.3958 11.4704 12.4451 11.2237 12.544C10.977 12.6429 10.7521 12.7894 10.5621 12.9753C10.3721 13.1611 10.2206 13.3826 10.1162 13.6271C10.0119 13.8716 9.95674 14.1342 9.954 14.4C9.954 15.504 10.869 16.401 12 16.401H24.501C24.7665 16.4038 25.03 16.3542 25.2764 16.2551C25.5228 16.1561 25.7472 16.0095 25.937 15.8237C26.1267 15.6378 26.2779 15.4165 26.3821 15.1722C26.4862 14.9279 26.5413 14.6655 26.544 14.4C26.5413 14.1345 26.4862 13.8721 26.3821 13.6278C26.2779 13.3835 26.1267 13.1622 25.937 12.9763C25.7472 12.7905 25.5228 12.6439 25.2764 12.5449C25.03 12.4458 24.7665 12.3962 24.501 12.399Z"/>
</mask>
<path d="M8.181 3.999C5.922 3.999 4.092 5.79 4.092 8.001V39.999C4.092 42.21 5.922 44.001 8.181 44.001H51.819C54.078 44.001 55.908 42.21 55.908 39.999V8.001C55.908 5.79 54.078 3.999 51.819 3.999H8.181ZM51.819 0C56.337 0 60 3.582 60 8.001V39.999C60 44.418 56.337 48 51.819 48H8.181C3.663 48 0 44.418 0 39.999V8.001C0 3.582 3.663 0 8.181 0H51.819ZM24.501 33.399H12C11.7342 33.3958 11.4704 33.4451 11.2237 33.544C10.977 33.6429 10.7521 33.7894 10.5621 33.9753C10.3721 34.1611 10.2206 34.3826 10.1162 34.6271C10.0119 34.8716 9.95674 35.1342 9.954 35.4C9.954 36.504 10.869 37.401 12 37.401H24.501C24.7665 37.4038 25.03 37.3542 25.2764 37.2551C25.5228 37.1561 25.7472 37.0095 25.937 36.8237C26.1267 36.6378 26.2779 36.4165 26.3821 36.1722C26.4862 35.9279 26.5413 35.6655 26.544 35.4C26.5413 35.1345 26.4862 34.8721 26.3821 34.6278C26.2779 34.3835 26.1267 34.1622 25.937 33.9763C25.7472 33.7905 25.5228 33.6439 25.2764 33.5448C25.03 33.4458 24.7665 33.3962 24.501 33.399ZM41.25 9.999C36.678 9.999 32.955 13.572 32.955 18C32.955 20.319 33.975 22.404 35.607 23.865C32.517 25.689 30.456 28.974 30.456 32.727C30.456 33.798 30.624 34.851 30.951 35.856C31.296 36.906 32.448 37.488 33.522 37.152C33.7755 37.0761 34.0113 36.9504 34.2156 36.7823C34.42 36.6143 34.5888 36.4072 34.7123 36.1731C34.8357 35.9391 34.9113 35.6828 34.9346 35.4192C34.9579 35.1556 34.9285 34.8901 34.848 34.638C34.6475 34.0209 34.5462 33.3759 34.548 32.727C34.548 29.202 37.539 26.328 41.25 26.328C44.961 26.328 47.955 29.202 47.955 32.727C47.955 33.246 47.892 33.753 47.766 34.245C47.7028 34.5021 47.6913 34.7693 47.7322 35.0309C47.7731 35.2925 47.8656 35.5434 48.0044 35.7689C48.1431 35.9945 48.3253 36.1902 48.5403 36.3447C48.7554 36.4992 48.999 36.6095 49.257 36.669C49.7787 36.7999 50.331 36.7204 50.7946 36.4476C51.2583 36.1748 51.596 35.7306 51.735 35.211C51.942 34.401 52.044 33.57 52.044 32.727C52.044 28.974 49.983 25.689 46.893 23.859C48.525 22.404 49.545 20.319 49.545 18C49.545 13.572 45.825 9.999 41.25 9.999ZM24.501 22.899H12C11.7342 22.8958 11.4704 22.9451 11.2237 23.044C10.977 23.1429 10.7521 23.2894 10.5621 23.4753C10.3721 23.6611 10.2206 23.8826 10.1162 24.1271C10.0119 24.3716 9.95674 24.6342 9.954 24.9C9.954 26.004 10.869 26.901 12 26.901H24.501C24.7665 26.9038 25.03 26.8542 25.2764 26.7551C25.5228 26.6561 25.7472 26.5095 25.937 26.3237C26.1267 26.1378 26.2779 25.9165 26.3821 25.6722C26.4862 25.4279 26.5413 25.1655 26.544 24.9C26.5413 24.6345 26.4862 24.3721 26.3821 24.1278C26.2779 23.8835 26.1267 23.6622 25.937 23.4763C25.7472 23.2905 25.5228 23.1439 25.2764 23.0448C25.03 22.9458 24.7665 22.8962 24.501 22.899ZM41.25 14.001C43.581 14.001 45.456 15.801 45.456 18C45.456 20.202 43.581 21.999 41.25 21.999C38.919 21.999 37.044 20.199 37.044 18C37.044 15.798 38.919 14.001 41.25 14.001ZM24.501 12.399H12C11.7342 12.3958 11.4704 12.4451 11.2237 12.544C10.977 12.6429 10.7521 12.7894 10.5621 12.9753C10.3721 13.1611 10.2206 13.3826 10.1162 13.6271C10.0119 13.8716 9.95674 14.1342 9.954 14.4C9.954 15.504 10.869 16.401 12 16.401H24.501C24.7665 16.4038 25.03 16.3542 25.2764 16.2551C25.5228 16.1561 25.7472 16.0095 25.937 15.8237C26.1267 15.6378 26.2779 15.4165 26.3821 15.1722C26.4862 14.9279 26.5413 14.6655 26.544 14.4C26.5413 14.1345 26.4862 13.8721 26.3821 13.6278C26.2779 13.3835 26.1267 13.1622 25.937 12.9763C25.7472 12.7905 25.5228 12.6439 25.2764 12.5449C25.03 12.4458 24.7665 12.3962 24.501 12.399Z" fill="#FFB800"/>
<path d="M24.501 33.399V41.5622H24.5436L24.5862 41.5618L24.501 33.399ZM12 33.399L11.9027 41.5616L11.9513 41.5622H12V33.399ZM9.954 35.4L1.79122 35.3158L1.79079 35.3579V35.4H9.954ZM24.501 37.401L24.5862 29.2382L24.5436 29.2378H24.501V37.401ZM26.544 35.4L34.7068 35.4843L34.7076 35.4L34.7068 35.3157L26.544 35.4ZM35.607 23.865L39.7566 30.8948L49.3637 25.2239L41.0518 17.7829L35.607 23.865ZM30.951 35.856L23.1884 38.3818L23.192 38.393L23.1957 38.4042L30.951 35.856ZM33.522 37.152L31.1794 29.3321L31.1319 29.3464L31.0846 29.3612L33.522 37.152ZM34.848 34.638L42.6246 32.1555L42.6181 32.1353L42.6116 32.1152L34.848 34.638ZM34.548 32.727L42.7112 32.7495L42.7112 32.7382V32.727H34.548ZM47.766 34.245L39.858 32.2198L39.8483 32.2576L39.839 32.2955L47.766 34.245ZM49.257 36.669L51.2433 28.7511L51.168 28.7322L51.0923 28.7148L49.257 36.669ZM51.735 35.211L59.621 37.3202L59.6328 37.2763L59.644 37.2322L51.735 35.211ZM46.893 23.859L41.4606 17.7658L33.1283 25.1945L42.7332 30.8828L46.893 23.859ZM24.501 22.899V31.0622H24.5436L24.5862 31.0618L24.501 22.899ZM12 22.899L11.9027 31.0616L11.9513 31.0622H12V22.899ZM9.954 24.9L1.79122 24.8158L1.79079 24.8579V24.9L9.954 24.9ZM24.501 26.901L24.5862 18.7382L24.5436 18.7378H24.501V26.901ZM26.544 24.9L34.7068 24.9843L34.7076 24.9L34.7068 24.8157L26.544 24.9ZM24.501 12.399V20.5622H24.5436L24.5862 20.5618L24.501 12.399ZM12 12.399L11.9027 20.5616L11.9513 20.5622H12V12.399ZM9.954 14.4L1.79122 14.3158L1.79079 14.3579V14.4H9.954ZM24.501 16.401L24.5862 8.23823L24.5436 8.23779H24.501V16.401ZM26.544 14.4L34.7068 14.4843L34.7076 14.4L34.7068 14.3157L26.544 14.4ZM8.181 -4.16421C1.58006 -4.16421 -4.07121 1.11688 -4.07121 8.001H12.2552C12.2552 10.4631 10.2639 12.1622 8.181 12.1622V-4.16421ZM-4.07121 8.001V39.999H12.2552V8.001H-4.07121ZM-4.07121 39.999C-4.07121 46.8831 1.58007 52.1642 8.181 52.1642V35.8378C10.2639 35.8378 12.2552 37.5369 12.2552 39.999H-4.07121ZM8.181 52.1642H51.819V35.8378H8.181V52.1642ZM51.819 52.1642C58.4199 52.1642 64.0712 46.8831 64.0712 39.999H47.7448C47.7448 37.5369 49.7361 35.8378 51.819 35.8378V52.1642ZM64.0712 39.999V8.001H47.7448V39.999H64.0712ZM64.0712 8.001C64.0712 1.11689 58.4199 -4.16421 51.819 -4.16421V12.1622C49.7361 12.1622 47.7448 10.4631 47.7448 8.001H64.0712ZM51.819 -4.16421H8.181V12.1622H51.819V-4.16421ZM51.819 8.16321C51.8623 8.16321 51.8792 8.17047 51.883 8.17206C51.8918 8.1757 51.8964 8.17986 51.8962 8.17958C51.8958 8.17923 51.8808 8.16463 51.8646 8.12705C51.8563 8.10786 51.8488 8.08515 51.8436 8.06034C51.8383 8.03499 51.8368 8.0141 51.8368 8.001H68.1632C68.1632 -1.09694 60.673 -8.16321 51.819 -8.16321V8.16321ZM51.8368 8.001V39.999H68.1632V8.001H51.8368ZM51.8368 39.999C51.8368 39.9859 51.8383 39.965 51.8436 39.9397C51.8488 39.9148 51.8563 39.8921 51.8646 39.873C51.8808 39.8354 51.8958 39.8208 51.8962 39.8204C51.8964 39.8201 51.8918 39.8243 51.883 39.8279C51.8792 39.8295 51.8623 39.8368 51.819 39.8368V56.1632C60.673 56.1632 68.1632 49.0969 68.1632 39.999H51.8368ZM51.819 39.8368H8.181V56.1632H51.819V39.8368ZM8.181 39.8368C8.13775 39.8368 8.12083 39.8295 8.11698 39.8279C8.10817 39.8243 8.10357 39.8201 8.10385 39.8204C8.10421 39.8208 8.11917 39.8354 8.13542 39.873C8.14372 39.8921 8.1512 39.9148 8.15639 39.9397C8.16169 39.965 8.16321 39.9859 8.16321 39.999H-8.16321C-8.16321 49.0969 -0.672981 56.1632 8.181 56.1632V39.8368ZM8.16321 39.999V8.001H-8.16321V39.999H8.16321ZM8.16321 8.001C8.16321 8.0141 8.16169 8.035 8.15639 8.06034C8.1512 8.08516 8.14372 8.10786 8.13542 8.12705C8.11917 8.16463 8.10421 8.17923 8.10385 8.17958C8.10357 8.17986 8.10817 8.1757 8.11698 8.17206C8.12083 8.17047 8.13775 8.16321 8.181 8.16321V-8.16321C-0.672981 -8.16321 -8.16321 -1.09694 -8.16321 8.001H8.16321ZM8.181 8.16321H51.819V-8.16321H8.181V8.16321ZM24.501 25.2358H12V41.5622H24.501V25.2358ZM12.0973 25.2364C10.7585 25.2204 9.4297 25.4686 8.18685 25.9667L14.2605 41.1213C13.5111 41.4216 12.7099 41.5713 11.9027 41.5616L12.0973 25.2364ZM8.18685 25.9667C6.94403 26.4648 5.81161 27.203 4.85438 28.1392L16.2698 39.8114C15.6927 40.3758 15.0099 40.821 14.2605 41.1213L8.18685 25.9667ZM4.85438 28.1392C3.89715 29.0754 3.1339 30.1911 2.6083 31.4225L17.6241 37.8317C17.3072 38.5742 16.847 39.2469 16.2698 39.8114L4.85438 28.1392ZM2.6083 31.4225C2.08268 32.654 1.80503 33.977 1.79122 35.3158L18.1168 35.4842C18.1084 36.2915 17.941 37.0891 17.6241 37.8317L2.6083 31.4225ZM1.79079 35.4C1.79079 41.177 6.52698 45.5642 12 45.5642V29.2378C15.211 29.2378 18.1172 31.831 18.1172 35.4H1.79079ZM12 45.5642H24.501V29.2378H12V45.5642ZM24.4158 45.5638C25.7533 45.5777 27.0805 45.3281 28.3216 44.8291L22.2312 29.6812C22.9795 29.3803 23.7798 29.2298 24.5862 29.2382L24.4158 45.5638ZM28.3216 44.8291C29.5627 44.3301 30.6934 43.5915 31.649 42.6555L20.2249 30.9918C20.8011 30.4274 21.4828 29.9821 22.2312 29.6812L28.3216 44.8291ZM31.649 42.6555C32.6046 41.7196 33.3665 40.6045 33.8911 39.3741L18.873 32.9703C19.1894 32.2284 19.6487 31.5561 20.2249 30.9918L31.649 42.6555ZM33.8911 39.3741C34.4158 38.1436 34.693 36.8219 34.7068 35.4843L18.3812 35.3157C18.3896 34.5092 18.5567 33.7122 18.873 32.9703L33.8911 39.3741ZM34.7068 35.3157C34.693 33.9781 34.4158 32.6564 33.8911 31.4259L18.873 37.8297C18.5567 37.0878 18.3896 36.2908 18.3812 35.4843L34.7068 35.3157ZM33.8911 31.4259C33.3665 30.1955 32.6046 29.0804 31.649 28.1445L20.2249 39.8082C19.6487 39.2439 19.1894 38.5716 18.873 37.8297L33.8911 31.4259ZM31.649 28.1445C30.6934 27.2085 29.5627 26.4699 28.3216 25.9709L22.2312 41.1188C21.4828 40.8179 20.8011 40.3726 20.2249 39.8082L31.649 28.1445ZM28.3216 25.9709C27.0805 25.4719 25.7533 25.2223 24.4158 25.2362L24.5862 41.5618C23.7798 41.5702 22.9795 41.4197 22.2312 41.1188L28.3216 25.9709ZM41.25 1.83579C32.4619 1.83579 24.7918 8.77667 24.7918 18H41.1182C41.1182 18.0202 41.1159 18.0483 41.1091 18.0805C41.1024 18.1121 41.0929 18.1403 41.0826 18.1635C41.0625 18.2094 41.0453 18.2239 41.0506 18.2189C41.0561 18.2135 41.0739 18.199 41.1052 18.1863C41.1318 18.1754 41.1767 18.1622 41.25 18.1622V1.83579ZM24.7918 18C24.7918 22.7863 26.9119 27.0374 30.1622 29.9471L41.0518 17.7829C41.0423 17.7744 41.0588 17.7856 41.0799 17.8313C41.0906 17.8545 41.1009 17.8834 41.1082 17.9164C41.1157 17.95 41.1182 17.9793 41.1182 18H24.7918ZM31.4574 16.8352C26.0665 20.0173 22.2928 25.8756 22.2928 32.727H38.6192C38.6192 32.0724 38.9675 31.3607 39.7566 30.8948L31.4574 16.8352ZM22.2928 32.727C22.2928 34.6551 22.5958 36.5605 23.1884 38.3818L38.7136 33.3302C38.6522 33.1415 38.6192 32.9409 38.6192 32.727H22.2928ZM23.1957 38.4042C24.9713 43.8082 30.7413 46.5753 35.9594 44.9428L31.0846 29.3612C34.1547 28.4007 37.6207 30.0038 38.7063 33.3078L23.1957 38.4042ZM35.8646 44.9719C37.1568 44.5848 38.3589 43.9441 39.4008 43.0873L29.0305 30.4774C29.6636 29.9567 30.3942 29.5674 31.1794 29.3321L35.8646 44.9719ZM39.4008 43.0873C40.4427 42.2304 41.3034 41.1746 41.9327 39.9815L27.4919 32.3647C27.8743 31.6397 28.3973 30.9981 29.0305 30.4774L39.4008 43.0873ZM41.9327 39.9815C42.562 38.7883 42.9473 37.4818 43.0661 36.1381L26.8031 34.7003C26.8753 33.8838 27.1094 33.0898 27.4919 32.3647L41.9327 39.9815ZM43.0661 36.1381C43.1849 34.7945 43.0348 33.4406 42.6246 32.1555L27.0714 37.1205C26.8221 36.3396 26.7309 35.5168 26.8031 34.7003L43.0661 36.1381ZM42.6116 32.1152C42.6782 32.32 42.7118 32.5341 42.7112 32.7495L26.3848 32.7045C26.3807 34.2176 26.6168 35.7218 27.0844 37.1608L42.6116 32.1152ZM42.7112 32.727C42.7112 34.0474 41.7029 34.4912 41.25 34.4912V18.1648C33.3751 18.1648 26.3848 24.3566 26.3848 32.727H42.7112ZM41.25 34.4912C40.802 34.4912 39.7918 34.0521 39.7918 32.727H56.1182C56.1182 24.3519 49.12 18.1648 41.25 18.1648V34.4912ZM39.7918 32.727C39.7918 32.58 39.8103 32.4059 39.858 32.2198L55.674 36.2702C55.9737 35.1001 56.1182 33.912 56.1182 32.727H39.7918ZM39.839 32.2955C39.5174 33.6032 39.4589 34.9618 39.667 36.2924L55.7973 33.7694C55.9236 34.5767 55.8881 35.401 55.693 36.1945L39.839 32.2955ZM39.667 36.2924C39.8751 37.6229 40.3457 38.8988 41.0512 40.0458L54.9575 31.4921C55.3856 32.188 55.6711 32.9621 55.7973 33.7694L39.667 36.2924ZM41.0512 40.0458C41.7568 41.1929 42.6833 42.1882 43.7769 42.9741L53.3037 29.7154C53.9673 30.1922 54.5294 30.7961 54.9575 31.4921L41.0512 40.0458ZM43.7769 42.9741C44.8706 43.7599 46.1096 44.3205 47.4218 44.6232L51.0923 28.7148C51.8884 28.8985 52.6401 29.2386 53.3037 29.7154L43.7769 42.9741ZM47.2707 44.5869C49.871 45.2392 52.6236 44.8428 54.9343 43.4833L46.655 29.4119C48.0384 28.5979 49.6865 28.3606 51.2433 28.7511L47.2707 44.5869ZM54.9343 43.4833C57.2449 42.1238 58.9283 39.9101 59.621 37.3202L43.849 33.1018C44.2637 31.5512 45.2716 30.2258 46.655 29.4119L54.9343 43.4833ZM59.644 37.2322C60.0245 35.7433 60.2072 34.2324 60.2072 32.727H43.8808C43.8808 32.9076 43.8595 33.0588 43.826 33.1898L59.644 37.2322ZM60.2072 32.727C60.2072 25.8737 56.4325 20.0212 51.0528 16.8352L42.7332 30.8828C43.5335 31.3568 43.8808 32.0743 43.8808 32.727H60.2072ZM52.3254 29.9522C55.5897 27.042 57.7082 22.7836 57.7082 18H41.3818C41.3818 17.9794 41.3843 17.95 41.3918 17.916C41.3992 17.8827 41.4097 17.8529 41.4211 17.8284C41.4434 17.7801 41.4631 17.7636 41.4606 17.7658L52.3254 29.9522ZM57.7082 18C57.7082 8.77856 50.043 1.83579 41.25 1.83579V18.1622C41.3247 18.1622 41.37 18.1757 41.3965 18.1865C41.4275 18.1991 41.4448 18.2133 41.4498 18.2181C41.4546 18.2228 41.4372 18.2079 41.4171 18.162C41.4069 18.1388 41.3975 18.1107 41.3908 18.0794C41.384 18.0475 41.3818 18.0198 41.3818 18H57.7082ZM24.501 14.7358H12V31.0622H24.501V14.7358ZM12.0973 14.7364C10.7585 14.7204 9.4297 14.9686 8.18685 15.4667L14.2605 30.6213C13.5111 30.9216 12.7099 31.0713 11.9027 31.0616L12.0973 14.7364ZM8.18685 15.4667C6.94403 15.9648 5.81161 16.703 4.85438 17.6392L16.2698 29.3114C15.6927 29.8758 15.0099 30.321 14.2605 30.6213L8.18685 15.4667ZM4.85438 17.6392C3.89715 18.5754 3.1339 19.6911 2.6083 20.9225L17.6241 27.3317C17.3072 28.0742 16.847 28.7469 16.2698 29.3114L4.85438 17.6392ZM2.6083 20.9225C2.08268 22.154 1.80503 23.477 1.79122 24.8158L18.1168 24.9842C18.1084 25.7915 17.941 26.5892 17.6241 27.3317L2.6083 20.9225ZM1.79079 24.9C1.79079 30.677 6.52698 35.0642 12 35.0642V18.7378C15.211 18.7378 18.1172 21.331 18.1172 24.9L1.79079 24.9ZM12 35.0642H24.501V18.7378H12V35.0642ZM24.4158 35.0638C25.7533 35.0777 27.0805 34.8281 28.3216 34.3291L22.2312 19.1812C22.9795 18.8803 23.7798 18.7298 24.5862 18.7382L24.4158 35.0638ZM28.3216 34.3291C29.5627 33.8301 30.6934 33.0915 31.649 32.1555L20.2249 20.4918C20.8011 19.9274 21.4828 19.4821 22.2312 19.1812L28.3216 34.3291ZM31.649 32.1555C32.6046 31.2196 33.3665 30.1045 33.8911 28.8741L18.873 22.4703C19.1894 21.7284 19.6487 21.0561 20.2249 20.4918L31.649 32.1555ZM33.8911 28.8741C34.4158 27.6436 34.693 26.3219 34.7068 24.9843L18.3812 24.8157C18.3896 24.0092 18.5567 23.2122 18.873 22.4703L33.8911 28.8741ZM34.7068 24.8157C34.693 23.4781 34.4158 22.1564 33.8911 20.9259L18.873 27.3297C18.5567 26.5878 18.3896 25.7908 18.3812 24.9843L34.7068 24.8157ZM33.8911 20.9259C33.3665 19.6955 32.6046 18.5804 31.649 17.6445L20.2249 29.3082C19.6487 28.7439 19.1894 28.0716 18.873 27.3297L33.8911 20.9259ZM31.649 17.6445C30.6934 16.7085 29.5627 15.9699 28.3216 15.4709L22.2312 30.6188C21.4828 30.3179 20.8011 29.8726 20.2249 29.3082L31.649 17.6445ZM28.3216 15.4709C27.0805 14.9719 25.7533 14.7223 24.4158 14.7362L24.5862 31.0618C23.7798 31.0702 22.9795 30.9197 22.2312 30.6188L28.3216 15.4709ZM41.25 22.1642C39.4422 22.1642 37.2928 20.6704 37.2928 18H53.6192C53.6192 10.9316 47.7198 5.83779 41.25 5.83779V22.1642ZM37.2928 18C37.2928 15.3288 39.4463 13.8358 41.25 13.8358V30.1622C47.7157 30.1622 53.6192 25.0752 53.6192 18H37.2928ZM41.25 13.8358C43.0578 13.8358 45.2072 15.3296 45.2072 18H28.8808C28.8808 25.0684 34.7802 30.1622 41.25 30.1622V13.8358ZM45.2072 18C45.2072 20.6712 43.0537 22.1642 41.25 22.1642V5.83779C34.7843 5.83779 28.8808 10.9248 28.8808 18H45.2072ZM24.501 4.23579H12V20.5622H24.501V4.23579ZM12.0973 4.23637C10.7585 4.22041 9.42965 4.46858 8.18685 4.96667L14.2605 20.1213C13.5112 20.4216 12.7099 20.5713 11.9027 20.5616L12.0973 4.23637ZM8.18685 4.96667C6.94405 5.46476 5.81163 6.203 4.85438 7.13919L16.2698 18.8114C15.6927 19.3758 15.0099 19.821 14.2605 20.1213L8.18685 4.96667ZM4.85438 7.13919C3.89715 8.07537 3.1339 9.19109 2.6083 10.4225L17.6241 16.8317C17.3072 17.5742 16.847 18.2469 16.2698 18.8114L4.85438 7.13919ZM2.6083 10.4225C2.08268 11.654 1.80503 12.977 1.79122 14.3158L18.1168 14.4842C18.1084 15.2915 17.941 16.0892 17.6241 16.8317L2.6083 10.4225ZM1.79079 14.4C1.79079 20.177 6.52698 24.5642 12 24.5642V8.23779C15.211 8.23779 18.1172 10.831 18.1172 14.4H1.79079ZM12 24.5642H24.501V8.23779H12V24.5642ZM24.4158 24.5638C25.7533 24.5777 27.0805 24.3281 28.3216 23.8291L22.2312 8.68121C22.9795 8.38033 23.7798 8.22982 24.5862 8.23823L24.4158 24.5638ZM28.3216 23.8291C29.5627 23.3301 30.6934 22.5915 31.649 21.6555L20.2249 9.99176C20.8011 9.42742 21.4828 8.98209 22.2312 8.68121L28.3216 23.8291ZM31.649 21.6555C32.6046 20.7196 33.3665 19.6045 33.8911 18.3741L18.873 11.9703C19.1894 11.2284 19.6487 10.5561 20.2249 9.99176L31.649 21.6555ZM33.8911 18.3741C34.4158 17.1436 34.693 15.8219 34.7068 14.4843L18.3812 14.3157C18.3896 13.5092 18.5567 12.7122 18.873 11.9703L33.8911 18.3741ZM34.7068 14.3157C34.693 12.9781 34.4158 11.6564 33.8911 10.4259L18.873 16.8297C18.5567 16.0878 18.3896 15.2908 18.3812 14.4843L34.7068 14.3157ZM33.8911 10.4259C33.3665 9.19549 32.6046 8.08044 31.649 7.14445L20.2249 18.8082C19.6487 18.2439 19.1894 17.5716 18.873 16.8297L33.8911 10.4259ZM31.649 7.14445C30.6933 6.20848 29.5627 5.46991 28.3216 4.97091L22.2312 20.1188C21.4829 19.8179 20.8011 19.3726 20.2249 18.8082L31.649 7.14445ZM28.3216 4.97091C27.0806 4.47192 25.7534 4.22227 24.4158 4.23623L24.5862 20.5618C23.7797 20.5702 22.9795 20.4197 22.2312 20.1188L28.3216 4.97091Z" fill="#FFB800" mask="url(#path-1-inside-1_167_1311)"/>
</svg>
