<svg width="76" height="49" viewBox="0 0 76 49" fill="none" xmlns="http://www.w3.org/2000/svg">
<path d="M74.2422 36.2668V7.82886H31.6462V36.2668H74.2422Z" fill="#FFB800" stroke="#FFB800" stroke-width="1.02128"/>
<path d="M28.4619 39.45H74.8398L73.0484 41.9967H0.993477V24.1699L11.9411 20.5621C11.9411 12.5826 15.7893 10.0217 17.7134 9.73877H28.4619V39.45Z" fill="#FFB800" stroke="#FFB800" stroke-width="1.02128"/>
<ellipse cx="4.77712" cy="5.09335" rx="4.77712" ry="5.09335" transform="matrix(-1 0 0 1 67.873 38.8135)" fill="#373737"/>
<ellipse cx="3.58284" cy="3.82002" rx="3.58284" ry="3.82002" transform="matrix(-1 0 0 1 66.6797 40.0869)" fill="#FFB800"/>
<ellipse cx="4.77712" cy="5.09335" rx="4.77712" ry="5.09335" transform="matrix(-1 0 0 1 56.7266 38.8135)" fill="#373737"/>
<ellipse cx="4.77712" cy="5.09335" rx="4.77712" ry="5.09335" transform="matrix(-1 0 0 1 18.5098 38.8135)" fill="#373737"/>
<ellipse cx="3.58284" cy="3.82002" rx="3.58284" ry="3.82002" transform="matrix(-1 0 0 1 55.5312 40.0869)" fill="#FFB800"/>
<ellipse cx="3.58284" cy="3.82002" rx="3.58284" ry="3.82002" transform="matrix(-1 0 0 1 17.3164 40.0869)" fill="#FFB800"/>
<path d="M23.6855 21.8354V13.3464H17.316C14.893 13.3464 13.8382 18.4651 13.5695 21.4003C13.5479 21.6362 13.7355 21.8354 13.9724 21.8354H23.6855Z" fill="#FFB800" stroke="#FFB800" stroke-width="1.02128"/>
<path d="M29.6579 31.8101V3.79661C29.7243 2.73549 30.6531 0.698149 33.8379 1.03771" stroke="#FFB800" stroke-width="1.02128"/>
<path d="M58.1078 23.9899V28.4473H58.4805V29.883H47.5301V28.4473H47.9027V24.0066L51.2567 22.0366V23.9064L54.3812 22.0366V24.0066H55.4419L55.6999 17.7294C55.6311 17.7161 55.6139 17.6793 55.6139 17.6627V17.3622C55.6139 17.2954 55.6903 17.2898 55.7285 17.2954V16.9949H56.7892V17.2954C56.8465 17.282 56.8895 17.3343 56.9038 17.3622V17.6627C56.9038 17.7027 56.837 17.735 56.8035 17.7461L57.0758 23.9899H58.1078Z" fill="#1E1E1E"/>
<rect width="0.659317" height="0.767947" transform="matrix(-1 0 0 1 56.9336 25.6426)" fill="#1E1E1E"/>
<rect width="0.659316" height="0.767947" transform="matrix(-1 0 0 1 56.9336 26.7444)" fill="#1E1E1E"/>
<rect width="0.659317" height="0.767947" transform="matrix(-1 0 0 1 56.0156 25.6426)" fill="#1E1E1E"/>
<rect width="0.659317" height="0.767947" transform="matrix(-1 0 0 1 56.0156 26.7444)" fill="#1E1E1E"/>
<rect width="0.659317" height="0.767947" transform="matrix(-1 0 0 1 54.8398 25.6426)" fill="#1E1E1E"/>
<rect width="0.659316" height="0.767947" transform="matrix(-1 0 0 1 54.8398 26.7444)" fill="#1E1E1E"/>
<rect width="0.659316" height="0.767947" transform="matrix(-1 0 0 1 53.9219 25.6426)" fill="#1E1E1E"/>
<rect width="0.659316" height="0.767947" transform="matrix(-1 0 0 1 53.9219 26.7444)" fill="#1E1E1E"/>
<rect width="0.659316" height="0.767947" transform="matrix(-1 0 0 1 52.748 25.6426)" fill="#1E1E1E"/>
<rect width="0.659317" height="0.767947" transform="matrix(-1 0 0 1 52.748 26.7444)" fill="#1E1E1E"/>
<rect width="0.659316" height="0.767947" transform="matrix(-1 0 0 1 51.8301 25.6426)" fill="#1E1E1E"/>
<rect width="0.659316" height="0.767947" transform="matrix(-1 0 0 1 51.8301 26.7444)" fill="#1E1E1E"/>
<rect width="0.659317" height="0.767947" transform="matrix(-1 0 0 1 50.6562 25.6426)" fill="#1E1E1E"/>
<rect width="0.659317" height="0.767947" transform="matrix(-1 0 0 1 50.6562 26.7444)" fill="#1E1E1E"/>
<rect width="0.659316" height="0.767947" transform="matrix(-1 0 0 1 49.7383 25.6426)" fill="#1E1E1E"/>
<rect width="0.659316" height="0.767947" transform="matrix(-1 0 0 1 49.7383 26.7444)" fill="#1E1E1E"/>
<path d="M54.0946 13.7229C55.2298 13.3623 55.504 14.0735 55.4993 14.4741C56.3822 14.7145 56.5647 15.4424 56.5456 15.7763C56.3592 16.8948 55.0119 16.3773 54.7539 15.8598C53.6073 16.5108 53.1487 15.7373 53.12 15.3422C52.0737 16.0434 51.0847 15.4424 50.9987 15.2421C50.391 15.7095 49.7135 15.7039 49.4507 15.6427C48.0748 15.3222 48.113 13.9065 48.3041 13.2387C49.015 11.3556 51.658 11.9199 51.873 12.9549C53.4324 12.3539 54.0039 13.2165 54.0946 13.7229Z" fill="#1E1E1E"/>
</svg>
