<svg width="808" height="246" viewBox="0 0 808 246" fill="none" xmlns="http://www.w3.org/2000/svg">
<path d="M10.5137 101.189V82.1245V81.7189H545.232L546.659 101.189H10.5137Z" fill="#9D9797" stroke="#9D9797"/>
<path d="M10.5137 101.189V82.1245V81.7189H545.232L546.659 101.189H10.5137Z" fill="#9D9797" stroke="#9D9797"/>
<rect x="53.8047" y="83.7469" width="25.6893" height="15.4137" fill="#373D3E"/>
<rect x="81.3965" y="83.7469" width="25.6893" height="15.4137" fill="#373D3E"/>
<rect x="108.99" y="83.7469" width="25.6893" height="15.4137" fill="#373D3E"/>
<rect x="136.582" y="83.7469" width="25.6893" height="15.4137" fill="#373D3E"/>
<rect x="164.174" y="83.7469" width="25.6893" height="15.4137" fill="#373D3E"/>
<rect x="191.766" y="83.7469" width="25.6893" height="15.4137" fill="#373D3E"/>
<rect x="219.359" y="83.7469" width="25.6893" height="15.4137" fill="#373D3E"/>
<rect x="246.951" y="83.7469" width="25.6893" height="15.4137" fill="#373D3E"/>
<rect x="274.543" y="83.7469" width="25.6893" height="15.4137" fill="#373D3E"/>
<rect x="302.135" y="83.7469" width="25.6893" height="15.4137" fill="#373D3E"/>
<rect x="329.727" y="83.7469" width="25.6893" height="15.4137" fill="#373D3E"/>
<rect x="357.32" y="83.7469" width="25.6893" height="15.4137" fill="#373D3E"/>
<rect x="400.135" y="83.7469" width="25.6893" height="15.4137" fill="#373D3E"/>
<rect x="427.727" y="83.7469" width="25.6893" height="15.4137" fill="#373D3E"/>
<rect x="455.32" y="83.7469" width="25.6893" height="15.4137" fill="#373D3E"/>
<rect x="482.912" y="83.7469" width="25.6893" height="15.4137" fill="#373D3E"/>
<rect x="510.504" y="83.7469" width="25.6893" height="15.4137" fill="#373D3E"/>
<rect x="26.2129" y="83.7469" width="25.6893" height="15.4137" fill="#373D3E"/>
<rect x="53.8047" y="83.7469" width="25.6893" height="15.4137" fill="#373D3E"/>
<rect x="81.3965" y="83.7469" width="25.6893" height="15.4137" fill="#373D3E"/>
<rect x="108.99" y="83.7469" width="25.6893" height="15.4137" fill="#373D3E"/>
<rect x="136.582" y="83.7469" width="25.6893" height="15.4137" fill="#373D3E"/>
<rect x="164.174" y="83.7469" width="25.6893" height="15.4137" fill="#373D3E"/>
<rect x="191.766" y="83.7469" width="25.6893" height="15.4137" fill="#373D3E"/>
<rect x="219.359" y="83.7469" width="25.6893" height="15.4137" fill="#373D3E"/>
<rect x="246.951" y="83.7469" width="25.6893" height="15.4137" fill="#373D3E"/>
<rect x="274.543" y="83.7469" width="25.6893" height="15.4137" fill="#373D3E"/>
<rect x="302.135" y="83.7469" width="25.6893" height="15.4137" fill="#373D3E"/>
<rect x="329.727" y="83.7469" width="25.6893" height="15.4137" fill="#373D3E"/>
<rect x="357.32" y="83.7469" width="25.6893" height="15.4137" fill="#373D3E"/>
<rect x="400.135" y="83.7469" width="25.6893" height="15.4137" fill="#373D3E"/>
<rect x="427.727" y="83.7469" width="25.6893" height="15.4137" fill="#373D3E"/>
<rect x="455.32" y="83.7469" width="25.6893" height="15.4137" fill="#373D3E"/>
<rect x="482.912" y="83.7469" width="25.6893" height="15.4137" fill="#373D3E"/>
<rect x="510.504" y="83.7469" width="25.6893" height="15.4137" fill="#373D3E"/>
<rect x="26.2129" y="83.7469" width="25.6893" height="15.4137" fill="#373D3E"/>
<rect x="53.8047" y="83.7469" width="25.6893" height="15.4137" fill="#373D3E"/>
<rect x="81.3965" y="83.7469" width="25.6893" height="15.4137" fill="#373D3E"/>
<rect x="108.99" y="83.7469" width="25.6893" height="15.4137" fill="#373D3E"/>
<rect x="136.582" y="83.7469" width="25.6893" height="15.4137" fill="#373D3E"/>
<rect x="164.174" y="83.7469" width="25.6893" height="15.4137" fill="#373D3E"/>
<rect x="191.766" y="83.7469" width="25.6893" height="15.4137" fill="#373D3E"/>
<rect x="219.359" y="83.7469" width="25.6893" height="15.4137" fill="#373D3E"/>
<rect x="246.951" y="83.7469" width="25.6893" height="15.4137" fill="#373D3E"/>
<rect x="274.543" y="83.7469" width="25.6893" height="15.4137" fill="#373D3E"/>
<rect x="302.135" y="83.7469" width="25.6893" height="15.4137" fill="#373D3E"/>
<rect x="329.727" y="83.7469" width="25.6893" height="15.4137" fill="#373D3E"/>
<rect x="357.32" y="83.7469" width="25.6893" height="15.4137" fill="#373D3E"/>
<rect x="400.135" y="83.7469" width="25.6893" height="15.4137" fill="#373D3E"/>
<rect x="427.727" y="83.7469" width="25.6893" height="15.4137" fill="#373D3E"/>
<rect x="455.32" y="83.7469" width="25.6893" height="15.4137" fill="#373D3E"/>
<rect x="482.912" y="83.7469" width="25.6893" height="15.4137" fill="#373D3E"/>
<rect x="510.504" y="83.7469" width="25.6893" height="15.4137" fill="#373D3E"/>
<rect x="26.2129" y="83.7469" width="25.6893" height="15.4137" fill="#373D3E"/>
<path d="M536.669 68.739H7.18361C-1.1892 73.282 3.69494 77.9331 7.18361 79.6908H536.669C545.422 74.4989 540.316 70.2263 536.669 68.739Z" fill="#353535" stroke="#353535"/>
<path d="M154.184 1V101.594H164.65V1H154.184Z" fill="#C29F22" stroke="#C29F22"/>
<path d="M164.65 1.40564H207.466V102H164.65V1.40564Z" fill="#84837C" stroke="#84837C"/>
<path d="M362.078 34.261L383.01 35.1187V101.594L362.078 100.308V34.261Z" fill="#C29F22" stroke="#C29F22"/>
<path d="M382.059 35.0723V101.594H448.661V35.0723H382.059Z" fill="#84837C" stroke="#84837C"/>
<path d="M589 1.40564H583.291V102H589V1.40564Z" fill="#C29F22" stroke="#C29F22"/>
<path d="M540.951 1.40564V102H583.291V1.40564H540.951Z" fill="#84837C" stroke="#84837C"/>
<rect x="168.932" y="4.245" width="36.1553" height="15.4137" fill="#228ECC"/>
<rect x="168.932" y="21.2811" width="36.1553" height="28.3936" fill="#228ECC"/>
<rect x="168.932" y="52.9197" width="36.1553" height="22.7149" fill="#228ECC"/>
<rect x="384.912" y="46.4297" width="25.6893" height="24.3373" fill="#228ECC"/>
<rect x="413.457" y="46.4297" width="30.4466" height="24.3373" fill="#228ECC"/>
<rect x="543.807" y="3.43372" width="35.2039" height="16.2249" fill="#228ECC"/>
<rect x="543.807" y="22.0924" width="35.2039" height="27.5823" fill="#228ECC"/>
<rect x="543.807" y="52.9197" width="35.2039" height="22.7149" fill="#228ECC"/>
<rect x="561.883" y="79.6908" width="16.1747" height="20.2811" fill="#228ECC"/>
<rect x="544.758" y="79.6908" width="16.1747" height="20.2811" fill="#228ECC"/>
<path d="M47.6214 101.189H1L5.28155 81.3133H14.7961C9.72168 65.7644 3.56893 35.8024 19.5534 40.3454L55.233 1.40564L78.068 29.7992C81.7152 29.664 87.5825 31.5839 81.8738 40.3454C82.1909 36.9652 81.8738 30.5293 78.068 31.8273C77.4337 32.909 75.5942 34.7478 73.3107 33.4498C72.0421 34.1259 70.7417 36.6137 75.6893 41.1566C72.3592 40.6158 66.8408 37.9928 71.4078 31.8273L55.233 8.30122L28.1165 43.1848C30.3366 43.8608 36.5845 52.4329 43.8155 81.3133L47.6214 101.189Z" fill="#B66A10"/>
<path d="M43.8155 81.3133L47.6214 101.189H1L5.28155 81.3133H14.7961M43.8155 81.3133H14.7961M43.8155 81.3133C36.5845 52.4329 30.3366 43.8608 28.1165 43.1848L55.233 8.30122L71.4078 31.8273C66.8408 37.9928 72.3592 40.6158 75.6893 41.1566C70.7417 36.6137 72.0421 34.1259 73.3107 33.4498C75.5942 34.7478 77.4337 32.909 78.068 31.8273C81.8738 30.5293 82.1909 36.9652 81.8738 40.3454C87.5825 31.5839 81.7152 29.664 78.068 29.7992L55.233 1.40564L19.5534 40.3454C3.56893 35.8024 9.72168 65.7644 14.7961 81.3133" stroke="#B66A10"/>
<path d="M304.521 101.594H351.143L346.861 81.7189H337.346C342.421 66.17 348.574 36.208 332.589 40.751L296.91 1.81128L274.075 30.2049C270.427 30.0696 264.56 31.9896 270.269 40.751C269.952 37.3708 270.269 30.935 274.075 32.233C274.709 33.3146 276.548 35.1534 278.832 33.8555C280.1 34.5315 281.401 37.0193 276.453 41.5623C279.783 41.0215 285.302 38.3984 280.735 32.233L296.91 8.70686L324.026 43.5904C321.806 44.2664 315.558 52.8386 308.327 81.7189L304.521 101.594Z" fill="#B66A10"/>
<path d="M308.327 81.7189L304.521 101.594H351.143L346.861 81.7189H337.346M308.327 81.7189H337.346M308.327 81.7189C315.558 52.8386 321.806 44.2664 324.026 43.5904L296.91 8.70686L280.735 32.233C285.302 38.3984 279.783 41.0215 276.453 41.5623C281.401 37.0193 280.1 34.5315 278.832 33.8555C276.548 35.1534 274.709 33.3146 274.075 32.233C270.269 30.935 269.952 37.3708 270.269 40.751C264.56 31.9896 270.427 30.0696 274.075 30.2049L296.91 1.81128L332.589 40.751C348.574 36.208 342.421 66.17 337.346 81.7189" stroke="#B66A10"/>
<path d="M493.861 100.783H540.482L536.201 80.9076H526.686C531.761 65.3588 537.913 35.3968 521.929 39.9397L486.249 1L463.414 29.3936C459.767 29.2584 453.9 31.1783 459.609 39.9397C459.291 36.5596 459.609 30.1237 463.414 31.4217C464.049 32.5033 465.888 34.3422 468.172 33.0442C469.44 33.7202 470.741 36.208 465.793 40.751C469.123 40.2102 474.642 37.5872 470.075 31.4217L486.249 7.89558L513.366 42.7791C511.146 43.4551 504.898 52.0273 497.667 80.9076L493.861 100.783Z" fill="#B66A10"/>
<path d="M497.667 80.9076L493.861 100.783H540.482L536.201 80.9076H526.686M497.667 80.9076H526.686M497.667 80.9076C504.898 52.0273 511.146 43.4551 513.366 42.7791L486.249 7.89558L470.075 31.4217C474.642 37.5872 469.123 40.2102 465.793 40.751C470.741 36.208 469.44 33.7202 468.172 33.0442C465.888 34.3422 464.049 32.5033 463.414 31.4217C459.609 30.1237 459.291 36.5596 459.609 39.9397C453.9 31.1783 459.767 29.2584 463.414 29.3936L486.249 1L521.929 39.9397C537.913 35.3968 531.761 65.3588 526.686 80.9076" stroke="#B66A10"/>
<path d="M10.5137 244.189V225.124V224.719H545.232L546.659 244.189H10.5137Z" fill="#E5E5E5" stroke="#E5E5E5"/>
<path d="M10.5137 244.189V225.125V224.719H545.232L546.659 244.189H10.5137Z" fill="#E5E5E5" stroke="#E5E5E5"/>
<rect x="53.8047" y="226.747" width="25.6893" height="15.4137" fill="#6E8386"/>
<rect x="81.3965" y="226.747" width="25.6893" height="15.4137" fill="#6E8386"/>
<rect x="108.99" y="226.747" width="25.6893" height="15.4137" fill="#6E8386"/>
<rect x="136.582" y="226.747" width="25.6893" height="15.4137" fill="#6E8386"/>
<rect x="164.174" y="226.747" width="25.6893" height="15.4137" fill="#6E8386"/>
<rect x="191.766" y="226.747" width="25.6893" height="15.4137" fill="#6E8386"/>
<rect x="219.359" y="226.747" width="25.6893" height="15.4137" fill="#6E8386"/>
<rect x="246.951" y="226.747" width="25.6893" height="15.4137" fill="#6E8386"/>
<rect x="274.543" y="226.747" width="25.6893" height="15.4137" fill="#6E8386"/>
<rect x="302.135" y="226.747" width="25.6893" height="15.4137" fill="#6E8386"/>
<rect x="329.727" y="226.747" width="25.6893" height="15.4137" fill="#6E8386"/>
<rect x="357.32" y="226.747" width="25.6893" height="15.4137" fill="#6E8386"/>
<rect x="400.135" y="226.747" width="25.6893" height="15.4137" fill="#6E8386"/>
<rect x="427.727" y="226.747" width="25.6893" height="15.4137" fill="#6E8386"/>
<rect x="455.32" y="226.747" width="25.6893" height="15.4137" fill="#6E8386"/>
<rect x="482.912" y="226.747" width="25.6893" height="15.4137" fill="#6E8386"/>
<rect x="510.504" y="226.747" width="25.6893" height="15.4137" fill="#6E8386"/>
<rect x="26.2129" y="226.747" width="25.6893" height="15.4137" fill="#6E8386"/>
<rect x="53.8047" y="226.747" width="25.6893" height="15.4137" fill="#6E8386"/>
<rect x="81.3965" y="226.747" width="25.6893" height="15.4137" fill="#6E8386"/>
<rect x="108.99" y="226.747" width="25.6893" height="15.4137" fill="#6E8386"/>
<rect x="136.582" y="226.747" width="25.6893" height="15.4137" fill="#6E8386"/>
<rect x="164.174" y="226.747" width="25.6893" height="15.4137" fill="#6E8386"/>
<rect x="191.766" y="226.747" width="25.6893" height="15.4137" fill="#6E8386"/>
<rect x="219.359" y="226.747" width="25.6893" height="15.4137" fill="#6E8386"/>
<rect x="246.951" y="226.747" width="25.6893" height="15.4137" fill="#6E8386"/>
<rect x="274.543" y="226.747" width="25.6893" height="15.4137" fill="#6E8386"/>
<rect x="302.135" y="226.747" width="25.6893" height="15.4137" fill="#6E8386"/>
<rect x="329.727" y="226.747" width="25.6893" height="15.4137" fill="#6E8386"/>
<rect x="357.32" y="226.747" width="25.6893" height="15.4137" fill="#6E8386"/>
<rect x="400.135" y="226.747" width="25.6893" height="15.4137" fill="#6E8386"/>
<rect x="427.727" y="226.747" width="25.6893" height="15.4137" fill="#6E8386"/>
<rect x="455.32" y="226.747" width="25.6893" height="15.4137" fill="#6E8386"/>
<rect x="482.912" y="226.747" width="25.6893" height="15.4137" fill="#6E8386"/>
<rect x="510.504" y="226.747" width="25.6893" height="15.4137" fill="#6E8386"/>
<rect x="26.2129" y="226.747" width="25.6893" height="15.4137" fill="#6E8386"/>
<rect x="53.8047" y="226.747" width="25.6893" height="15.4137" fill="#6E8386"/>
<rect x="81.3965" y="226.747" width="25.6893" height="15.4137" fill="#6E8386"/>
<rect x="108.99" y="226.747" width="25.6893" height="15.4137" fill="#6E8386"/>
<rect x="136.582" y="226.747" width="25.6893" height="15.4137" fill="#6E8386"/>
<rect x="164.174" y="226.747" width="25.6893" height="15.4137" fill="#6E8386"/>
<rect x="191.766" y="226.747" width="25.6893" height="15.4137" fill="#6E8386"/>
<rect x="219.359" y="226.747" width="25.6893" height="15.4137" fill="#6E8386"/>
<rect x="246.951" y="226.747" width="25.6893" height="15.4137" fill="#6E8386"/>
<rect x="274.543" y="226.747" width="25.6893" height="15.4137" fill="#6E8386"/>
<rect x="302.135" y="226.747" width="25.6893" height="15.4137" fill="#6E8386"/>
<rect x="329.727" y="226.747" width="25.6893" height="15.4137" fill="#6E8386"/>
<rect x="357.32" y="226.747" width="25.6893" height="15.4137" fill="#6E8386"/>
<rect x="400.135" y="226.747" width="25.6893" height="15.4137" fill="#6E8386"/>
<rect x="427.727" y="226.747" width="25.6893" height="15.4137" fill="#6E8386"/>
<rect x="455.32" y="226.747" width="25.6893" height="15.4137" fill="#6E8386"/>
<rect x="482.912" y="226.747" width="25.6893" height="15.4137" fill="#6E8386"/>
<rect x="510.504" y="226.747" width="25.6893" height="15.4137" fill="#6E8386"/>
<rect x="26.2129" y="226.747" width="25.6893" height="15.4137" fill="#6E8386"/>
<path d="M536.669 211.739H7.18361C-1.1892 216.282 3.69494 220.933 7.18361 222.691H536.669C545.422 217.499 540.316 213.226 536.669 211.739Z" fill="#353535" stroke="#353535"/>
<path d="M154.184 144V244.594H164.65V144H154.184Z" fill="#6F6F6F" stroke="#6F6F6F"/>
<path d="M164.65 144.406H207.466V245H164.65V144.406Z" fill="#B9B8AC" stroke="#B9B8AC"/>
<path d="M362.078 177.261L383.01 178.119V244.594L362.078 243.308V177.261Z" fill="#6F6F6F" stroke="#6F6F6F"/>
<path d="M382.059 178.072V244.594H448.661V178.072H382.059Z" fill="#B9B8AC" stroke="#B9B8AC"/>
<path d="M589 144.406H583.291V245H589V144.406Z" fill="#6F6F6F" stroke="#6F6F6F"/>
<path d="M540.951 144.406V245H583.291V144.406H540.951Z" fill="#B9B8AC" stroke="#B9B8AC"/>
<rect x="168.932" y="147.245" width="36.1553" height="15.4137" fill="#74CBFC"/>
<rect x="168.932" y="164.281" width="36.1553" height="28.3936" fill="#74CBFC"/>
<rect x="168.932" y="195.92" width="36.1553" height="22.7149" fill="#74CBFC"/>
<rect x="384.912" y="189.43" width="25.6893" height="24.3373" fill="#74CBFC"/>
<rect x="413.457" y="189.43" width="30.4466" height="24.3373" fill="#74CBFC"/>
<rect x="543.807" y="146.434" width="35.2039" height="16.2249" fill="#74CBFC"/>
<rect x="543.807" y="165.092" width="35.2039" height="27.5823" fill="#74CBFC"/>
<rect x="543.807" y="195.92" width="35.2039" height="22.7149" fill="#74CBFC"/>
<rect x="561.883" y="222.691" width="16.1747" height="20.2811" fill="#74CBFC"/>
<rect x="544.758" y="222.691" width="16.1747" height="20.2811" fill="#74CBFC"/>
<path d="M47.6214 244.189H1L5.28155 224.313H14.7961C9.72168 208.764 3.56893 178.802 19.5534 183.345L55.233 144.406L78.068 172.799C81.7152 172.664 87.5825 174.584 81.8738 183.345C82.1909 179.965 81.8738 173.529 78.068 174.827C77.4337 175.909 75.5942 177.748 73.3107 176.45C72.0421 177.126 70.7417 179.614 75.6893 184.157C72.3592 183.616 66.8408 180.993 71.4078 174.827L55.233 151.301L28.1165 186.185C30.3366 186.861 36.5845 195.433 43.8155 224.313L47.6214 244.189Z" fill="#E29234"/>
<path d="M43.8155 224.313L47.6214 244.189H1L5.28155 224.313H14.7961M43.8155 224.313H14.7961M43.8155 224.313C36.5845 195.433 30.3366 186.861 28.1165 186.185L55.233 151.301L71.4078 174.827C66.8408 180.993 72.3592 183.616 75.6893 184.157C70.7417 179.614 72.0421 177.126 73.3107 176.45C75.5942 177.748 77.4337 175.909 78.068 174.827C81.8738 173.529 82.1909 179.965 81.8738 183.345C87.5825 174.584 81.7152 172.664 78.068 172.799L55.233 144.406L19.5534 183.345C3.56893 178.802 9.72168 208.764 14.7961 224.313" stroke="#E29234"/>
<path d="M304.521 244.594H351.143L346.861 224.719H337.346C342.421 209.17 348.574 179.208 332.589 183.751L296.91 144.811L274.075 173.205C270.427 173.07 264.56 174.99 270.269 183.751C269.952 180.371 270.269 173.935 274.075 175.233C274.709 176.315 276.548 178.153 278.832 176.855C280.1 177.531 281.401 180.019 276.453 184.562C279.783 184.021 285.302 181.398 280.735 175.233L296.91 151.707L324.026 186.59C321.806 187.266 315.558 195.839 308.327 224.719L304.521 244.594Z" fill="#E29234"/>
<path d="M308.327 224.719L304.521 244.594H351.143L346.861 224.719H337.346M308.327 224.719H337.346M308.327 224.719C315.558 195.839 321.806 187.266 324.026 186.59L296.91 151.707L280.735 175.233C285.302 181.398 279.783 184.021 276.453 184.562C281.401 180.019 280.1 177.531 278.832 176.855C276.548 178.153 274.709 176.315 274.075 175.233C270.269 173.935 269.952 180.371 270.269 183.751C264.56 174.99 270.427 173.07 274.075 173.205L296.91 144.811L332.589 183.751C348.574 179.208 342.421 209.17 337.346 224.719" stroke="#E29234"/>
<path d="M493.861 243.783H540.482L536.201 223.908H526.686C531.761 208.359 537.913 178.397 521.929 182.94L486.249 144L463.414 172.394C459.767 172.258 453.9 174.178 459.609 182.94C459.291 179.56 459.609 173.124 463.414 174.422C464.049 175.503 465.888 177.342 468.172 176.044C469.44 176.72 470.741 179.208 465.793 183.751C469.123 183.21 474.642 180.587 470.075 174.422L486.249 150.896L513.366 185.779C511.146 186.455 504.898 195.027 497.667 223.908L493.861 243.783Z" fill="#E29234"/>
<path d="M497.667 223.908L493.861 243.783H540.482L536.201 223.908H526.686M497.667 223.908H526.686M497.667 223.908C504.898 195.027 511.146 186.455 513.366 185.779L486.249 150.896L470.075 174.422C474.642 180.587 469.123 183.21 465.793 183.751C470.741 179.208 469.44 176.72 468.172 176.044C465.888 177.342 464.049 175.503 463.414 174.422C459.609 173.124 459.291 179.56 459.609 182.94C453.9 174.178 459.767 172.258 463.414 172.394L486.249 144L521.929 182.94C537.913 178.397 531.761 208.359 526.686 223.908" stroke="#E29234"/>
<path d="M621 50C677 73.8333 755.4 139.1 621 209.5" stroke="#E21212" stroke-width="5"/>
<path d="M720.705 104.875V103.364H729.71V104.875H726.08V115H724.33V104.875H720.705ZM730.658 115V106.273H732.3V107.659H732.391C732.55 107.189 732.83 106.82 733.232 106.551C733.637 106.278 734.095 106.142 734.607 106.142C734.713 106.142 734.838 106.146 734.982 106.153C735.129 106.161 735.245 106.17 735.328 106.182V107.807C735.26 107.788 735.139 107.767 734.964 107.744C734.79 107.718 734.616 107.705 734.442 107.705C734.04 107.705 733.682 107.79 733.368 107.96C733.057 108.127 732.811 108.36 732.629 108.659C732.447 108.955 732.357 109.292 732.357 109.67V115H730.658ZM740.162 115.176C739.344 115.176 738.63 114.989 738.02 114.614C737.41 114.239 736.937 113.714 736.599 113.04C736.262 112.366 736.094 111.578 736.094 110.676C736.094 109.771 736.262 108.979 736.599 108.301C736.937 107.623 737.41 107.097 738.02 106.722C738.63 106.347 739.344 106.159 740.162 106.159C740.98 106.159 741.694 106.347 742.304 106.722C742.914 107.097 743.387 107.623 743.724 108.301C744.062 108.979 744.23 109.771 744.23 110.676C744.23 111.578 744.062 112.366 743.724 113.04C743.387 113.714 742.914 114.239 742.304 114.614C741.694 114.989 740.98 115.176 740.162 115.176ZM740.168 113.75C740.698 113.75 741.137 113.61 741.486 113.33C741.834 113.049 742.092 112.676 742.259 112.21C742.429 111.744 742.514 111.231 742.514 110.67C742.514 110.114 742.429 109.602 742.259 109.136C742.092 108.667 741.834 108.29 741.486 108.006C741.137 107.722 740.698 107.58 740.168 107.58C739.634 107.58 739.19 107.722 738.838 108.006C738.49 108.29 738.23 108.667 738.06 109.136C737.893 109.602 737.81 110.114 737.81 110.67C737.81 111.231 737.893 111.744 738.06 112.21C738.23 112.676 738.49 113.049 738.838 113.33C739.19 113.61 739.634 113.75 740.168 113.75ZM749.803 115.176C748.958 115.176 748.231 114.985 747.621 114.602C747.015 114.216 746.549 113.684 746.223 113.006C745.897 112.328 745.734 111.551 745.734 110.676C745.734 109.79 745.901 109.008 746.234 108.33C746.568 107.648 747.037 107.116 747.643 106.733C748.25 106.35 748.964 106.159 749.786 106.159C750.448 106.159 751.039 106.282 751.558 106.528C752.077 106.771 752.496 107.112 752.814 107.551C753.136 107.991 753.327 108.504 753.388 109.091H751.734C751.643 108.682 751.435 108.33 751.109 108.034C750.787 107.739 750.356 107.591 749.814 107.591C749.34 107.591 748.926 107.716 748.57 107.966C748.217 108.212 747.943 108.564 747.746 109.023C747.549 109.477 747.45 110.015 747.45 110.636C747.45 111.273 747.547 111.822 747.74 112.284C747.933 112.746 748.206 113.104 748.558 113.358C748.914 113.612 749.333 113.739 749.814 113.739C750.136 113.739 750.428 113.68 750.689 113.562C750.954 113.441 751.176 113.269 751.354 113.045C751.536 112.822 751.662 112.553 751.734 112.239H753.388C753.327 112.803 753.143 113.307 752.837 113.75C752.53 114.193 752.119 114.542 751.604 114.795C751.092 115.049 750.492 115.176 749.803 115.176ZM757.744 115.193C757.191 115.193 756.691 115.091 756.244 114.886C755.797 114.678 755.443 114.377 755.182 113.983C754.924 113.589 754.795 113.106 754.795 112.534C754.795 112.042 754.89 111.636 755.08 111.318C755.269 111 755.525 110.748 755.847 110.562C756.169 110.377 756.528 110.237 756.926 110.142C757.324 110.047 757.729 109.975 758.142 109.926C758.665 109.866 759.089 109.816 759.415 109.778C759.741 109.737 759.977 109.67 760.125 109.58C760.273 109.489 760.347 109.341 760.347 109.136V109.097C760.347 108.6 760.206 108.216 759.926 107.943C759.65 107.67 759.237 107.534 758.688 107.534C758.116 107.534 757.665 107.661 757.335 107.915C757.009 108.165 756.784 108.443 756.659 108.75L755.062 108.386C755.252 107.856 755.528 107.428 755.892 107.102C756.259 106.773 756.682 106.534 757.159 106.386C757.636 106.235 758.138 106.159 758.665 106.159C759.013 106.159 759.383 106.201 759.773 106.284C760.167 106.364 760.534 106.511 760.875 106.727C761.22 106.943 761.502 107.252 761.722 107.653C761.941 108.051 762.051 108.568 762.051 109.205V115H760.392V113.807H760.324C760.214 114.027 760.049 114.242 759.83 114.455C759.61 114.667 759.328 114.843 758.983 114.983C758.638 115.123 758.225 115.193 757.744 115.193ZM758.114 113.83C758.583 113.83 758.985 113.737 759.318 113.551C759.655 113.366 759.911 113.123 760.085 112.824C760.263 112.521 760.352 112.197 760.352 111.852V110.727C760.292 110.788 760.174 110.845 760 110.898C759.83 110.947 759.634 110.991 759.415 111.028C759.195 111.062 758.981 111.095 758.773 111.125C758.564 111.152 758.39 111.174 758.25 111.193C757.92 111.235 757.619 111.305 757.347 111.403C757.078 111.502 756.862 111.644 756.699 111.83C756.54 112.011 756.46 112.254 756.46 112.557C756.46 112.977 756.616 113.295 756.926 113.511C757.237 113.723 757.633 113.83 758.114 113.83ZM767.581 115.17C766.876 115.17 766.248 114.991 765.695 114.631C765.145 114.267 764.714 113.75 764.399 113.08C764.089 112.405 763.933 111.597 763.933 110.653C763.933 109.71 764.09 108.903 764.405 108.233C764.723 107.562 765.159 107.049 765.712 106.693C766.265 106.337 766.892 106.159 767.592 106.159C768.134 106.159 768.57 106.25 768.899 106.432C769.232 106.61 769.49 106.818 769.672 107.057C769.857 107.295 770.001 107.506 770.104 107.688H770.206V103.364H771.905V115H770.246V113.642H770.104C770.001 113.828 769.854 114.04 769.661 114.278C769.471 114.517 769.21 114.725 768.876 114.903C768.543 115.081 768.111 115.17 767.581 115.17ZM767.956 113.722C768.445 113.722 768.857 113.593 769.195 113.335C769.536 113.074 769.793 112.712 769.967 112.25C770.145 111.788 770.234 111.25 770.234 110.636C770.234 110.03 770.147 109.5 769.973 109.045C769.799 108.591 769.543 108.237 769.206 107.983C768.869 107.729 768.452 107.602 767.956 107.602C767.445 107.602 767.018 107.735 766.678 108C766.337 108.265 766.079 108.627 765.905 109.085C765.734 109.544 765.649 110.061 765.649 110.636C765.649 111.22 765.736 111.744 765.911 112.21C766.085 112.676 766.342 113.045 766.683 113.318C767.028 113.587 767.452 113.722 767.956 113.722ZM778.006 115.176C777.188 115.176 776.473 114.989 775.864 114.614C775.254 114.239 774.78 113.714 774.443 113.04C774.106 112.366 773.938 111.578 773.938 110.676C773.938 109.771 774.106 108.979 774.443 108.301C774.78 107.623 775.254 107.097 775.864 106.722C776.473 106.347 777.188 106.159 778.006 106.159C778.824 106.159 779.538 106.347 780.148 106.722C780.758 107.097 781.231 107.623 781.568 108.301C781.905 108.979 782.074 109.771 782.074 110.676C782.074 111.578 781.905 112.366 781.568 113.04C781.231 113.714 780.758 114.239 780.148 114.614C779.538 114.989 778.824 115.176 778.006 115.176ZM778.011 113.75C778.542 113.75 778.981 113.61 779.33 113.33C779.678 113.049 779.936 112.676 780.102 112.21C780.273 111.744 780.358 111.231 780.358 110.67C780.358 110.114 780.273 109.602 780.102 109.136C779.936 108.667 779.678 108.29 779.33 108.006C778.981 107.722 778.542 107.58 778.011 107.58C777.477 107.58 777.034 107.722 776.682 108.006C776.333 108.29 776.074 108.667 775.903 109.136C775.737 109.602 775.653 110.114 775.653 110.67C775.653 111.231 775.737 111.744 775.903 112.21C776.074 112.676 776.333 113.049 776.682 113.33C777.034 113.61 777.477 113.75 778.011 113.75ZM786.112 103.364L785.964 111.653H784.391L784.243 103.364H786.112ZM785.18 115.108C784.866 115.108 784.597 114.998 784.374 114.778C784.15 114.555 784.04 114.286 784.044 113.972C784.04 113.661 784.15 113.396 784.374 113.176C784.597 112.953 784.866 112.841 785.18 112.841C785.487 112.841 785.752 112.953 785.976 113.176C786.199 113.396 786.313 113.661 786.317 113.972C786.313 114.18 786.258 114.371 786.152 114.545C786.05 114.716 785.913 114.852 785.743 114.955C785.572 115.057 785.385 115.108 785.18 115.108Z" fill="#E21212"/>
</svg>
