<svg width="220" height="135" viewBox="0 0 220 135" fill="none" xmlns="http://www.w3.org/2000/svg">
<path d="M66.1348 131.687V29.5909L216.67 19.4141V123.808L66.1348 131.687Z" fill="#BB7F26" stroke="#A37013" stroke-width="5"/>
<path d="M2.99707 9.23737L66.1355 29.5909V129.458C66.1355 131.015 64.4356 131.975 63.1026 131.171L2.99707 94.9192V9.23737Z" fill="#BB7F26" stroke="#A37013" stroke-width="5"/>
<path d="M131.268 3L2 8.58081L66.1354 29.5909L218 19.4141L131.268 3Z" fill="#BB7F26" stroke="#A37013" stroke-width="5"/>
<path d="M110 103.455V54.2121L183.108 47.3182V97.8737L110 103.455Z" fill="#D9D9D9" stroke="#CBC8C4" stroke-width="5"/>
<path d="M125.303 80.9025C127.191 80.9025 129.652 81.3474 131.35 80.3715C132.086 79.9485 132.68 78.8179 133.601 78.7451C135.496 78.5954 136.986 80.1424 138.742 78.5128C139.833 77.5004 139.961 75.6715 141.161 74.7954C142.265 73.9892 143.872 75.9566 144.789 76.3222C147.41 77.3661 148.818 74.8399 151.005 75.0941C155.334 75.5972 158.795 80.053 163.537 78.38C166.724 77.2555 167.484 75.565 168.846 72.5384" stroke="#0769A0" stroke-width="3" stroke-linecap="round"/>
<path d="M132.562 91.0589C134.159 89.8754 138.06 85.7344 140.155 85.9143C142.297 86.0984 144.017 87.5713 146.404 87.6071C148.667 87.6409 150.404 86.9012 152.519 86.379C154.838 85.8061 156.115 87.9928 158.432 88.0717C159.883 88.1212 161.347 88.0717 162.8 88.0717" stroke="#0769A0" stroke-width="3" stroke-linecap="round"/>
<path d="M123.489 68.3563C124.479 67.0727 127.761 59.4732 130.007 63.1122C130.682 64.205 130.511 65.0406 131.654 65.6679C133.404 66.6286 134.23 62.0678 135.316 61.3531C138.675 59.1403 140.86 63.7256 143.715 63.5437C144.984 63.4628 146.209 62.6088 147.344 63.3777C149.717 64.9853 150.806 64.5052 153.123 62.9794" stroke="#0769A0" stroke-width="3" stroke-linecap="round"/>
</svg>
