<svg width="590" height="246" viewBox="0 0 590 246" fill="none" xmlns="http://www.w3.org/2000/svg">
<path d="M10.5137 244.189V225.124V224.719H545.232L546.659 244.189H10.5137Z" fill="#E5E5E5" stroke="#E5E5E5"/>
<path d="M10.5137 244.189V225.125V224.719H545.232L546.659 244.189H10.5137Z" fill="#E5E5E5" stroke="#E5E5E5"/>
<rect x="53.8047" y="226.747" width="25.6893" height="15.4137" fill="#6E8386"/>
<rect x="81.3965" y="226.747" width="25.6893" height="15.4137" fill="#6E8386"/>
<rect x="108.99" y="226.747" width="25.6893" height="15.4137" fill="#6E8386"/>
<rect x="136.582" y="226.747" width="25.6893" height="15.4137" fill="#6E8386"/>
<rect x="164.174" y="226.747" width="25.6893" height="15.4137" fill="#6E8386"/>
<rect x="191.766" y="226.747" width="25.6893" height="15.4137" fill="#6E8386"/>
<rect x="219.359" y="226.747" width="25.6893" height="15.4137" fill="#6E8386"/>
<rect x="246.951" y="226.747" width="25.6893" height="15.4137" fill="#6E8386"/>
<rect x="274.543" y="226.747" width="25.6893" height="15.4137" fill="#6E8386"/>
<rect x="302.135" y="226.747" width="25.6893" height="15.4137" fill="#6E8386"/>
<rect x="329.727" y="226.747" width="25.6893" height="15.4137" fill="#6E8386"/>
<rect x="357.32" y="226.747" width="25.6893" height="15.4137" fill="#6E8386"/>
<rect x="400.135" y="226.747" width="25.6893" height="15.4137" fill="#6E8386"/>
<rect x="427.727" y="226.747" width="25.6893" height="15.4137" fill="#6E8386"/>
<rect x="455.32" y="226.747" width="25.6893" height="15.4137" fill="#6E8386"/>
<rect x="482.912" y="226.747" width="25.6893" height="15.4137" fill="#6E8386"/>
<rect x="510.504" y="226.747" width="25.6893" height="15.4137" fill="#6E8386"/>
<rect x="26.2129" y="226.747" width="25.6893" height="15.4137" fill="#6E8386"/>
<rect x="53.8047" y="226.747" width="25.6893" height="15.4137" fill="#6E8386"/>
<rect x="81.3965" y="226.747" width="25.6893" height="15.4137" fill="#6E8386"/>
<rect x="108.99" y="226.747" width="25.6893" height="15.4137" fill="#6E8386"/>
<rect x="136.582" y="226.747" width="25.6893" height="15.4137" fill="#6E8386"/>
<rect x="164.174" y="226.747" width="25.6893" height="15.4137" fill="#6E8386"/>
<rect x="191.766" y="226.747" width="25.6893" height="15.4137" fill="#6E8386"/>
<rect x="219.359" y="226.747" width="25.6893" height="15.4137" fill="#6E8386"/>
<rect x="246.951" y="226.747" width="25.6893" height="15.4137" fill="#6E8386"/>
<rect x="274.543" y="226.747" width="25.6893" height="15.4137" fill="#6E8386"/>
<rect x="302.135" y="226.747" width="25.6893" height="15.4137" fill="#6E8386"/>
<rect x="329.727" y="226.747" width="25.6893" height="15.4137" fill="#6E8386"/>
<rect x="357.32" y="226.747" width="25.6893" height="15.4137" fill="#6E8386"/>
<rect x="400.135" y="226.747" width="25.6893" height="15.4137" fill="#6E8386"/>
<rect x="427.727" y="226.747" width="25.6893" height="15.4137" fill="#6E8386"/>
<rect x="455.32" y="226.747" width="25.6893" height="15.4137" fill="#6E8386"/>
<rect x="482.912" y="226.747" width="25.6893" height="15.4137" fill="#6E8386"/>
<rect x="510.504" y="226.747" width="25.6893" height="15.4137" fill="#6E8386"/>
<rect x="26.2129" y="226.747" width="25.6893" height="15.4137" fill="#6E8386"/>
<rect x="53.8047" y="226.747" width="25.6893" height="15.4137" fill="#6E8386"/>
<rect x="81.3965" y="226.747" width="25.6893" height="15.4137" fill="#6E8386"/>
<rect x="108.99" y="226.747" width="25.6893" height="15.4137" fill="#6E8386"/>
<rect x="136.582" y="226.747" width="25.6893" height="15.4137" fill="#6E8386"/>
<rect x="164.174" y="226.747" width="25.6893" height="15.4137" fill="#6E8386"/>
<rect x="191.766" y="226.747" width="25.6893" height="15.4137" fill="#6E8386"/>
<rect x="219.359" y="226.747" width="25.6893" height="15.4137" fill="#6E8386"/>
<rect x="246.951" y="226.747" width="25.6893" height="15.4137" fill="#6E8386"/>
<rect x="274.543" y="226.747" width="25.6893" height="15.4137" fill="#6E8386"/>
<rect x="302.135" y="226.747" width="25.6893" height="15.4137" fill="#6E8386"/>
<rect x="329.727" y="226.747" width="25.6893" height="15.4137" fill="#6E8386"/>
<rect x="357.32" y="226.747" width="25.6893" height="15.4137" fill="#6E8386"/>
<rect x="400.135" y="226.747" width="25.6893" height="15.4137" fill="#6E8386"/>
<rect x="427.727" y="226.747" width="25.6893" height="15.4137" fill="#6E8386"/>
<rect x="455.32" y="226.747" width="25.6893" height="15.4137" fill="#6E8386"/>
<rect x="482.912" y="226.747" width="25.6893" height="15.4137" fill="#6E8386"/>
<rect x="510.504" y="226.747" width="25.6893" height="15.4137" fill="#6E8386"/>
<rect x="26.2129" y="226.747" width="25.6893" height="15.4137" fill="#6E8386"/>
<path d="M536.669 211.739H7.18361C-1.1892 216.282 3.69494 220.933 7.18361 222.691H536.669C545.422 217.499 540.316 213.226 536.669 211.739Z" fill="#353535" stroke="#353535"/>
<path d="M154.184 144V244.594H164.65V144H154.184Z" fill="#6F6F6F" stroke="#6F6F6F"/>
<path d="M164.65 144.406H207.466V245H164.65V144.406Z" fill="#B9B8AC" stroke="#B9B8AC"/>
<path d="M362.078 177.261L383.01 178.119V244.594L362.078 243.308V177.261Z" fill="#6F6F6F" stroke="#6F6F6F"/>
<path d="M382.059 178.072V244.594H448.661V178.072H382.059Z" fill="#B9B8AC" stroke="#B9B8AC"/>
<path d="M589 144.406H583.291V245H589V144.406Z" fill="#6F6F6F" stroke="#6F6F6F"/>
<path d="M540.951 144.406V245H583.291V144.406H540.951Z" fill="#B9B8AC" stroke="#B9B8AC"/>
<rect x="168.932" y="147.245" width="36.1553" height="15.4137" fill="#74CBFC"/>
<rect x="168.932" y="164.281" width="36.1553" height="28.3936" fill="#74CBFC"/>
<rect x="168.932" y="195.92" width="36.1553" height="22.7149" fill="#74CBFC"/>
<rect x="384.912" y="189.43" width="25.6893" height="24.3373" fill="#74CBFC"/>
<rect x="413.457" y="189.43" width="30.4466" height="24.3373" fill="#74CBFC"/>
<rect x="543.807" y="146.434" width="35.2039" height="16.2249" fill="#74CBFC"/>
<rect x="543.807" y="165.092" width="35.2039" height="27.5823" fill="#74CBFC"/>
<rect x="543.807" y="195.92" width="35.2039" height="22.7149" fill="#74CBFC"/>
<rect x="561.883" y="222.691" width="16.1747" height="20.2811" fill="#74CBFC"/>
<rect x="544.758" y="222.691" width="16.1747" height="20.2811" fill="#74CBFC"/>
<path d="M47.6214 244.189H1L5.28155 224.313H14.7961C9.72168 208.764 3.56893 178.802 19.5534 183.345L55.233 144.406L78.068 172.799C81.7152 172.664 87.5825 174.584 81.8738 183.345C82.1909 179.965 81.8738 173.529 78.068 174.827C77.4337 175.909 75.5942 177.748 73.3107 176.45C72.0421 177.126 70.7417 179.614 75.6893 184.157C72.3592 183.616 66.8408 180.993 71.4078 174.827L55.233 151.301L28.1165 186.185C30.3366 186.861 36.5845 195.433 43.8155 224.313L47.6214 244.189Z" fill="#E29234"/>
<path d="M43.8155 224.313L47.6214 244.189H1L5.28155 224.313H14.7961M43.8155 224.313H14.7961M43.8155 224.313C36.5845 195.433 30.3366 186.861 28.1165 186.185L55.233 151.301L71.4078 174.827C66.8408 180.993 72.3592 183.616 75.6893 184.157C70.7417 179.614 72.0421 177.126 73.3107 176.45C75.5942 177.748 77.4337 175.909 78.068 174.827C81.8738 173.529 82.1909 179.965 81.8738 183.345C87.5825 174.584 81.7152 172.664 78.068 172.799L55.233 144.406L19.5534 183.345C3.56893 178.802 9.72168 208.764 14.7961 224.313" stroke="#E29234"/>
<path d="M304.521 244.594H351.143L346.861 224.719H337.346C342.421 209.17 348.574 179.208 332.589 183.751L296.91 144.811L274.075 173.205C270.427 173.07 264.56 174.99 270.269 183.751C269.952 180.371 270.269 173.935 274.075 175.233C274.709 176.315 276.548 178.153 278.832 176.855C280.1 177.531 281.401 180.019 276.453 184.562C279.783 184.021 285.302 181.398 280.735 175.233L296.91 151.707L324.026 186.59C321.806 187.266 315.558 195.839 308.327 224.719L304.521 244.594Z" fill="#E29234"/>
<path d="M308.327 224.719L304.521 244.594H351.143L346.861 224.719H337.346M308.327 224.719H337.346M308.327 224.719C315.558 195.839 321.806 187.266 324.026 186.59L296.91 151.707L280.735 175.233C285.302 181.398 279.783 184.021 276.453 184.562C281.401 180.019 280.1 177.531 278.832 176.855C276.548 178.153 274.709 176.315 274.075 175.233C270.269 173.935 269.952 180.371 270.269 183.751C264.56 174.99 270.427 173.07 274.075 173.205L296.91 144.811L332.589 183.751C348.574 179.208 342.421 209.17 337.346 224.719" stroke="#E29234"/>
<path d="M493.861 243.783H540.482L536.201 223.908H526.686C531.761 208.359 537.913 178.397 521.929 182.94L486.249 144L463.414 172.394C459.767 172.258 453.9 174.178 459.609 182.94C459.291 179.56 459.609 173.124 463.414 174.422C464.049 175.503 465.888 177.342 468.172 176.044C469.44 176.72 470.741 179.208 465.793 183.751C469.123 183.21 474.642 180.587 470.075 174.422L486.249 150.896L513.366 185.779C511.146 186.455 504.898 195.027 497.667 223.908L493.861 243.783Z" fill="#E29234"/>
<path d="M497.667 223.908L493.861 243.783H540.482L536.201 223.908H526.686M497.667 223.908H526.686M497.667 223.908C504.898 195.027 511.146 186.455 513.366 185.779L486.249 150.896L470.075 174.422C474.642 180.587 469.123 183.21 465.793 183.751C470.741 179.208 469.44 176.72 468.172 176.044C465.888 177.342 464.049 175.503 463.414 174.422C459.609 173.124 459.291 179.56 459.609 182.94C453.9 174.178 459.767 172.258 463.414 172.394L486.249 144L521.929 182.94C537.913 178.397 531.761 208.359 526.686 223.908" stroke="#E29234"/>
<path d="M10.5137 101.189V82.1245V81.7189H545.232L546.659 101.189H10.5137Z" fill="#9D9797" stroke="#9D9797"/>
<path d="M10.5137 101.189V82.1245V81.7189H545.232L546.659 101.189H10.5137Z" fill="#9D9797" stroke="#9D9797"/>
<rect x="53.8047" y="83.7469" width="25.6893" height="15.4137" fill="#373D3E"/>
<rect x="81.3965" y="83.7469" width="25.6893" height="15.4137" fill="#373D3E"/>
<rect x="108.99" y="83.7469" width="25.6893" height="15.4137" fill="#373D3E"/>
<rect x="136.582" y="83.7469" width="25.6893" height="15.4137" fill="#373D3E"/>
<rect x="164.174" y="83.7469" width="25.6893" height="15.4137" fill="#373D3E"/>
<rect x="191.766" y="83.7469" width="25.6893" height="15.4137" fill="#373D3E"/>
<rect x="219.359" y="83.7469" width="25.6893" height="15.4137" fill="#373D3E"/>
<rect x="246.951" y="83.7469" width="25.6893" height="15.4137" fill="#373D3E"/>
<rect x="274.543" y="83.7469" width="25.6893" height="15.4137" fill="#373D3E"/>
<rect x="302.135" y="83.7469" width="25.6893" height="15.4137" fill="#373D3E"/>
<rect x="329.727" y="83.7469" width="25.6893" height="15.4137" fill="#373D3E"/>
<rect x="357.32" y="83.7469" width="25.6893" height="15.4137" fill="#373D3E"/>
<rect x="400.135" y="83.7469" width="25.6893" height="15.4137" fill="#373D3E"/>
<rect x="427.727" y="83.7469" width="25.6893" height="15.4137" fill="#373D3E"/>
<rect x="455.32" y="83.7469" width="25.6893" height="15.4137" fill="#373D3E"/>
<rect x="482.912" y="83.7469" width="25.6893" height="15.4137" fill="#373D3E"/>
<rect x="510.504" y="83.7469" width="25.6893" height="15.4137" fill="#373D3E"/>
<rect x="26.2129" y="83.7469" width="25.6893" height="15.4137" fill="#373D3E"/>
<rect x="53.8047" y="83.7469" width="25.6893" height="15.4137" fill="#373D3E"/>
<rect x="81.3965" y="83.7469" width="25.6893" height="15.4137" fill="#373D3E"/>
<rect x="108.99" y="83.7469" width="25.6893" height="15.4137" fill="#373D3E"/>
<rect x="136.582" y="83.7469" width="25.6893" height="15.4137" fill="#373D3E"/>
<rect x="164.174" y="83.7469" width="25.6893" height="15.4137" fill="#373D3E"/>
<rect x="191.766" y="83.7469" width="25.6893" height="15.4137" fill="#373D3E"/>
<rect x="219.359" y="83.7469" width="25.6893" height="15.4137" fill="#373D3E"/>
<rect x="246.951" y="83.7469" width="25.6893" height="15.4137" fill="#373D3E"/>
<rect x="274.543" y="83.7469" width="25.6893" height="15.4137" fill="#373D3E"/>
<rect x="302.135" y="83.7469" width="25.6893" height="15.4137" fill="#373D3E"/>
<rect x="329.727" y="83.7469" width="25.6893" height="15.4137" fill="#373D3E"/>
<rect x="357.32" y="83.7469" width="25.6893" height="15.4137" fill="#373D3E"/>
<rect x="400.135" y="83.7469" width="25.6893" height="15.4137" fill="#373D3E"/>
<rect x="427.727" y="83.7469" width="25.6893" height="15.4137" fill="#373D3E"/>
<rect x="455.32" y="83.7469" width="25.6893" height="15.4137" fill="#373D3E"/>
<rect x="482.912" y="83.7469" width="25.6893" height="15.4137" fill="#373D3E"/>
<rect x="510.504" y="83.7469" width="25.6893" height="15.4137" fill="#373D3E"/>
<rect x="26.2129" y="83.7469" width="25.6893" height="15.4137" fill="#373D3E"/>
<rect x="53.8047" y="83.7469" width="25.6893" height="15.4137" fill="#373D3E"/>
<rect x="81.3965" y="83.7469" width="25.6893" height="15.4137" fill="#373D3E"/>
<rect x="108.99" y="83.7469" width="25.6893" height="15.4137" fill="#373D3E"/>
<rect x="136.582" y="83.7469" width="25.6893" height="15.4137" fill="#373D3E"/>
<rect x="164.174" y="83.7469" width="25.6893" height="15.4137" fill="#373D3E"/>
<rect x="191.766" y="83.7469" width="25.6893" height="15.4137" fill="#373D3E"/>
<rect x="219.359" y="83.7469" width="25.6893" height="15.4137" fill="#373D3E"/>
<rect x="246.951" y="83.7469" width="25.6893" height="15.4137" fill="#373D3E"/>
<rect x="274.543" y="83.7469" width="25.6893" height="15.4137" fill="#373D3E"/>
<rect x="302.135" y="83.7469" width="25.6893" height="15.4137" fill="#373D3E"/>
<rect x="329.727" y="83.7469" width="25.6893" height="15.4137" fill="#373D3E"/>
<rect x="357.32" y="83.7469" width="25.6893" height="15.4137" fill="#373D3E"/>
<rect x="400.135" y="83.7469" width="25.6893" height="15.4137" fill="#373D3E"/>
<rect x="427.727" y="83.7469" width="25.6893" height="15.4137" fill="#373D3E"/>
<rect x="455.32" y="83.7469" width="25.6893" height="15.4137" fill="#373D3E"/>
<rect x="482.912" y="83.7469" width="25.6893" height="15.4137" fill="#373D3E"/>
<rect x="510.504" y="83.7469" width="25.6893" height="15.4137" fill="#373D3E"/>
<rect x="26.2129" y="83.7469" width="25.6893" height="15.4137" fill="#373D3E"/>
<path d="M536.669 68.739H7.18361C-1.1892 73.282 3.69494 77.9331 7.18361 79.6908H536.669C545.422 74.4989 540.316 70.2263 536.669 68.739Z" fill="#353535" stroke="#353535"/>
<path d="M154.184 1V101.594H164.65V1H154.184Z" fill="#C29F22" stroke="#C29F22"/>
<path d="M164.65 1.40564H207.466V102H164.65V1.40564Z" fill="#84837C" stroke="#84837C"/>
<path d="M362.078 34.261L383.01 35.1187V101.594L362.078 100.308V34.261Z" fill="#C29F22" stroke="#C29F22"/>
<path d="M382.059 35.0723V101.594H448.661V35.0723H382.059Z" fill="#84837C" stroke="#84837C"/>
<path d="M589 1.40564H583.291V102H589V1.40564Z" fill="#C29F22" stroke="#C29F22"/>
<path d="M540.951 1.40564V102H583.291V1.40564H540.951Z" fill="#84837C" stroke="#84837C"/>
<rect x="168.932" y="4.245" width="36.1553" height="15.4137" fill="#228ECC"/>
<rect x="168.932" y="21.2811" width="36.1553" height="28.3936" fill="#228ECC"/>
<rect x="168.932" y="52.9197" width="36.1553" height="22.7149" fill="#228ECC"/>
<rect x="384.912" y="46.4297" width="25.6893" height="24.3373" fill="#228ECC"/>
<rect x="413.457" y="46.4297" width="30.4466" height="24.3373" fill="#228ECC"/>
<rect x="543.807" y="3.43372" width="35.2039" height="16.2249" fill="#228ECC"/>
<rect x="543.807" y="22.0924" width="35.2039" height="27.5823" fill="#228ECC"/>
<rect x="543.807" y="52.9197" width="35.2039" height="22.7149" fill="#228ECC"/>
<rect x="561.883" y="79.6908" width="16.1747" height="20.2811" fill="#228ECC"/>
<rect x="544.758" y="79.6908" width="16.1747" height="20.2811" fill="#228ECC"/>
<path d="M47.6214 101.189H1L5.28155 81.3133H14.7961C9.72168 65.7644 3.56893 35.8024 19.5534 40.3454L55.233 1.40564L78.068 29.7992C81.7152 29.664 87.5825 31.5839 81.8738 40.3454C82.1909 36.9652 81.8738 30.5293 78.068 31.8273C77.4337 32.909 75.5942 34.7478 73.3107 33.4498C72.0421 34.1259 70.7417 36.6137 75.6893 41.1566C72.3592 40.6158 66.8408 37.9928 71.4078 31.8273L55.233 8.30122L28.1165 43.1848C30.3366 43.8608 36.5845 52.4329 43.8155 81.3133L47.6214 101.189Z" fill="#B66A10"/>
<path d="M43.8155 81.3133L47.6214 101.189H1L5.28155 81.3133H14.7961M43.8155 81.3133H14.7961M43.8155 81.3133C36.5845 52.4329 30.3366 43.8608 28.1165 43.1848L55.233 8.30122L71.4078 31.8273C66.8408 37.9928 72.3592 40.6158 75.6893 41.1566C70.7417 36.6137 72.0421 34.1259 73.3107 33.4498C75.5942 34.7478 77.4337 32.909 78.068 31.8273C81.8738 30.5293 82.1909 36.9652 81.8738 40.3454C87.5825 31.5839 81.7152 29.664 78.068 29.7992L55.233 1.40564L19.5534 40.3454C3.56893 35.8024 9.72168 65.7644 14.7961 81.3133" stroke="#B66A10"/>
<path d="M304.521 101.594H351.143L346.861 81.7189H337.346C342.421 66.17 348.574 36.208 332.589 40.751L296.91 1.81128L274.075 30.2049C270.427 30.0696 264.56 31.9896 270.269 40.751C269.952 37.3708 270.269 30.935 274.075 32.233C274.709 33.3146 276.548 35.1534 278.832 33.8555C280.1 34.5315 281.401 37.0193 276.453 41.5623C279.783 41.0215 285.302 38.3984 280.735 32.233L296.91 8.70686L324.026 43.5904C321.806 44.2664 315.558 52.8386 308.327 81.7189L304.521 101.594Z" fill="#B66A10"/>
<path d="M308.327 81.7189L304.521 101.594H351.143L346.861 81.7189H337.346M308.327 81.7189H337.346M308.327 81.7189C315.558 52.8386 321.806 44.2664 324.026 43.5904L296.91 8.70686L280.735 32.233C285.302 38.3984 279.783 41.0215 276.453 41.5623C281.401 37.0193 280.1 34.5315 278.832 33.8555C276.548 35.1534 274.709 33.3146 274.075 32.233C270.269 30.935 269.952 37.3708 270.269 40.751C264.56 31.9896 270.427 30.0696 274.075 30.2049L296.91 1.81128L332.589 40.751C348.574 36.208 342.421 66.17 337.346 81.7189" stroke="#B66A10"/>
<path d="M493.861 100.783H540.482L536.201 80.9076H526.686C531.761 65.3588 537.913 35.3968 521.929 39.9397L486.249 1L463.414 29.3936C459.767 29.2584 453.9 31.1783 459.609 39.9397C459.291 36.5596 459.609 30.1237 463.414 31.4217C464.049 32.5033 465.888 34.3422 468.172 33.0442C469.44 33.7202 470.741 36.208 465.793 40.751C469.123 40.2102 474.642 37.5872 470.075 31.4217L486.249 7.89558L513.366 42.7791C511.146 43.4551 504.898 52.0273 497.667 80.9076L493.861 100.783Z" fill="#B66A10"/>
<path d="M497.667 80.9076L493.861 100.783H540.482L536.201 80.9076H526.686M497.667 80.9076H526.686M497.667 80.9076C504.898 52.0273 511.146 43.4551 513.366 42.7791L486.249 7.89558L470.075 31.4217C474.642 37.5872 469.123 40.2102 465.793 40.751C470.741 36.208 469.44 33.7202 468.172 33.0442C465.888 34.3422 464.049 32.5033 463.414 31.4217C459.609 30.1237 459.291 36.5596 459.609 39.9397C453.9 31.1783 459.767 29.2584 463.414 29.3936L486.249 1L521.929 39.9397C537.913 35.3968 531.761 65.3588 526.686 80.9076" stroke="#B66A10"/>
</svg>
