<svg width="590" height="103" viewBox="0 0 590 103" fill="none" xmlns="http://www.w3.org/2000/svg">
<path d="M10.5137 101.189V82.1245V81.7189H545.232L546.659 101.189H10.5137Z" fill="#E5E5E5" stroke="#E5E5E5"/>
<path d="M10.5137 101.189V82.1246V81.7189H545.232L546.659 101.189H10.5137Z" fill="#E5E5E5" stroke="#E5E5E5"/>
<rect x="53.8047" y="83.747" width="25.6893" height="15.4137" fill="#6E8386"/>
<rect x="81.3965" y="83.747" width="25.6893" height="15.4137" fill="#6E8386"/>
<rect x="108.99" y="83.747" width="25.6893" height="15.4137" fill="#6E8386"/>
<rect x="136.582" y="83.747" width="25.6893" height="15.4137" fill="#6E8386"/>
<rect x="164.174" y="83.747" width="25.6893" height="15.4137" fill="#6E8386"/>
<rect x="191.766" y="83.747" width="25.6893" height="15.4137" fill="#6E8386"/>
<rect x="219.359" y="83.747" width="25.6893" height="15.4137" fill="#6E8386"/>
<rect x="246.951" y="83.747" width="25.6893" height="15.4137" fill="#6E8386"/>
<rect x="274.543" y="83.747" width="25.6893" height="15.4137" fill="#6E8386"/>
<rect x="302.135" y="83.747" width="25.6893" height="15.4137" fill="#6E8386"/>
<rect x="329.727" y="83.747" width="25.6893" height="15.4137" fill="#6E8386"/>
<rect x="357.32" y="83.747" width="25.6893" height="15.4137" fill="#6E8386"/>
<rect x="400.135" y="83.747" width="25.6893" height="15.4137" fill="#6E8386"/>
<rect x="427.727" y="83.747" width="25.6893" height="15.4137" fill="#6E8386"/>
<rect x="455.32" y="83.747" width="25.6893" height="15.4137" fill="#6E8386"/>
<rect x="482.912" y="83.747" width="25.6893" height="15.4137" fill="#6E8386"/>
<rect x="510.504" y="83.747" width="25.6893" height="15.4137" fill="#6E8386"/>
<rect x="26.2129" y="83.747" width="25.6893" height="15.4137" fill="#6E8386"/>
<rect x="53.8047" y="83.747" width="25.6893" height="15.4137" fill="#6E8386"/>
<rect x="81.3965" y="83.747" width="25.6893" height="15.4137" fill="#6E8386"/>
<rect x="108.99" y="83.747" width="25.6893" height="15.4137" fill="#6E8386"/>
<rect x="136.582" y="83.747" width="25.6893" height="15.4137" fill="#6E8386"/>
<rect x="164.174" y="83.747" width="25.6893" height="15.4137" fill="#6E8386"/>
<rect x="191.766" y="83.747" width="25.6893" height="15.4137" fill="#6E8386"/>
<rect x="219.359" y="83.747" width="25.6893" height="15.4137" fill="#6E8386"/>
<rect x="246.951" y="83.747" width="25.6893" height="15.4137" fill="#6E8386"/>
<rect x="274.543" y="83.747" width="25.6893" height="15.4137" fill="#6E8386"/>
<rect x="302.135" y="83.747" width="25.6893" height="15.4137" fill="#6E8386"/>
<rect x="329.727" y="83.747" width="25.6893" height="15.4137" fill="#6E8386"/>
<rect x="357.32" y="83.747" width="25.6893" height="15.4137" fill="#6E8386"/>
<rect x="400.135" y="83.747" width="25.6893" height="15.4137" fill="#6E8386"/>
<rect x="427.727" y="83.747" width="25.6893" height="15.4137" fill="#6E8386"/>
<rect x="455.32" y="83.747" width="25.6893" height="15.4137" fill="#6E8386"/>
<rect x="482.912" y="83.747" width="25.6893" height="15.4137" fill="#6E8386"/>
<rect x="510.504" y="83.747" width="25.6893" height="15.4137" fill="#6E8386"/>
<rect x="26.2129" y="83.747" width="25.6893" height="15.4137" fill="#6E8386"/>
<rect x="53.8047" y="83.747" width="25.6893" height="15.4137" fill="#6E8386"/>
<rect x="81.3965" y="83.747" width="25.6893" height="15.4137" fill="#6E8386"/>
<rect x="108.99" y="83.747" width="25.6893" height="15.4137" fill="#6E8386"/>
<rect x="136.582" y="83.747" width="25.6893" height="15.4137" fill="#6E8386"/>
<rect x="164.174" y="83.747" width="25.6893" height="15.4137" fill="#6E8386"/>
<rect x="191.766" y="83.747" width="25.6893" height="15.4137" fill="#6E8386"/>
<rect x="219.359" y="83.747" width="25.6893" height="15.4137" fill="#6E8386"/>
<rect x="246.951" y="83.747" width="25.6893" height="15.4137" fill="#6E8386"/>
<rect x="274.543" y="83.747" width="25.6893" height="15.4137" fill="#6E8386"/>
<rect x="302.135" y="83.747" width="25.6893" height="15.4137" fill="#6E8386"/>
<rect x="329.727" y="83.747" width="25.6893" height="15.4137" fill="#6E8386"/>
<rect x="357.32" y="83.747" width="25.6893" height="15.4137" fill="#6E8386"/>
<rect x="400.135" y="83.747" width="25.6893" height="15.4137" fill="#6E8386"/>
<rect x="427.727" y="83.747" width="25.6893" height="15.4137" fill="#6E8386"/>
<rect x="455.32" y="83.747" width="25.6893" height="15.4137" fill="#6E8386"/>
<rect x="482.912" y="83.747" width="25.6893" height="15.4137" fill="#6E8386"/>
<rect x="510.504" y="83.747" width="25.6893" height="15.4137" fill="#6E8386"/>
<rect x="26.2129" y="83.747" width="25.6893" height="15.4137" fill="#6E8386"/>
<path d="M536.669 68.739H7.18361C-1.1892 73.2819 3.69494 77.9331 7.18361 79.6908H536.669C545.422 74.4988 540.316 70.2262 536.669 68.739Z" fill="#353535" stroke="#353535"/>
<path d="M154.184 1V101.594H164.65V1H154.184Z" fill="#6F6F6F" stroke="#6F6F6F"/>
<path d="M164.65 1.40564H207.466V102H164.65V1.40564Z" fill="#B9B8AC" stroke="#B9B8AC"/>
<path d="M362.078 34.261L383.01 35.1188V101.594L362.078 100.308V34.261Z" fill="#6F6F6F" stroke="#6F6F6F"/>
<path d="M382.059 35.0723V101.594H448.661V35.0723H382.059Z" fill="#B9B8AC" stroke="#B9B8AC"/>
<path d="M589 1.40564H583.291V102H589V1.40564Z" fill="#6F6F6F" stroke="#6F6F6F"/>
<path d="M540.951 1.40564V102H583.291V1.40564H540.951Z" fill="#B9B8AC" stroke="#B9B8AC"/>
<rect x="168.932" y="4.245" width="36.1553" height="15.4137" fill="#74CBFC"/>
<rect x="168.932" y="21.2811" width="36.1553" height="28.3936" fill="#74CBFC"/>
<rect x="168.932" y="52.9197" width="36.1553" height="22.7149" fill="#74CBFC"/>
<rect x="384.912" y="46.4297" width="25.6893" height="24.3373" fill="#74CBFC"/>
<rect x="413.457" y="46.4297" width="30.4466" height="24.3373" fill="#74CBFC"/>
<rect x="543.807" y="3.43372" width="35.2039" height="16.2249" fill="#74CBFC"/>
<rect x="543.807" y="22.0923" width="35.2039" height="27.5823" fill="#74CBFC"/>
<rect x="543.807" y="52.9197" width="35.2039" height="22.7149" fill="#74CBFC"/>
<rect x="561.883" y="79.6908" width="16.1747" height="20.2811" fill="#74CBFC"/>
<rect x="544.758" y="79.6908" width="16.1747" height="20.2811" fill="#74CBFC"/>
<path d="M47.6214 101.189H1L5.28155 81.3133H14.7961C9.72168 65.7644 3.56893 35.8024 19.5534 40.3454L55.233 1.40564L78.068 29.7992C81.7152 29.664 87.5825 31.5839 81.8738 40.3454C82.1909 36.9652 81.8738 30.5293 78.068 31.8273C77.4337 32.909 75.5942 34.7478 73.3107 33.4498C72.0421 34.1259 70.7417 36.6137 75.6893 41.1566C72.3592 40.6158 66.8408 37.9928 71.4078 31.8273L55.233 8.30122L28.1165 43.1848C30.3366 43.8608 36.5845 52.4329 43.8155 81.3133L47.6214 101.189Z" fill="#E29234"/>
<path d="M43.8155 81.3133L47.6214 101.189H1L5.28155 81.3133H14.7961M43.8155 81.3133H14.7961M43.8155 81.3133C36.5845 52.4329 30.3366 43.8608 28.1165 43.1848L55.233 8.30122L71.4078 31.8273C66.8408 37.9928 72.3592 40.6158 75.6893 41.1566C70.7417 36.6137 72.0421 34.1259 73.3107 33.4498C75.5942 34.7478 77.4337 32.909 78.068 31.8273C81.8738 30.5293 82.1909 36.9652 81.8738 40.3454C87.5825 31.5839 81.7152 29.664 78.068 29.7992L55.233 1.40564L19.5534 40.3454C3.56893 35.8024 9.72168 65.7644 14.7961 81.3133" stroke="#E29234"/>
<path d="M304.521 101.594H351.143L346.861 81.7188H337.346C342.421 66.17 348.574 36.208 332.589 40.751L296.91 1.81122L274.075 30.2048C270.427 30.0696 264.56 31.9895 270.269 40.751C269.952 37.3708 270.269 30.9349 274.075 32.2329C274.709 33.3146 276.548 35.1534 278.832 33.8554C280.1 34.5314 281.401 37.0192 276.453 41.5622C279.783 41.0214 285.302 38.3984 280.735 32.2329L296.91 8.7068L324.026 43.5903C321.806 44.2664 315.558 52.8385 308.327 81.7188L304.521 101.594Z" fill="#E29234"/>
<path d="M308.327 81.7188L304.521 101.594H351.143L346.861 81.7188H337.346M308.327 81.7188H337.346M308.327 81.7188C315.558 52.8385 321.806 44.2664 324.026 43.5903L296.91 8.7068L280.735 32.2329C285.302 38.3984 279.783 41.0214 276.453 41.5622C281.401 37.0192 280.1 34.5314 278.832 33.8554C276.548 35.1534 274.709 33.3146 274.075 32.2329C270.269 30.9349 269.952 37.3708 270.269 40.751C264.56 31.9895 270.427 30.0696 274.075 30.2048L296.91 1.81122L332.589 40.751C348.574 36.208 342.421 66.17 337.346 81.7188" stroke="#E29234"/>
<path d="M493.861 100.783H540.482L536.201 80.9076H526.686C531.761 65.3588 537.913 35.3968 521.929 39.9397L486.249 1L463.414 29.3936C459.767 29.2584 453.9 31.1783 459.609 39.9397C459.291 36.5596 459.609 30.1237 463.414 31.4217C464.049 32.5033 465.888 34.3422 468.172 33.0442C469.44 33.7202 470.741 36.208 465.793 40.751C469.123 40.2102 474.642 37.5872 470.075 31.4217L486.249 7.89558L513.366 42.7791C511.146 43.4551 504.898 52.0273 497.667 80.9076L493.861 100.783Z" fill="#E29234"/>
<path d="M497.667 80.9076L493.861 100.783H540.482L536.201 80.9076H526.686M497.667 80.9076H526.686M497.667 80.9076C504.898 52.0273 511.146 43.4551 513.366 42.7791L486.249 7.89558L470.075 31.4217C474.642 37.5872 469.123 40.2102 465.793 40.751C470.741 36.208 469.44 33.7202 468.172 33.0442C465.888 34.3422 464.049 32.5033 463.414 31.4217C459.609 30.1237 459.291 36.5596 459.609 39.9397C453.9 31.1783 459.767 29.2584 463.414 29.3936L486.249 1L521.929 39.9397C537.913 35.3968 531.761 65.3588 526.686 80.9076" stroke="#E29234"/>
</svg>
