<svg width="114" height="179" viewBox="0 0 114 179" fill="none" xmlns="http://www.w3.org/2000/svg">
<path d="M38.6472 127.052V125.428C38.7705 114.833 39.9108 106.403 42.0681 100.137C44.2871 93.8717 47.4307 88.8022 51.4988 84.9289C55.5669 81.0555 60.4672 77.5239 66.1995 74.3341C69.8978 72.1696 73.2263 69.7488 76.1849 67.0716C79.1435 64.3944 81.4858 61.3185 83.2117 57.8439C84.9375 54.3693 85.8005 50.5244 85.8005 46.3093C85.8005 41.2398 84.5061 36.8538 81.9173 33.1513C79.3285 29.4488 75.8767 26.6008 71.562 24.6072C67.309 22.5566 62.5629 21.5313 57.3236 21.5313C52.5775 21.5313 48.047 22.4426 43.7324 24.2654C39.4177 26.0882 35.8427 28.9362 33.0073 32.8095C30.1719 36.6259 28.5385 41.5531 28.1071 47.5909H0C0.431468 37.338 3.23601 28.6799 8.41363 21.6167C13.5912 14.4966 20.4331 9.11376 28.9392 5.46825C37.5069 1.82275 46.9684 0 57.3236 0C68.665 0 78.5888 1.96516 87.0949 5.89547C95.601 9.76882 102.196 15.2086 106.881 22.2148C111.627 29.164 114 37.281 114 46.5656C114 52.9453 112.921 58.6983 110.764 63.8248C108.607 68.8943 105.525 73.4227 101.518 77.41C97.5734 81.3973 92.8272 84.9289 87.2798 88.0048C82.0406 91.0237 77.7875 94.1566 74.5207 97.4033C71.3155 100.65 68.9732 104.495 67.4939 108.938C66.0146 113.381 65.2133 118.878 65.09 125.428V127.052H38.6472ZM52.6083 179C47.5539 179 43.2084 177.348 39.5718 174.044C35.9351 170.684 34.1168 166.639 34.1168 161.912C34.1168 157.241 35.9351 153.254 39.5718 149.95C43.2084 146.589 47.5539 144.909 52.6083 144.909C57.601 144.909 61.9156 146.589 65.5523 149.95C69.2506 153.254 71.0998 157.241 71.0998 161.912C71.0998 165.045 70.2368 167.921 68.5109 170.541C66.8467 173.105 64.6277 175.155 61.854 176.693C59.0803 178.231 55.9984 179 52.6083 179Z" fill="#FFB800"/>
</svg>
