<svg width="177" height="278" viewBox="0 0 177 278" fill="none" xmlns="http://www.w3.org/2000/svg">
<path d="M60.0049 197.264V194.744C60.1963 178.294 61.9667 165.205 65.3163 155.477C68.7616 145.748 73.6423 137.877 79.9586 131.863C86.2749 125.849 93.8832 120.366 102.783 115.414C108.526 112.053 113.693 108.294 118.287 104.137C122.881 99.9808 126.517 95.2051 129.197 89.8103C131.877 84.4155 133.217 78.4458 133.217 71.9013C133.217 64.0302 131.207 57.2203 127.187 51.4718C123.168 45.7232 117.809 41.3012 111.109 38.2059C104.506 35.022 97.1371 33.4301 89.0024 33.4301C81.6334 33.4301 74.5993 34.8452 67.9002 37.6752C61.2011 40.5053 55.6504 44.9273 51.2482 50.9411C46.8459 56.8666 44.3098 64.5166 43.6399 73.8912H0C0.669911 57.9721 5.02433 44.5293 13.0633 33.5628C21.1022 22.5079 31.7251 14.1503 44.9319 8.49018C58.2344 2.83006 72.9246 0 89.0024 0C106.612 0 122.019 3.05117 135.226 9.1535C148.433 15.1674 158.673 23.6133 165.946 34.4914C173.315 45.281 177 57.8836 177 72.2993C177 82.2045 175.325 91.1369 171.976 99.0964C168.626 106.968 163.841 113.998 157.62 120.189C151.496 126.38 144.127 131.863 135.513 136.639C127.379 141.326 120.775 146.19 115.703 151.232C110.727 156.273 107.09 162.242 104.793 169.141C102.496 176.039 101.252 184.573 101.061 194.744V197.264H60.0049ZM81.6813 277.921C73.8337 277.921 67.0868 275.356 61.4404 270.227C55.794 265.009 52.9708 258.73 52.9708 251.389C52.9708 244.137 55.794 237.946 61.4404 232.817C67.0868 227.599 73.8337 224.99 81.6813 224.99C89.4331 224.99 96.1322 227.599 101.779 232.817C107.521 237.946 110.392 244.137 110.392 251.389C110.392 256.253 109.052 260.72 106.372 264.788C103.788 268.768 100.343 271.951 96.0365 274.339C91.7299 276.727 86.9448 277.921 81.6813 277.921Z" fill="#FFB800"/>
</svg>
