<svg width="31" height="49" viewBox="0 0 31 49" fill="none" xmlns="http://www.w3.org/2000/svg">
<path d="M10.5093 34.5491V34.1077C10.5428 31.2266 10.8529 28.9342 11.4396 27.2304C12.043 25.5265 12.8978 24.148 14.0041 23.0947C15.1103 22.0414 16.4428 21.0811 18.0016 20.2137C19.0073 19.6251 19.9124 18.9668 20.717 18.2388C21.5215 17.5108 22.1584 16.6743 22.6277 15.7295C23.0971 14.7846 23.3317 13.7391 23.3317 12.5929C23.3317 11.2143 22.9797 10.0216 22.2758 9.01483C21.5718 8.00802 20.6331 7.23355 19.4599 6.69142C18.3033 6.1338 17.0127 5.85499 15.588 5.85499C14.2974 5.85499 13.0654 6.10282 11.8921 6.59849C10.7188 7.09415 9.74669 7.86861 8.97567 8.92189C8.20465 9.95968 7.76048 11.2995 7.64315 12.9414H0C0.117329 10.1533 0.879968 7.79891 2.28792 5.87823C3.69586 3.94205 5.55637 2.4783 7.86942 1.48698C10.1992 0.49566 12.7721 0 15.588 0C18.6721 0 21.3706 0.534385 23.6837 1.60315C25.9968 2.65643 27.7902 4.13567 29.0641 6.04087C30.3547 7.93057 31 10.1378 31 12.6626C31 14.3974 30.7067 15.9618 30.12 17.3559C29.5334 18.7344 28.6953 19.9658 27.6058 21.0501C26.5331 22.1343 25.2425 23.0947 23.734 23.9311C22.3093 24.7521 21.1527 25.604 20.2644 26.4869C19.3928 27.3698 18.7559 28.4153 18.3536 29.6235C17.9513 30.8316 17.7334 32.3264 17.6999 34.1077V34.5491H10.5093ZM14.3058 48.6754C12.9313 48.6754 11.7497 48.2262 10.7607 47.3279C9.77183 46.414 9.27737 45.3142 9.27737 44.0286C9.27737 42.7585 9.77183 41.6742 10.7607 40.7758C11.7497 39.862 12.9313 39.405 14.3058 39.405C15.6634 39.405 16.8367 39.862 17.8256 40.7758C18.8313 41.6742 19.3341 42.7585 19.3341 44.0286C19.3341 44.8805 19.0995 45.6627 18.6302 46.3753C18.1776 47.0723 17.5742 47.6299 16.82 48.0481C16.0657 48.4663 15.2276 48.6754 14.3058 48.6754Z" fill="#FFB800"/>
</svg>
